<?xml version="1.0" encoding="utf-8"?>
<!-- Generator: Adobe Illustrator 16.0.0, SVG Export Plug-In . SVG Version: 6.00 Build 0)  -->
<!DOCTYPE svg PUBLIC "-//W3C//DTD SVG 1.1//EN" "http://www.w3.org/Graphics/SVG/1.1/DTD/svg11.dtd">
<svg version="1.1" id="Layer_1" xmlns="http://www.w3.org/2000/svg" xmlns:xlink="http://www.w3.org/1999/xlink" x="0px" y="0px"
	 width="1200px" height="700px" viewBox="0 0 1200 700" enable-background="new 0 0 1200 700" xml:space="preserve">
<path id="truckYeah" fill="none" stroke="#000000" stroke-width="3" stroke-miterlimit="10" d="M888.723,498.33
	c5.352,21.862,5.526,24.869,27.013,24.507c2.312-0.039,4.63,0.472,6.949,0.676c16.953,1.488,21.21-0.062,25.764-10.654
	c2.138-4.972,3.861-10.333,4.553-15.675c2.117-16.378,3.644-32.832,5.411-49.366c7.404-0.335,15.483-0.7,22.191-1.003
	c0-11.209,0-20.628,0-30.048c-0.123-8.097,1.116-16.438,1.598-24.823c0.668-11.633,0.957-23.297,0.96-34.948
	c0-2.613-1.521-5.429-2.937-7.794c-2.345-3.921-5.173-7.554-8.086-11.722c3.153-1.318,4.75-1.985,6.71-2.804
	c-1.209-2.288-2.253-4.263-3.574-6.764c-28.774,0-57.676,0-86.935,0c0-11.06,0-21.523,0-31.702
	c-2.014-1.872-3.689-3.428-5.601-5.204c-2.805,0-5.744,0-9.219,0c-3.801-16.921-8.163-33.485-11.084-50.299
	c-2.147-12.362-8.987-19.222-20.424-22.26c-43.34-11.514-87.831-11.615-132.153-12.564c-23.606-0.505-47.354-0.34-70.859,1.643
	c-39.385,3.323-78.676,7.958-117.895,12.92c-9.733,1.231-20.263,3.199-27.008,12.202c-12.434,16.596-24.905,33.164-37.266,49.813
	c-7.058,9.506-13.93,19.149-20.947,28.816c-1.147-5.861-2.161-11.037-2.949-15.067c-12.951,0-23.951-0.365-34.887,0.304
	c-2.222,0.136-5.758,4.009-6.009,6.437c-0.785,7.584-0.82,15.361,0.02,22.934c0.275,2.478,3.747,5.421,6.434,6.577
	c2.622,1.128,6.108,0.246,9.216,0.246c-3.447,1.368-6.972,1.16-10.246,1.97c-6.167,1.525-12.075,4.626-18.291,5.342
	c-34.723,3.999-69.083,9.6-102.478,20.272c-24.986,7.985-49.544,16.903-72.915,31.675c0.95,6.515,2.598,13.243,2.786,20.012
	c0.44,15.82-0.251,31.676,0.37,47.484c0.359,9.132-3.538,15.545-9.746,21.472c0,7.641,0.464,15.489-0.135,23.256
	c-0.562,7.279,3.234,11.011,9.141,13.015c4.922,1.671,10.186,2.331,15.804,3.549c0.877,3.829,1.32,8.248,2.997,12.135
	c0.992,2.299,3.747,5.035,6.033,5.371c10.452,1.532,21.004,2.876,31.547,3.112c7.099,0.159,9.6,3.558,11.757,9.507
	c5.864,16.175,15.209,30.149,32.674,34.748c11.431,3.01,23.769,2.385,35.577,4.195c16.96,2.602,30.957-1.993,41.962-15.249
	c3.934-4.738,7.77-9.557,10.137-12.474c88.598,4.129,175.633,8.187,262.371,12.229c2.785,9.062,5.403,18.96,8.873,28.55
	c5.192,14.352,13.898,24.11,30.969,24.178c10.408,0.041,20.805,2.291,31.215,3.475c8.169,0.929,16.281,2.685,23.529-3.774
	c11.716-10.439,18.83-23.631,22.488-38.43c4.28-17.316,7.22-34.965,11.037-53.944c30.074-12.419,61.861-25.546,92.319-38.124
	c2.723-3.911,4.865-6.988,8.414-12.085C887.188,490.694,887.798,494.551,888.723,498.33z M702.479,318.981
	c23.478,1.999,46.967,3.921,70.489,5.221c2.45,0.136,7.023-3.571,7.412-6.006c4.189-26.243,7.646-52.601,11.521-78.895
	c0.983-6.673-1.565-9.84-8.096-9.953c-40.773-0.706-81.583-2.76-122.309-1.681c-46.514,1.232-92.973,4.98-139.41,8.283
	c-11.335,0.807-23.323,0.267-31.454,12.315c-16.164,23.951-33.58,47.056-50.441,70.537c-1.046,1.456-1.768,3.145-3.014,5.4
	c24.884-1.343,48.659-2.627,72.434-3.91c-0.021-0.903-0.043-1.807-0.064-2.71c-21.177,0.935-42.354,1.87-63.532,2.804
	c-0.243-1.111-0.486-2.222-0.729-3.333c3.789-1.269,7.501-2.882,11.381-3.736c8.5-1.87,17.027-4.041,25.655-4.766
	c6.118-0.514,12.43,1.035,18.632,1.846c9.439,1.235,18.897,2.403,28.271,4.035c5.972,1.04,11.781,4.006,17.708,4.141
	c25.102,0.567,50.22,0.422,75.332,0.489c16.85,0.045,33.701,0.009,50.551,0.009c0.027-0.122,0.055-0.243,0.082-0.365
	c-27.288-1.039-54.576-2.078-82.574-3.144c0.734-2.237,1.21-3.689,1.596-4.863c17.819-1.162,35.109-3.777,52.242-2.99
	c17.387,0.799,34.619,4.957,50.923,7.489C698.234,316.864,700.282,318.794,702.479,318.981z M334.722,393.184
	c-34.178,0-68.356,0-102.534,0c0.018,0.712,0.037,1.424,0.055,2.137c13.683,0,27.366,0,41.41,0c0,3.35,0,5.949,0,8.643
	c93.462,3.182,186.548,6.352,279.8,9.525c0.555-2.889,1.113-5.794,1.591-8.283c19.973,0,39.726,0,59.479,0
	c0.018-0.801,0.034-1.603,0.051-2.404c-43.809-2-87.617-3.999-132.475-6.047c1.336-1.545,1.556-2.007,1.753-1.998
	c26.437,1.192,52.873,2.403,79.307,3.652c11.64,0.551,23.271,1.302,34.915,1.74c9.189,0.346,17.683,0.693,25.981-6.334
	c19.212-16.271,41.849-27.199,65.181-36.373c13.414-5.273,27.244-9.488,39.382-13.663c-8.938-1.588-19.14-4.322-29.479-5.046
	c-21.905-1.534-43.877-2.218-65.832-2.875c-20.907-0.626-41.827-0.906-62.743-1.068c-7.881-0.061-16.145-0.769-23.591,1.223
	c-38.087,10.187-76.089,20.958-108.773,44.327c-3.704,2.647-5.535,7.916-8.26,12.008c-0.408-0.51-1.824-2.283-2.957-3.701
	c1.915-1.576,3.492-2.875,5.293-4.357c-18.231-6.442-32.525,5.383-48.47,7.244c4.583-2.237,9.586-3.291,13.951-5.568
	c11.487-5.993,22.454-13.015,34.079-18.705c14.232-6.966,28.924-12.994,42.441-18.995c-7.238,2.069-15.576,4.452-23.913,6.835
	c8.568-5.162,17.759-8.346,27.023-11.297c9.421-3.001,18.916-5.773,27.43-8.357c-76.113-3.585-149.54,9.897-218.237,46.38
	c9.716-6.431,19.794-11.725,30.167-16.358c10.582-4.726,21.281-9.313,32.248-13.018c10.772-3.64,21.945-6.092,32.942-9.065
	c-40.985,2.845-130.98,31.821-146.044,46.829c33.283,0,66.038,0,98.793,0C334.698,391.201,334.71,392.192,334.722,393.184z
	 M680.938,535.605c0.421,7.54-3.804,11.624-9.776,13.145c-8.288,2.109-16.987,3.769-25.484,3.655
	c-20.11-0.271-40.222-1.442-60.303-2.721c-29.559-1.882-59.103-4.029-88.632-6.321c-48.592-3.771-97.18-7.616-145.748-11.688
	c-31.647-2.654-63.253-5.792-94.883-8.657c-10.131-0.918-20.278-1.657-31.588-2.573c2.916,6.697,0.564,14.663,9.722,15.777
	c11.055,1.346,22.093,2.9,33.18,3.889c9.821,0.874,20.271,4.889,28.683-4.328c0.488-0.534,1.895-0.394,2.851-0.309
	c6.958,0.624,13.905,1.375,20.865,1.973c69.917,5.999,139.848,11.851,209.736,18.178c6.147,0.557,12,4.233,18.019,6.378
	c4.293,1.529,8.55,3.772,12.973,4.219c15.54,1.57,31.129,3.112,46.729,3.516c18.029,0.467,36.113,0.21,54.125-0.702
	c9.708-0.492,16.126-5.216,17.702-16.549c3.127-22.488,6.973-44.944,11.988-67.082c4.764-21.027,7.022-42.907,19.439-61.761
	c6.233-9.464,16.464-20.758,25.208-23.06c-2.793,2.216-4.162,3.466-5.686,4.485c-16.314,10.924-24.744,27.318-28.768,45.52
	c-6.514,29.457-11.325,59.287-17.102,88.911c-1.577,8.09-4.034,16.009-6.088,24.006c21.746-42.327,27.048-90.944,53.266-131.338
	c-19.447,34.283-27.601,72.594-39.553,109.553c0.998-1.365,1.639-2.865,2.156-4.407c8.314-24.725,16.813-49.39,24.852-74.205
	c6.174-19.057,18.498-32.121,37.471-37.829c5.701-1.716,13.136-0.671,18.839,1.534c4.868,1.883,8.394,7.241,12.513,11.062
	c-1.47-4.245-3.278-8.678-6.315-11.98c-3.176-3.456-7.532-5.827-11.373-8.672c0.131-0.325,0.262-0.65,0.393-0.975
	c2.796,1.242,5.591,2.484,8.387,3.727c0.549-0.578,1.098-1.156,1.646-1.735c-6.425-7.005-12.851-14.01-19.275-21.015
	c0.685-0.532,1.368-1.064,2.053-1.596c6.562,8.183,14.086,15.79,19.42,24.707c5.524,9.236,8.924,19.742,13.483,30.223
	c2.148-0.492,5.291-1.213,8.3-1.903c0-34.257,0-67.872,0-101.915c-3.3,0-5.275-0.114-7.234,0.017
	c-47.146,3.131-88.669,21.354-127.131,47.619c-6.366,4.349-12.247,9.409-19.354,14.917c1.866,1.158,4.809,2.984,7.751,4.81
	c12.543,11.284,15.803,26.188,13.806,42.857c-0.749,6.25-0.33,12.645-0.374,18.974c-0.047,6.635-0.012,13.27-0.012,19.493
	c3.336,0.868,5.152,1.341,9.455,2.462c-4.277,1.109-6.088,1.579-7.105,1.843c2.062,2.207,4.287,4.587,6.646,7.112
	C680.811,516.632,680.41,526.145,680.938,535.605z M653.029,505.445c-31.273-0.936-62.548-2.145-93.787-3.89
	c-61.818-3.455-123.622-7.182-185.414-11.09c-29.557-1.869-59.069-4.436-88.604-6.64c-22.899-1.709-45.804-3.352-68.707-5.013
	c-6.879-0.499-11.317,3.985-9.501,10.094c12.848,0.994,25.856,2,38.837,3.004c0,6.607,0,12.823,0,18.706
	c-13.37-1.119-26.321-2.204-40.561-3.396c2.26,7.497,6.357,9.549,12.268,10.061c35.319,3.056,70.611,6.428,105.932,9.463
	c45.923,3.946,91.857,7.768,137.801,11.466c30.184,2.43,60.377,4.784,90.594,6.735c31.379,2.025,62.777,4.219,94.197,4.871
	c10.762,0.224,23.347,1.568,31.91-10.302c-2.479-11.477,4.053-24.864-4.83-37.116C666.018,503.543,659.488,505.639,653.029,505.445z
	 M890.853,427.703c12.085-4.111,22.104-7.52,31.175-10.605c-3.697,17.677-7.661,36.622-11.624,55.567
	c-0.636-0.134-1.272-0.268-1.908-0.401c2.862-13.459,5.724-26.918,8.854-41.638c-9.561,2.679-17.863,5.006-25.463,7.136
	c-2.937,16.298-5.66,31.418-8.4,46.627c19.364-1.914,30.696-11.044,35.748-28.802c0.625-2.196,0.006-4.731,0.54-6.972
	c2.97-12.435,5.947-24.872,9.256-37.219c2.935-10.955,5.271-22.535,21.339-26.678c-6.398,0-10.137,0-15.239,0
	c14.837-6.162,23.019-0.696,28.052,17.637c5.16-1.598,10.303-3.191,16.731-5.183c0-10.427-1.762-21.12,0.426-30.933
	c3.042-13.645-8.165-19.624-12.582-31.356c-0.396,4.842-0.63,7.685-0.863,10.527c-0.74,0.358-1.481,0.715-2.223,1.073
	c-1.928-3.13-3.856-6.26-5.969-9.69c-2.597,0.308-5.345,0.634-8.608,1.021c0,2.9,0,5.653,0,8.406
	c-0.766,0.436-1.53,0.872-2.295,1.308c-2.069-2.968-4.139-5.936-6.619-9.495c-2.618,0-6.21,0-10.13,0c0,3.32,0,6.349,0,10.335
	c-2.158-0.907-4.635-1.314-4.759-2.095c-1.763-11.119-9.923-6.743-16.045-7.45c0,3.471,0,6.394,0,9.702
	c-1.795,0.155-3.324,0.287-5.369,0.463c-0.223-12.713-8.579-9.366-14.024-9.03C890.853,368.938,890.853,397.438,890.853,427.703z
	 M817.229,228.576c13.309,2.205,25.013,4.145,36.717,6.084c0.694-0.705,1.39-1.411,2.084-2.116c-1.678-2.284-2.942-6.002-5.1-6.625
	c-16.506-4.765-33.014-11.686-49.846-12.739c-43.475-2.72-87.113-3.527-130.691-3.68c-49.664-0.174-99.042,4.563-147.936,13.44
	c-8.458,1.536-16.562,5.022-24.831,7.608c0.284,0.9,0.567,1.8,0.851,2.7c1.701-0.335,3.39-0.858,5.106-0.978
	c55.62-3.88,111.194-8.923,166.882-11.155c38.666-1.551,77.488,0.714,116.238,1.411c8.771,0.158,13.054,5.924,11.948,14.469
	c-3.752,28.998-7.307,58.021-11.09,88.256c-17.253,10.797-36.973,0.4-55.383,5.093c15.585,1.02,31.196,0.683,46.772,1.258
	c3.856,0.143,7.603,3.247,11.399,4.99c-19.362-7.2-38.948-2.354-57.991-4.809c-0.066,0.844-0.133,1.687-0.199,2.531
	c23.644,3.021,47.288,6.042,73.818,9.431C809.806,304.567,813.479,266.953,817.229,228.576z M879.936,429.507
	c0-13.325,0.145-25.938-0.11-38.542c-0.058-2.842-2.129-5.647-2.165-8.484c-0.048-3.744,0.912-7.519,1.619-11.246
	c0.248-1.309,1.029-2.517,1.654-3.974c-18.505-2.442-52.172,15.948-54.473,29.639c-1.866,0.276-3.899,0.579-8.813,1.309
	c2.667-5.564,3.533-10.493,6.469-12.907c8.719-7.168,18.22-13.393,27.475-19.9c9.061-6.37,10.3-10.764,5.74-21.17
	c-28.164-2.625-28.51-2.51-30.776,10.538c-2.136,0.217-4.342,0.441-7.896,0.803c0.521-24.562,21.299-14.516,33.813-20.744
	c-15.074,0-28.518,0-44.173,0c0,7.492,0.07,15.17-0.014,22.846c-0.29,26.446-0.668,52.892-0.916,79.338
	c-0.03,3.318,0.518,6.643,0.881,10.951C833.089,441.566,856.309,435.59,879.936,429.507z M779.616,490.749
	c-1.973-17.065-4.881-33.97-14.919-48.567c-5.961-8.668-15.498-10.09-21.527-1.653c-6.803,9.521-12.885,20.17-16.501,31.236
	c-9.399,28.761-12.374,58.743-9.063,88.715c1.934,17.502,6.594,34.976,12.266,51.702c4.212,12.421,17.163,18.893,27.389,4.188
	c3.661-5.267,7.146-10.848,9.562-16.755c10.729-26.239,13.946-53.857,14.207-86.414
	C780.761,508.664,780.646,499.653,779.616,490.749z M711.814,493.521c-8.174,22.762-17.352,48.314-25.631,71.368
	c-10.556,2.682-17.809,4.525-26.435,6.717c2.852,10.179,4.925,19.365,8.031,28.188c3.4,9.655,7.765,20.147,18.467,22.703
	c14.087,3.365,28.792,4.146,42.346,5.922C701.443,584.638,706.897,537.595,711.814,493.521z M627.597,473.321
	c6.099-17.26,4.538-33.071-9.044-46.714c-10.098-10.144-29.114-10.686-39.208,0.149c-11.066,11.88-12.331,25.174-7.878,40.043
	c3.22,10.753,18.06,23.026,29.189,23.342C610.151,490.41,624.666,481.613,627.597,473.321z M856.634,490.668
	c11.082-3.491,16.888-9.055,18.009-20.632c0.91-9.392,3.176-18.652,5.004-28.885c-24.325,6.79-47.235,13.185-70.078,19.561
	c-1.801,16.71-3.535,32.802-5.403,50.132C822.397,503.71,839.192,496.162,856.634,490.668z M622.428,400.84
	c10.578,0.996,21.074,1.983,32.076,3.019c40.289-32.267,86.145-53.533,139.645-59.322
	C734.883,333.832,653.019,370.298,622.428,400.84z M234.299,459.522c4.621,7.831,14.662,11.905,22.19,7.215
	c6.113-3.81,11.263-11.427,13.565-18.432c2.146-6.529,0.201-14.495-0.348-21.798c-0.923-12.305-15.292-22.126-26.818-18.561
	c-9.883,3.059-16.725,14.484-18.771,29.035C227.453,444.53,230.134,452.464,234.299,459.522z M545.729,562.242
	c-3.175-1.474-6.256-3.946-9.54-4.255c-18.206-1.706-36.47-2.772-54.696-4.271c-34.463-2.833-68.922-5.712-103.366-8.762
	c-25.172-2.229-50.303-4.936-75.489-6.979c-3.859-0.313-7.915,1.798-11.88,2.788c0.193,1.127,0.387,2.254,0.581,3.381
	c84.31,9.721,168.701,18.436,253.557,21.422C545.174,564.459,545.452,563.351,545.729,562.242z M814.275,330.931
	c3.637,0,6.543,0,9.494,0c0-9.575-0.296-19.051,0.145-28.492c0.178-3.816,1.963-7.558,3.008-11.303c11.826,0,21.88,0,32.397,0
	c-3.193-16.041-6.261-31.452-9.514-47.795c-9.197-0.859-18.151-1.697-27.796-2.598C819.334,271.944,816.818,301.272,814.275,330.931
	z M315.691,552.096c2.525,15.809,17.351,32.399,30.951,34.937c16.81,3.136,33.874-6.883,45.064-26.981
	C366.039,557.364,340.913,554.735,315.691,552.096z M876.352,494.818c3.256-18.616,6.396-36.573,9.536-54.531
	c-2.56,0.94-3.351,2.371-3.656,3.898c-2.64,13.166-5.024,26.389-7.934,39.494c-0.494,2.229-2.73,4.95-4.83,5.806
	c-22.217,9.055-44.569,17.776-69.016,27.433c1.79-18.431,3.53-36.354,5.274-54.317c-8.093-0.204-11.418,2.724-11.794,10.788
	c-0.545,11.702-2.484,23.366-4.309,34.972c-1.183,7.523-3.22,14.913-5.133,23.525C815.547,519.354,846.038,507.051,876.352,494.818z
	 M843.481,322.791c-0.488,0.315-0.976,0.63-1.464,0.945c-4.661-7.001-9.322-14.003-14.535-21.833c0,9.272,0,17.23,0,24.653
	c13.729,0,26.761,0,38.294,0c3.808-5.922,6.758-10.564,9.764-15.171c3.136-4.805,6.324-9.576,10.181-15.405
	c-20.252,0-39.26,0-59.946,0C832.583,306.29,838.032,314.541,843.481,322.791z M654.426,419.424
	c-5.922-1.077-11.758-2.139-18.184-3.307c0,27.782,0,54.125,0,81.238c6.08,0,11.742,0,18.184,0
	C654.426,471.373,654.426,445.83,654.426,419.424z M897.22,514.449c0.584,1.821,2.581,4.305,4.173,4.504
	c9.666,1.208,19.403,1.843,28.485,2.614c-2.336-11.136-5.213-21.621-6.583-32.3c-1.377-10.737-1.254-21.667-1.788-32.512
	c-0.856,19.783-16.287,23.722-33.06,28.045C891.511,495.314,894.167,504.945,897.22,514.449z M271.613,416.212
	c94.828,3.688,189.655,7.376,285.096,11.088c-0.167-1.968-0.277-3.274-0.394-4.65c-2.54-0.328-4.507-0.744-6.486-0.813
	c-29.443-1.036-58.889-1.986-88.331-3.035c-62.359-2.223-124.717-4.502-187.079-6.656c-1.238-0.043-2.52,1.166-3.781,1.791
	C270.963,414.695,271.288,415.453,271.613,416.212z M556.206,482.733c-1.951-0.97-3.857-2.682-5.858-2.8
	c-41.995-2.484-84.003-4.745-126.004-7.14c-50.497-2.878-100.99-5.84-151.486-8.74c-0.44-0.024-0.9,0.306-1.714,0.603
	c0.245,1.188,0.483,2.338,0.736,3.562c94.665,5.675,188.875,11.322,283.086,16.971C555.379,484.371,555.792,483.552,556.206,482.733
	z M313.95,555.559c-1.382-2.087-3.87-4.158-6.223-4.753c-7.262-1.835-14.705-2.953-22.078-4.35c0.153-0.817,0.306-1.634,0.459-2.451
	c-3.736-0.316-7.472-0.634-11.299-0.958c6.811,30.043,28.794,45.344,58.668,43.185C327.449,576.691,320.873,566.01,313.95,555.559z
	 M942.414,518.757c3.046-8.331,6.092-16.661,9.153-25.033c-3.256,2.351-6.826,6.448-8.476,5.783
	c-2.869-1.156-5.849-4.978-6.526-8.162c-4.778-22.459-4.498-44.987,1.375-67.231c0.864-3.273,3.708-6.648,6.589-8.461
	c1.16-0.73,4.887,2.621,8.424,4.685c-2.824-8.264-5.532-16.187-8.24-24.108c-0.999,0.098-1.999,0.197-2.998,0.297
	c-1.79,2.688-4.562,5.162-5.199,8.1c-2.934,13.531-6.352,27.096-7.573,40.829c-1.943,21.841-1.584,43.79,5.066,65.055
	c0.943,3.018,3.267,5.604,4.951,8.39C940.111,518.851,941.263,518.804,942.414,518.757z M749.48,431.347
	c-6.473,4.745-15.009,8.516-18.58,14.978c-6.477,11.718-11.24,24.777-14.432,37.837c-7.604,31.11-8.996,62.939-3.717,94.461
	c2.441,14.575,8.602,28.707,14.453,42.453c2.719,6.389,9.28,9.737,15.036,7.285c-4.154-4.005-9.733-7.667-12.954-12.807
	c-9.862-15.738-12.455-33.777-13.779-51.881c-2.697-36.869,0.197-73.126,14.719-107.597c4.467-10.602,10.044-21.037,23.494-24.598
	C752.282,431.4,750.379,430.688,749.48,431.347z M789.289,481.427c0.26-12.284,0.115-24.895-2.373-36.839
	c-3.199-15.362-17.616-21.83-30.889-15.744c25.873,21.731,25.204,52.571,29.293,82.521
	C786.724,501.387,789.077,491.43,789.289,481.427z M420.531,326.047c3.381-0.562,7.567-4.291,8.825-7.569
	c1.532-3.993,0.364-9.021,0.364-15.321c-6.298,7.757-11.525,14.196-16.752,20.635c-0.4-0.325-0.801-0.651-1.201-0.976
	c5.832-7.52,11.664-15.04,18.503-23.859c-12.07,0-22.304-0.131-32.522,0.202c-1.03,0.034-2.947,2.991-2.785,4.4
	c0.847,7.367,2.231,14.671,3.567,22.839C406.198,326.397,413.528,327.209,420.531,326.047z M564.561,484.12
	c-1.105,3.998-1.697,6.14-2.691,9.733c24.317,1.52,47.231,2.95,70.899,4.429c0-5.573,0-10.51,0-15.445c0-5.01,0-10.019,0-16.433
	c-6.203,17.688-18.451,27.469-34.146,28.284c-11.394,0.593-27.388-12.577-34.062-29.58
	C564.561,473.749,564.561,479.996,564.561,484.12z M657.329,426.216c0,23.489,0,46.979,0,70.984c2.779-0.769,4.929-1.363,7.37-2.038
	c0-15.837,0.49-31.339-0.209-46.787c-0.344-7.607-2.888-15.115-4.436-22.668C659.146,425.877,658.238,426.046,657.329,426.216z
	 M216.158,403.219c-2.404,0-4.263,0-5.868,0c-0.426,0.728-0.735,1.009-0.734,1.289c0.088,20.926,0.093,41.854,0.526,62.772
	c0.033,1.603,3.113,3.143,6.075,5.936C216.158,448.037,216.158,425.717,216.158,403.219z M209.936,504.253
	c10.947,1.954,22.155,2.453,33.367,3.425c0-4.993,0-8.725,0-12.875c-11.736-0.932-23.113-1.835-36.278-2.881
	C208.062,496.651,208.37,503.973,209.936,504.253z M548.395,329.426c43.881,0,87.763,0,131.668,0c0.53,2.813,0.782,4.15,1.045,5.543
	c6.074,0.284,12.059,0.915,18.019,0.742c5.879-0.17,11.734-1.153,17.601-1.78c0.018-0.95,0.036-1.9,0.055-2.851
	c-56.098-1.993-112.196-3.987-168.294-5.98C548.456,326.542,548.425,327.984,548.395,329.426z M419.304,381.65
	c7.003-1.247,13.914-2.969,20.156-6.045c10.931-5.387,21.091-12.436,32.23-17.279c16.514-7.18,33.599-13.043,50.904-19.644
	C494.32,343.275,424.773,371.271,419.304,381.65z M876.893,432.945c-22.266,5.694-44.552,11.316-66.755,17.246
	c-1.509,0.403-2.398,3.123-3.575,4.766c23.912-4.749,46.262-10.824,68.555-17.102c1.28-0.361,2.099-2.367,3.132-3.608
	C877.797,433.812,877.345,433.379,876.893,432.945z M238.357,469.767c-10.816-5.387-15.495-14.869-17.895-27.606
	c0,10.932,0,20.193,0,30.139c15.078,1.059,29.834,2.095,44.383,3.116c1.248-4.79,2.213-8.496,3.178-12.202
	C259.173,472.157,249.956,475.542,238.357,469.767z M596.609,413.637c-11.39-0.59-22.005-1.14-34.099-1.766
	c1.19,4.176,2.006,7.041,2.953,10.361c-1.758,0.344-3.786,0.741-6.196,1.213c0.135,1.154,0.273,2.332,0.408,3.488
	c2.014-0.149,3.577-0.266,5.551-0.411c-0.215,4.475-0.408,8.485-0.645,13.4C571.036,426.422,571.036,426.422,596.609,413.637z
	 M292.466,357.176c-26.876,10.197-53.753,20.395-80.63,30.593c0.485,1.407,0.97,2.813,1.454,4.22
	c7.042-2.204,14.194-4.115,21.083-6.723c4.139-1.565,7.732-4.521,11.803-6.326c15.577-6.906,31.248-13.6,46.883-20.373
	C292.862,358.104,292.664,357.64,292.466,357.176z M976.852,407.83c-4.391,1.471-8.75,2.931-13.128,4.396
	c-2.134,8.498-4.205,16.741-6.309,25.115C967.689,435.278,979.099,417.963,976.852,407.83z M632.272,443.36
	c0-8.53,0-17.882,0-27.347c-10.237-0.76-19.989-1.488-29.743-2.192c-0.59-0.042-1.193,0.124-1.792,0.192
	C617.404,417.814,627.537,428.302,632.272,443.36z M885.355,299.19c-5.979,9.581-11.063,17.727-17.057,27.329
	c7.119,0.586,11.805,0.973,17.057,1.405C885.355,318.553,885.355,309.748,885.355,299.19z M887.291,336.132
	c28.847-1.114,57.694-2.228,86.541-3.341c-0.015-0.281-0.029-0.561-0.044-0.841c-28.808,0-57.614,0-86.422,0
	C887.341,333.343,887.316,334.738,887.291,336.132z M548.158,323.27c49.841,1.597,99.682,3.194,149.522,4.792
	c0.011-0.445,0.021-0.891,0.032-1.336c-49.844-1.503-99.687-3.006-149.53-4.509C548.174,322.568,548.166,322.919,548.158,323.27z
	 M244.939,402.895c-9.42,0-16.812,0-24.516,0c0,9.489,0,18.402,0,29.412C222.614,416.719,229.111,406.686,244.939,402.895z
	 M885.992,428.227c0-20.949,0-41.473,0-62.566C882.098,371.699,881.667,426.045,885.992,428.227z M925.624,441.654
	c-2.906,23.722-2.125,47.259,4.373,70.357c1.006,3.575,3.916,6.615,5.946,9.903c-7.163-10.353-9.034-24.499-9.219-82.778
	C926.225,440.25,925.713,440.926,925.624,441.654z M870.4,290.804c-3.898-17.323-7.798-34.646-11.696-51.969
	c-0.756,0.166-1.513,0.331-2.269,0.496c3.593,17.384,7.186,34.768,10.779,52.151C868.276,291.256,869.338,291.03,870.4,290.804z
	 M956.639,441.736c0.393,0.74,0.785,1.48,1.178,2.221c5.496,0,10.993,0,16.657,0c0-5.474,0-10.468,0-16.641
	c-1.508,3.281-2.518,5.479-2.938,6.396C965.593,436.913,961.115,439.324,956.639,441.736z M638.652,409.127
	c3.256,0.127,6.548-0.686,9.823-1.064c-0.089-1.011-0.177-2.021-0.265-3.032c-9.039-0.729-18.076-1.458-27.465-2.214
	C620.334,408.226,620.719,408.429,638.652,409.127z M203.058,511.031c0.628-10.999,1.255-21.998,1.867-32.714
	c-0.841,0.926-4.207,2.901-4.353,5.092c-0.611,9.19-0.258,18.445-0.258,27.676C201.229,511.067,202.144,511.05,203.058,511.031z
	 M942.908,438.425c1.447,4.942,3.862,9.842,4.086,14.84c0.25,5.584-1.487,11.257-2.359,16.891c-1.005-0.042-2.01-0.085-3.015-0.128
	c0.88,2.574,1.761,5.149,2.642,7.724c0.859-0.08,1.72-0.161,2.58-0.242c0-13.224,0-26.446,0-39.669
	C945.53,438.035,944.22,438.23,942.908,438.425z M820.241,237.053c10.962,1.233,21.925,2.466,32.887,3.699
	c0.129-0.775,0.257-1.551,0.386-2.327c-10.889-1.751-21.777-3.502-32.666-5.254C820.646,234.465,820.443,235.759,820.241,237.053z
	 M891.063,433.806c8.295-2.454,16.59-4.907,24.885-7.36c-0.312-1.092-0.624-2.186-0.936-3.277
	c-8.427,2.231-16.854,4.463-25.28,6.695C890.176,431.177,890.619,432.491,891.063,433.806z M957.533,393.194
	c-2.285-2.331-5.025-5.146-7.788-5.169c-9.615-0.078-13.259,7.107-17.203,17.29C940.368,394.723,941.952,390.703,957.533,393.194z
	 M494.303,325.764c-19.999,1.271-39.994,2.605-60.001,3.711c-1.952,0.108-3.982-1.196-6.598-2.047
	c-1.029,1.367-2.569,3.414-2.787,3.703c10.482-0.726,22.175-1.625,33.88-2.321c11.868-0.706,23.748-1.21,35.622-1.803
	C494.38,326.593,494.342,326.179,494.303,325.764z M418.387,432.979c18.571,0,37.143,0,55.715,0
	c0.016-0.288,0.033-0.576,0.049-0.865c-18.574,0-37.147,0-55.721,0C418.416,432.402,418.401,432.69,418.387,432.979z
	 M504.177,489.131c7.421,0.473,14.843,0.944,22.265,1.416c0.099-1.194,0.199-2.389,0.298-3.583
	c-7.367-0.556-14.735-1.111-22.102-1.667C504.484,486.575,504.331,487.854,504.177,489.131z M497.184,436.049
	c16.993,0,33.985,0,50.978,0c0.02-0.264,0.04-0.527,0.059-0.791c-16.973,0-33.945,0-50.917,0
	C497.263,435.521,497.224,435.785,497.184,436.049z M466.818,483.775c-6.693-0.773-13.386-1.547-20.079-2.32
	c-0.254,1.223-0.509,2.446-0.763,3.669c6.714,0.786,13.428,1.571,20.141,2.357C466.351,486.246,466.585,485.011,466.818,483.775z
	 M473.862,442.688c0.019-0.781,0.038-1.562,0.057-2.345c-18.488,0-36.977,0-52.706,0
	C436.89,441.041,455.376,441.865,473.862,442.688z M267.398,413.556c-0.407-2.743-0.993-6.694-1.616-10.896
	c-5.668,0-10.714,0-14.769,0C256.254,406.146,262.138,410.058,267.398,413.556z M479.773,413.805c-26.535,0-53.07,0-79.606,0
	c-0.004,0.102-0.008,0.204-0.012,0.307c26.535,0,53.069,0,79.603,0C479.763,414.009,479.768,413.906,479.773,413.805z
	 M345.406,429.883c17.372,0,34.744,0,52.115,0c0.015-0.278,0.03-0.557,0.045-0.836c-17.373,0-34.747,0-52.12,0
	C345.433,429.326,345.42,429.604,345.406,429.883z M871.847,329.893c-10.888,0-21.775,0-32.663,0
	c0.002,0.342,0.004,0.685,0.005,1.027c10.888,0,21.776,0,32.664,0C871.851,330.578,871.849,330.235,871.847,329.893z
	 M474.797,449.613c-18.79-0.891-37.579-1.78-56.369-2.671c-0.02,0.422-0.04,0.844-0.061,1.266
	c18.782,0.905,37.563,1.81,56.345,2.714C474.741,450.486,474.769,450.049,474.797,449.613z M474.719,457.816
	c-18.778-0.942-37.556-1.885-56.334-2.827c-0.021,0.397-0.042,0.794-0.062,1.191c18.743,0.977,37.486,1.953,56.229,2.93
	C474.606,458.679,474.663,458.248,474.719,457.816z M631.467,500.095c-22.712-1.289-45.424-2.579-68.136-3.868
	c-0.017,0.304-0.034,0.608-0.051,0.913c22.71,1.322,45.42,2.645,68.13,3.967C631.43,500.77,631.448,500.432,631.467,500.095z
	 M418.262,464.174c18.767,1.027,37.533,2.055,56.299,3.082c0.021-0.426,0.042-0.851,0.062-1.276
	c-18.769-0.977-37.537-1.953-56.306-2.93C418.299,463.425,418.28,463.799,418.262,464.174z M397.595,438.004
	c-17.219-0.769-34.438-1.537-51.657-2.305c-0.016,0.414-0.032,0.826-0.047,1.24c17.218,0.777,34.437,1.555,51.654,2.332
	C397.562,438.85,397.578,438.426,397.595,438.004z M548.008,461.404c-16.854-0.83-33.708-1.661-50.562-2.491
	c-0.02,0.44-0.04,0.88-0.06,1.32c16.854,0.838,33.707,1.675,50.56,2.512C547.967,462.299,547.987,461.852,548.008,461.404z
	 M647.164,348.743c-15.48,5.997-30.96,11.993-46.44,17.991c0.215,0.569,0.43,1.139,0.644,1.708
	c15.491-5.968,30.983-11.935,46.475-17.903C647.617,349.941,647.391,349.342,647.164,348.743z M701.316,435.523
	c0-4.322,0-7.916,0-13.075c-7.611,1.041-14.844,2.03-22.294,3.049c0,4.817,0,9.054,0,13.837
	C686.951,437.979,694.149,436.748,701.316,435.523z M567.954,514.603c0,7.063,0,13.791,0,20.741
	c19.847,1.421,39.286,2.812,58.981,4.223c0-6.981,0-13.738,0-21.169C607.03,517.116,587.542,515.863,567.954,514.603z
	 M454.831,507.771c0,5.701,0,10.698,0,15.95c12.896,0.936,25.071,1.818,37.624,2.729c0-5.491,0-10.589,0-16.357
	C479.48,509.291,467.026,508.523,454.831,507.771z M335.202,498.603c-11.732-0.857-22.862-1.671-33.766-2.468
	c0,5.812,0,10.689,0,15.644c11.232,1.046,22.083,2.057,33.766,3.145C335.202,509.599,335.202,504.145,335.202,498.603z
	 M803.216,338.895c3.634-39.682,7.269-79.363,10.903-119.044c-0.652-0.065-1.305-0.129-1.957-0.194
	c-3.606,39.583-7.212,79.166-10.818,118.748C801.968,338.568,802.592,338.731,803.216,338.895z M768.897,475.964
	c-1.511-4.488-8.201-9.796-12.703-9.967c-4.171-0.158-10.422,5.145-12.597,9.589c-16.169,33.037-17.252,67.59-7.552,102.569
	c1.823,6.577,4.228,14.658,13.085,15.76c9.943,1.237,13.641-6.519,17.146-13.626c9.476-19.212,10.993-39.943,13.438-61.485
	C776.259,504.474,773.582,489.881,768.897,475.964z M698.277,426.314c-4.503,0.633-8.514,1.197-12.645,1.778c0,2.472,0,4.364,0,6.78
	c4.435-0.688,8.473-1.314,12.645-1.961C698.277,430.721,698.277,428.859,698.277,426.314z M572.319,533.032
	c17.273,1.19,34.057,2.347,51.099,3.521c0-5.688,0-10.374,0-15.425c-17.139-1.088-33.817-2.147-51.099-3.244
	C572.319,523.273,572.319,527.956,572.319,533.032z M489.264,523.21c0-4.026,0-7.069,0-10.343c-9.89-0.578-19.29-1.128-29.065-1.7
	c0,3.574,0,6.461,0,10.066C470.407,521.928,479.887,522.572,489.264,523.21z M307.465,499.577c0,3.662,0,6.395,0,9.864
	c8.437,0.69,16.568,1.356,25.037,2.05c0-3.602,0-6.217,0-9.987C324.049,500.854,315.91,500.228,307.465,499.577z M759.401,557.443
	c8.173-18.286,8.84-37.297,2.475-56.335c-0.708-2.118-3.39-3.576-5.157-5.341c-2.111,2.677-4.965,5.097-6.019,8.14
	c-0.521,1.504,2.383,4.104,3.55,6.307c1.189,2.247,2.284,4.566,3.161,6.949c0.557,1.512,0.251,3.415,1.003,4.77
	c3.413,6.144-0.582,21.551-6.71,23.715c-0.863,3.305-1.789,6.85-2.938,11.248C753.702,565.54,755.577,565.998,759.401,557.443z
	 M746.875,496.557c-10.729,22.877-10.616,46.135-1.959,70.001c2.415,0.157,4.283,0.279,7.201,0.471
	c-16.174-15.51-13.688-57.584,2.086-76.52C751.702,492.498,748.09,493.965,746.875,496.557z M750.066,583.977
	c21.899-6.58,27.498-93.828,6.195-108.534C775.856,498.964,770.712,568.253,750.066,583.977z M763.587,495.728
	c0.369-0.145,0.737-0.289,1.106-0.434c-3.571-6.64-7.143-13.278-12.031-22.366c-3.871,4.121-5.552,5.911-6.572,6.998
	C752.729,485.922,758.158,490.824,763.587,495.728z M741.354,576.962c0.993,1.256,2.73,3.451,6.027,7.618
	c4.986-7.201,9.12-13.174,14.658-21.175C753.685,568.881,747.756,572.767,741.354,576.962z M750.975,520.244
	c-1.261-0.1-2.521-0.198-3.781-0.298c-1.239,5.751-2.479,11.501-3.997,18.547c4.238-0.585,6.419-0.886,7.778-1.073
	C750.975,531.03,750.975,525.637,750.975,520.244z"/>
<path id="textYeah" fill="none" stroke="#000000" stroke-width="3" stroke-miterlimit="10" d="M424.736,15.212
	c-0.357,0.297-0.692,0.628-1.074,0.887c-4.198,2.843-8.416,5.656-12.587,8.537c-0.438,0.303-0.837,0.973-0.875,1.501
	c-1.685,23.297-3.326,46.597-4.974,69.896c-1.603,22.663-3.208,45.325-4.808,67.988c-0.074,1.051-0.116,2.104-0.183,3.343
	c3.047-1.296,5.858-2.528,8.702-3.679c0.793-0.321,1.022-0.778,1.104-1.594c0.784-7.906,1.621-15.807,2.436-23.709
	c3.942-38.243,7.879-76.487,11.83-114.729c0.277-2.683,0.647-5.357,0.975-8.035 M76.931,326.577c1.691-0.572,3.375-1.164,5.074-1.71
	c2.268-0.73,4.547-1.425,6.903-2.161c-0.477-1.698-0.916-3.267-1.358-4.834c-2.592-9.186-5.184-18.372-7.779-27.557
	c-1.563-5.534-3.116-11.072-4.714-16.596c-0.247-0.85-0.04-1.271,0.725-1.689c1.959-1.073,3.842-2.283,5.804-3.352
	c0.779-0.424,0.961-0.875,0.736-1.709c-0.812-3.008-1.557-6.033-2.339-9.048c-0.728-2.804-1.47-5.604-2.231-8.5
	c-0.452,0.267-0.801,0.45-1.125,0.669c-5.66,3.813-11.312,7.638-16.975,11.445c-4.104,2.758-8.223,5.493-12.334,8.238
	 M371.913,112.409c1.541-21.555,3.068-42.909,4.608-64.446c-0.392,0.218-0.571,0.301-0.732,0.41
	c-4.037,2.726-8.047,5.492-12.126,8.152c-0.897,0.585-1.161,1.241-1.22,2.22c-0.431,7.094-0.895,14.187-1.362,21.279
	c-1.372,20.842-2.756,41.683-4.126,62.524c-1.877,28.571-3.746,57.144-5.618,85.715c-0.283,4.332-0.566,8.663-0.855,13.081
	c0.291-0.042,0.486-0.045,0.666-0.101c3.584-1.117,7.155-2.28,10.758-3.332c0.864-0.252,1.102-0.671,1.158-1.479
	c0.783-11.274,1.585-22.547,2.392-33.819c0.818-11.431,1.642-22.862,2.485-34.292c0.028-0.383,0.182-0.96,0.451-1.092
	c2.169-1.061,4.38-2.037,6.754-3.119c-1.782,23.879-3.548,47.535-5.324,71.32c4.122-1.278,8.015-2.465,11.887-3.72
	c0.313-0.102,0.646-0.654,0.682-1.024c0.285-2.941,0.5-5.889,0.736-8.834c2.46-30.61,4.925-61.219,7.381-91.828
	c2.376-29.615,4.745-59.23,7.115-88.845c0.205-2.567,0.399-5.135,0.61-7.852c-0.309,0.175-0.449,0.242-0.575,0.328
	c-4.174,2.808-8.336,5.634-12.529,8.414c-0.666,0.441-0.955,0.918-1.014,1.722c-0.917,12.625-1.869,25.248-2.809,37.871
	c-0.635,8.523-1.254,17.047-1.919,25.568c-0.038,0.476-0.316,1.125-0.69,1.35C376.539,109.872,374.323,111.062,371.913,112.409z
	 M345.129,69.06c-3.547,2.392-6.827,4.583-10.071,6.826c-0.295,0.204-0.459,0.725-0.518,1.123c-0.416,2.844-0.79,5.693-1.172,8.542
	c-6.71,49.967-13.42,99.933-20.13,149.9c-0.812,6.047-1.616,12.096-2.43,18.198c0.224-0.015,0.388,0.004,0.531-0.041
	c3.699-1.15,7.403-2.287,11.082-3.499c0.347-0.114,0.708-0.688,0.767-1.091c0.534-3.673,1-7.356,1.491-11.036
	c0.169-1.265-0.045-2.854,0.645-3.701c0.715-0.879,2.302-1.073,3.528-1.508c2.654-0.941,5.322-1.846,8.153-2.824
	c0.127,5.268,0.25,10.353,0.376,15.565c4.013-1.252,7.86-2.437,11.688-3.682c0.271-0.088,0.571-0.627,0.564-0.951
	c-0.201-8.827-0.438-17.654-0.673-26.48c-0.225-8.467-0.457-16.934-0.677-25.401c-0.238-9.106-0.462-18.212-0.702-27.319
	c-0.241-9.146-0.499-18.292-0.739-27.438c-0.258-9.825-0.5-19.65-0.753-29.476c-0.239-9.226-0.483-18.452-0.729-27.677
	C345.291,74.502,345.211,71.913,345.129,69.06z M239.561,275.908c-0.07-0.48-0.096-0.874-0.188-1.252
	c-0.646-2.681-1.303-5.359-1.96-8.037c-2.106-8.577-4.216-17.152-6.319-25.729c-2.15-8.771-4.324-17.537-6.414-26.322
	c-0.416-1.749-1.114-3.425-0.711-5.383c4.478-21.776,8.876-43.569,13.294-65.357c0.138-0.684,0.249-1.373,0.402-2.225
	c-0.391,0.218-0.602,0.317-0.793,0.445c-5.199,3.501-10.408,6.988-15.574,10.538c-0.449,0.309-0.774,0.99-0.896,1.555
	c-2.2,10.182-4.359,20.373-6.531,30.562c-0.088,0.414-0.215,0.819-0.323,1.229c-0.072-0.016-0.143-0.032-0.214-0.048
	c-0.29-9.043-0.58-18.086-0.876-27.315c-0.526,0.329-0.862,0.524-1.185,0.741c-3.94,2.654-7.858,5.342-11.833,7.945
	c-0.896,0.587-1.153,1.209-1.094,2.246c0.295,5.227,0.516,10.457,0.754,15.686c0.386,8.503,0.761,17.006,1.15,25.509
	c0.353,7.704,0.724,15.408,1.079,23.111c0.36,7.784,0.711,15.568,1.065,23.353c0.35,7.705,0.696,15.409,1.048,23.113
	c0.102,2.219,0.219,4.438,0.333,6.758c3.908-1.221,7.625-2.442,11.383-3.518c1.042-0.298,1.275-0.752,1.24-1.743
	c-0.388-11.022-0.738-22.045-1.093-33.068c-0.028-0.869-0.009-1.738-0.012-2.608c0.071,0,0.142-0.001,0.214-0.001
	c3.033,11.454,6.064,22.908,9.121,34.451C229.668,278.978,234.543,277.464,239.561,275.908z M316.764,88.272
	c-0.307,0.156-0.458,0.214-0.588,0.301c-8.143,5.492-16.29,10.978-24.408,16.505c-0.374,0.254-0.686,0.878-0.7,1.34
	c-0.433,14.091-0.818,28.184-1.224,42.275c-0.54,18.765-1.094,37.529-1.636,56.293c-0.481,16.648-0.955,33.296-1.428,49.944
	c-0.059,2.056-0.098,4.114-0.147,6.265c0.341-0.074,0.532-0.1,0.714-0.156c7.21-2.234,14.417-4.485,21.635-6.691
	c0.782-0.239,1.03-0.574,1.065-1.403c0.58-13.852,1.203-27.7,1.808-41.551c0.013-0.294-0.08-0.594-0.13-0.942
	c-3.678,1.518-7.274,3-10.988,4.532c-0.026-0.452-0.064-0.725-0.054-0.996c0.208-5.507,0.44-11.014,0.609-16.522
	c0.024-0.769,0.303-1.121,0.96-1.414c2.843-1.268,5.637-2.652,8.514-3.838c1.125-0.464,1.396-1.103,1.44-2.216
	c0.417-10.494,0.889-20.987,1.341-31.479c0.116-2.694,0.223-5.389,0.342-8.289c-3.755,2.049-7.313,3.991-10.939,5.97
	c-0.051-0.261-0.111-0.413-0.105-0.562c0.194-5.468,0.375-10.937,0.63-16.402c0.02-0.43,0.469-0.985,0.871-1.229
	c3.176-1.921,6.377-3.803,9.603-5.641c0.715-0.408,0.976-0.876,1.009-1.689c0.318-7.98,0.681-15.958,1.025-23.937
	C316.245,100.641,316.499,94.54,316.764,88.272z M290.146,106.25c-0.322,0.142-0.441,0.175-0.539,0.24
	c-4.8,3.235-9.608,6.459-14.379,9.738c-0.383,0.263-0.653,0.879-0.731,1.371c-1.665,10.403-3.294,20.812-4.933,31.221
	c-0.063,0.397-0.146,0.791-0.221,1.186c-0.083-0.012-0.167-0.024-0.25-0.036c-1.455-8.835-2.91-17.67-4.392-26.677
	c-5.157,3.473-10.124,6.807-15.063,10.178c-0.233,0.16-0.375,0.683-0.322,0.997c1.099,6.542,2.223,13.08,3.362,19.615
	c1.723,9.88,3.465,19.757,5.195,29.635c0.979,5.588,1.975,11.174,2.912,16.769c0.429,2.558,0.998,5.133,1.041,7.708
	c0.101,5.988-0.083,11.981-0.144,17.972c-0.125,12.303-0.244,24.604-0.362,36.907c-0.02,1.979-0.022,3.957-0.033,6.082
	c3.966-1.235,7.725-2.435,11.505-3.559c0.768-0.228,0.986-0.569,0.993-1.335c0.038-4.154,0.127-8.308,0.208-12.461
	c0.263-13.497,0.524-26.994,0.8-40.491c0.076-3.711-0.203-7.485,0.365-11.124c4.314-27.645,8.798-55.263,13.229-82.889
	C288.967,113.679,289.539,110.062,290.146,106.25z M153.955,198.087c-0.263,0.117-0.454,0.172-0.611,0.278
	c-4.272,2.875-8.553,5.739-12.789,8.667c-0.331,0.229-0.534,0.934-0.482,1.381c0.604,5.201,1.28,10.392,1.914,15.589
	c1.552,12.732,3.125,25.462,4.615,38.202c0.422,3.603,0.711,7.233,0.808,10.858c0.038,1.412-0.472,2.903-1.011,4.247
	c-0.465,1.161-1.549,1.834-2.884,1.78c-1.216-0.049-1.875-0.936-2.212-1.929c-0.6-1.769-1.222-3.566-1.498-5.403
	c-0.903-6.008-1.646-12.04-2.466-18.06c-1.656-12.161-3.322-24.32-4.988-36.479c-0.187-1.362-0.395-2.72-0.614-4.225
	c-0.355,0.211-0.523,0.299-0.681,0.406c-4.104,2.768-8.194,5.558-12.323,8.288c-0.71,0.469-0.911,0.921-0.772,1.749
	c1.023,6.068,2.007,12.144,2.991,18.219c1.941,11.994,3.78,24.005,5.854,35.976c0.803,4.63,1.945,9.225,3.272,13.735
	c1.303,4.426,3.32,8.579,6.577,11.972c5.09,5.303,12.333,5.218,17.343-0.163c2.515-2.7,3.973-5.97,4.972-9.461
	c2.297-8.023,2.581-16.252,1.948-24.477c-0.861-11.191-2.07-22.356-3.163-33.529c-0.828-8.47-1.708-16.934-2.564-25.401
	C154.782,206.264,154.373,202.219,153.955,198.087z M193.918,247.008c-0.575,1.624-0.909,3.092-1.59,4.375
	c-1.171,2.207-2.302,4.52-3.915,6.385c-2.357,2.726-5.24,2.563-7.421-0.31c-1.305-1.717-2.406-3.71-3.1-5.749
	c-3.136-9.204-3.165-18.585-1.09-28.009c0.726-3.294,1.828-6.475,3.918-9.188c2.742-3.559,6.451-3.672,9.464-0.359
	c0.411,0.453,0.814,0.911,1.241,1.387c0.113-0.168,0.184-0.228,0.194-0.295c1.624-11.743,3.248-23.485,4.841-35.232
	c0.05-0.372-0.107-0.894-0.361-1.164c-2.407-2.566-5.323-4.025-8.914-3.935c-3.572,0.089-6.404,1.864-8.968,4.095
	c-4.159,3.619-6.877,8.273-9.087,13.239c-4.775,10.733-6.73,22.104-7.415,33.732c-0.666,11.301,0.203,22.516,2.222,33.644
	c1.238,6.819,3.035,13.484,5.825,19.845c1.983,4.521,4.333,8.827,8.039,12.219c1.979,1.812,4.184,3.256,6.958,3.428
	c3.942,0.245,7.013-1.507,9.551-4.371c3.451-3.894,5.786-8.407,7.338-13.343c0.123-0.392,0.14-0.876,0.035-1.273
	c-2.113-8.036-4.25-16.066-6.387-24.096C194.87,250.425,194.417,248.824,193.918,247.008z M130.895,309.663
	c-0.188-0.42-0.324-0.747-0.478-1.065c-3.756-7.758-7.524-15.511-11.245-23.287c-0.242-0.506-0.25-1.217-0.133-1.785
	c0.428-2.068,1.098-4.094,1.42-6.174c1.313-8.502,0.477-16.897-1.571-25.193c-0.999-4.049-2.402-7.958-4.771-11.439
	c-2.347-3.448-5.319-5.98-9.728-6.169c-3.47-0.147-6.475,1.223-9.278,3.09c-4.751,3.164-9.458,6.393-14.22,9.54
	c-0.797,0.527-0.871,1.038-0.644,1.874c0.735,2.698,1.402,5.415,2.083,8.128c2.206,8.798,4.4,17.598,6.607,26.396
	c2.246,8.953,4.499,17.903,6.752,26.854c0.788,3.128,1.583,6.255,2.39,9.44c4.21-1.313,8.31-2.593,12.449-3.884
	c-1.331-6.24-2.632-12.343-3.935-18.445c0.481,0.307,0.725,0.697,0.952,1.099c2.74,4.869,5.496,9.729,8.199,14.619
	c0.414,0.749,0.826,0.933,1.604,0.64c0.933-0.351,1.902-0.607,2.854-0.904C123.741,311.894,127.278,310.79,130.895,309.663z
	 M410.696,171.947c-0.408,0.117-0.642,0.161-0.857,0.25c-3.694,1.513-7.379,3.048-11.083,4.534
	c-0.725,0.291-1.001,0.671-1.068,1.475c-1.211,14.641-2.464,29.278-3.706,43.917c-0.164,1.932-0.32,3.865-0.493,5.955
	c3.956-1.231,7.713-2.429,11.492-3.554c0.775-0.23,1.065-0.547,1.137-1.375c0.851-9.823,1.753-19.643,2.636-29.463
	C409.4,186.495,410.039,179.305,410.696,171.947z M424.736,15.212c-0.357,0.297-0.692,0.628-1.074,0.887
	c-4.198,2.843-8.416,5.656-12.587,8.537c-0.438,0.303-0.837,0.973-0.875,1.501c-1.685,23.297-3.326,46.597-4.974,69.896
	c-1.603,22.663-3.208,45.325-4.808,67.988c-0.074,1.051-0.116,2.104-0.183,3.343c3.047-1.296,5.858-2.528,8.702-3.679
	c0.793-0.321,1.022-0.778,1.104-1.594c0.784-7.906,1.621-15.807,2.436-23.709c3.942-38.243,7.879-76.487,11.83-114.729
	c0.277-2.683,0.647-5.357,0.975-8.035C425.098,15.482,424.917,15.347,424.736,15.212z M47.455,270.721
	c1.05,2.747,2.11,5.49,3.147,8.242c0.8,2.121,1.571,4.251,2.382,6.451c2.64-1.542,5.151-3.009,7.776-4.542
	c1.036,3.083,2.055,6.092,3.059,9.106c3.975,11.937,7.946,23.875,11.915,35.813c0.101,0.302,0.165,0.616,0.247,0.924
	c0.317-0.046,0.633-0.092,0.95-0.138c1.691-0.572,3.375-1.164,5.074-1.71c2.268-0.73,4.547-1.425,6.903-2.161
	c-0.477-1.698-0.916-3.267-1.358-4.834c-2.592-9.186-5.184-18.372-7.779-27.557c-1.563-5.534-3.116-11.072-4.714-16.596
	c-0.247-0.85-0.04-1.271,0.725-1.689c1.959-1.073,3.842-2.283,5.804-3.352c0.779-0.424,0.961-0.875,0.736-1.709
	c-0.812-3.008-1.557-6.033-2.339-9.048c-0.728-2.804-1.47-5.604-2.231-8.5c-0.452,0.267-0.801,0.45-1.125,0.669
	c-5.66,3.813-11.312,7.638-16.975,11.445c-4.104,2.758-8.223,5.493-12.334,8.238C47.363,270.087,47.409,270.404,47.455,270.721z
	 M75.981,326.715c-0.082-0.308-0.146-0.622-0.247-0.924c-3.969-11.939-7.94-23.877-11.915-35.813
	c-1.004-3.014-2.022-6.022-3.059-9.106c-2.625,1.533-5.136,3-7.776,4.542c-0.811-2.199-1.582-4.33-2.382-6.451
	c-1.037-2.751-2.098-5.495-3.147-8.242 M376.521,47.962c-0.392,0.218-0.571,0.301-0.732,0.41c-4.037,2.726-8.047,5.492-12.126,8.152
	c-0.897,0.585-1.161,1.241-1.22,2.22c-0.431,7.094-0.895,14.187-1.362,21.279c-1.372,20.842-2.756,41.683-4.126,62.524
	c-1.877,28.571-3.746,57.144-5.618,85.715c-0.283,4.332-0.566,8.663-0.855,13.081c0.291-0.042,0.486-0.045,0.666-0.101
	c3.584-1.117,7.155-2.28,10.758-3.332c0.864-0.252,1.102-0.671,1.158-1.479c0.783-11.274,1.585-22.547,2.392-33.819
	c0.818-11.431,1.642-22.862,2.485-34.292c0.028-0.383,0.182-0.96,0.451-1.092c2.169-1.061,4.38-2.037,6.754-3.119
	c-1.782,23.879-3.548,47.535-5.324,71.32c4.122-1.278,8.015-2.465,11.887-3.72c0.313-0.102,0.646-0.654,0.682-1.024
	c0.285-2.941,0.5-5.889,0.736-8.834c2.46-30.61,4.925-61.219,7.381-91.828c2.376-29.615,4.745-59.23,7.115-88.845
	c0.205-2.567,0.399-5.135,0.61-7.852c-0.309,0.175-0.449,0.242-0.575,0.328c-4.174,2.808-8.336,5.634-12.529,8.414
	c-0.666,0.441-0.955,0.918-1.014,1.722c-0.917,12.625-1.869,25.248-2.809,37.871c-0.635,8.523-1.254,17.047-1.919,25.568
	c-0.038,0.476-0.316,1.125-0.69,1.35c-2.154,1.294-4.37,2.485-6.78,3.832C373.454,90.854,374.98,69.5,376.521,47.962z
	 M345.129,69.06c0.082,2.853,0.162,5.442,0.23,8.03c0.246,9.226,0.49,18.451,0.729,27.677c0.254,9.825,0.496,19.651,0.753,29.476
	c0.24,9.146,0.498,18.292,0.739,27.438c0.24,9.106,0.464,18.212,0.702,27.319c0.221,8.467,0.453,16.934,0.677,25.401
	c0.234,8.826,0.472,17.653,0.673,26.48c0.007,0.323-0.293,0.863-0.564,0.951c-3.828,1.245-7.675,2.43-11.688,3.682
	c-0.126-5.212-0.249-10.298-0.376-15.565c-2.832,0.978-5.499,1.882-8.153,2.824c-1.227,0.436-2.813,0.629-3.528,1.508
	c-0.689,0.848-0.476,2.436-0.645,3.701c-0.492,3.68-0.958,7.363-1.491,11.036c-0.059,0.404-0.42,0.978-0.767,1.091
	c-3.679,1.212-7.382,2.349-11.082,3.499c-0.144,0.045-0.307,0.026-0.531,0.041c0.814-6.103,1.618-12.151,2.43-18.198
	c6.709-49.967,13.419-99.933,20.13-149.9c0.382-2.849,0.757-5.698,1.172-8.542c0.058-0.398,0.223-0.918,0.518-1.123
	C338.302,73.644,341.582,71.452,345.129,69.06z M330.558,194.477c1.666-0.723,3.064-1.382,4.505-1.934
	c0.689-0.264,0.865-0.625,0.838-1.337c-0.266-7.06-0.492-14.12-0.736-21.181c-0.063-1.848-0.155-3.695-0.234-5.542
	c-0.073-0.002-0.146-0.003-0.22-0.005C333.341,174.379,331.97,184.281,330.558,194.477z M239.373,274.656
	c-0.646-2.681-1.303-5.359-1.96-8.037c-2.106-8.577-4.216-17.152-6.319-25.729c-2.15-8.771-4.324-17.537-6.414-26.322
	c-0.416-1.749-1.114-3.425-0.711-5.383c4.478-21.776,8.876-43.569,13.294-65.357c0.138-0.684,0.249-1.373,0.402-2.225
	c-0.391,0.218-0.602,0.317-0.793,0.445c-5.199,3.501-10.408,6.988-15.574,10.538c-0.449,0.309-0.774,0.99-0.896,1.555
	c-2.2,10.182-4.359,20.373-6.531,30.562c-0.088,0.414-0.215,0.819-0.323,1.229c-0.072-0.016-0.143-0.032-0.214-0.048
	c-0.29-9.043-0.58-18.086-0.876-27.315c-0.526,0.329-0.862,0.524-1.185,0.741c-3.94,2.654-7.858,5.342-11.833,7.945
	c-0.896,0.587-1.153,1.209-1.094,2.246c0.295,5.227,0.516,10.457,0.754,15.686c0.386,8.503,0.761,17.006,1.15,25.509
	c0.353,7.704,0.724,15.408,1.079,23.111c0.36,7.784,0.711,15.568,1.065,23.353c0.35,7.705,0.696,15.409,1.048,23.113
	c0.102,2.219,0.219,4.438,0.333,6.758c3.908-1.221,7.625-2.442,11.383-3.518c1.042-0.298,1.275-0.752,1.24-1.743
	c-0.388-11.022-0.738-22.045-1.093-33.068c-0.028-0.869-0.009-1.738-0.012-2.608c0.071,0,0.142-0.001,0.214-0.001
	c3.033,11.454,6.064,22.908,9.121,34.451c5.04-1.564,9.915-3.077,14.932-4.633C239.491,275.428,239.464,275.034,239.373,274.656z
	 M316.176,88.573c-8.143,5.492-16.29,10.978-24.408,16.505c-0.374,0.254-0.686,0.878-0.7,1.34
	c-0.433,14.091-0.818,28.184-1.224,42.275c-0.54,18.765-1.094,37.529-1.636,56.293c-0.481,16.648-0.955,33.296-1.428,49.944
	c-0.059,2.056-0.098,4.114-0.147,6.265c0.341-0.074,0.532-0.1,0.714-0.156c7.21-2.234,14.417-4.485,21.635-6.691
	c0.782-0.239,1.03-0.574,1.065-1.403c0.58-13.852,1.203-27.7,1.808-41.551c0.013-0.294-0.08-0.594-0.13-0.942
	c-3.678,1.518-7.274,3-10.988,4.532c-0.026-0.452-0.064-0.725-0.054-0.996c0.208-5.507,0.44-11.014,0.609-16.522
	c0.024-0.769,0.303-1.121,0.96-1.414c2.843-1.268,5.637-2.652,8.514-3.838c1.125-0.464,1.396-1.103,1.44-2.216
	c0.417-10.494,0.889-20.987,1.341-31.479c0.116-2.694,0.223-5.389,0.342-8.289c-3.755,2.049-7.313,3.991-10.939,5.97
	c-0.051-0.261-0.111-0.413-0.105-0.562c0.194-5.468,0.375-10.937,0.63-16.402c0.02-0.43,0.469-0.985,0.871-1.229
	c3.176-1.921,6.377-3.803,9.603-5.641c0.715-0.408,0.976-0.876,1.009-1.689c0.318-7.98,0.681-15.958,1.025-23.937
	c0.264-6.1,0.518-12.201,0.783-18.469C316.457,88.428,316.306,88.486,316.176,88.573z M289.607,106.49
	c-4.8,3.235-9.608,6.459-14.379,9.738c-0.383,0.263-0.653,0.879-0.731,1.371c-1.665,10.403-3.294,20.812-4.933,31.221
	c-0.063,0.397-0.146,0.791-0.221,1.186c-0.083-0.012-0.167-0.024-0.25-0.036c-1.455-8.835-2.91-17.67-4.392-26.677
	c-5.157,3.473-10.124,6.807-15.063,10.178c-0.233,0.16-0.375,0.683-0.322,0.997c1.099,6.542,2.223,13.08,3.362,19.615
	c1.723,9.88,3.465,19.757,5.195,29.635c0.979,5.588,1.975,11.174,2.912,16.769c0.429,2.558,0.998,5.133,1.041,7.708
	c0.101,5.988-0.083,11.981-0.144,17.972c-0.125,12.303-0.244,24.604-0.362,36.907c-0.02,1.979-0.022,3.957-0.033,6.082
	c3.966-1.235,7.725-2.435,11.505-3.559c0.768-0.228,0.986-0.569,0.993-1.335c0.038-4.154,0.127-8.308,0.208-12.461
	c0.263-13.497,0.524-26.994,0.8-40.491c0.076-3.711-0.203-7.485,0.365-11.124c4.314-27.645,8.798-55.263,13.229-82.889
	c0.58-3.616,1.152-7.234,1.759-11.046C289.823,106.392,289.704,106.424,289.607,106.49z M153.344,198.365
	c-4.272,2.875-8.553,5.739-12.789,8.667c-0.331,0.229-0.534,0.934-0.482,1.381c0.604,5.201,1.28,10.392,1.914,15.589
	c1.552,12.732,3.125,25.462,4.615,38.202c0.422,3.603,0.711,7.233,0.808,10.858c0.038,1.412-0.472,2.903-1.011,4.247
	c-0.465,1.161-1.549,1.834-2.884,1.78c-1.216-0.049-1.875-0.936-2.212-1.929c-0.6-1.769-1.222-3.566-1.498-5.403
	c-0.903-6.008-1.646-12.04-2.466-18.06c-1.656-12.161-3.322-24.32-4.988-36.479c-0.187-1.362-0.395-2.72-0.614-4.225
	c-0.355,0.211-0.523,0.299-0.681,0.406c-4.104,2.768-8.194,5.558-12.323,8.288c-0.71,0.469-0.911,0.921-0.772,1.749
	c1.023,6.068,2.007,12.144,2.991,18.219c1.941,11.994,3.78,24.005,5.854,35.976c0.803,4.63,1.945,9.225,3.272,13.735
	c1.303,4.426,3.32,8.579,6.577,11.972c5.09,5.303,12.333,5.218,17.343-0.163c2.515-2.7,3.973-5.97,4.972-9.461
	c2.297-8.023,2.581-16.252,1.948-24.477c-0.861-11.191-2.07-22.356-3.163-33.529c-0.828-8.47-1.708-16.934-2.564-25.401
	c-0.409-4.044-0.818-8.089-1.236-12.221C153.692,198.205,153.501,198.259,153.344,198.365z M192.328,251.383
	c-1.171,2.207-2.302,4.52-3.915,6.385c-2.357,2.726-5.24,2.563-7.421-0.31c-1.305-1.717-2.406-3.71-3.1-5.749
	c-3.136-9.204-3.165-18.585-1.09-28.009c0.726-3.294,1.828-6.475,3.918-9.188c2.742-3.559,6.451-3.672,9.464-0.359
	c0.411,0.453,0.814,0.911,1.241,1.387c0.113-0.168,0.184-0.228,0.194-0.295c1.624-11.743,3.248-23.485,4.841-35.232
	c0.05-0.372-0.107-0.894-0.361-1.164c-2.407-2.566-5.323-4.025-8.914-3.935c-3.572,0.089-6.404,1.864-8.968,4.095
	c-4.159,3.619-6.877,8.273-9.087,13.239c-4.775,10.733-6.73,22.104-7.415,33.732c-0.666,11.301,0.203,22.516,2.222,33.644
	c1.238,6.819,3.035,13.484,5.825,19.845c1.983,4.521,4.333,8.827,8.039,12.219c1.979,1.812,4.184,3.256,6.958,3.428
	c3.942,0.245,7.013-1.507,9.551-4.371c3.451-3.894,5.786-8.407,7.338-13.343c0.123-0.392,0.14-0.876,0.035-1.273
	c-2.113-8.036-4.25-16.066-6.387-24.096c-0.428-1.608-0.881-3.209-1.38-5.025C193.343,248.632,193.009,250.1,192.328,251.383z
	 M130.895,309.663c-3.616,1.127-7.154,2.231-10.692,3.333c-0.953,0.297-1.921,0.553-2.854,0.904
	c-0.779,0.292-1.191,0.108-1.604-0.64c-2.703-4.89-5.458-9.75-8.199-14.619c-0.227-0.401-0.471-0.792-0.952-1.099
	c1.302,6.103,2.604,12.206,3.935,18.445c-4.139,1.292-8.239,2.571-12.449,3.884c-0.807-3.186-1.603-6.312-2.39-9.44
	c-2.253-8.951-4.506-17.901-6.752-26.854c-2.207-8.797-4.401-17.598-6.607-26.396c-0.68-2.713-1.348-5.43-2.083-8.128
	c-0.228-0.836-0.153-1.347,0.644-1.874c4.761-3.147,9.469-6.376,14.22-9.54c2.803-1.867,5.808-3.237,9.278-3.09
	c4.409,0.189,7.381,2.721,9.728,6.169c2.37,3.482,3.772,7.391,4.771,11.439c2.047,8.296,2.884,16.691,1.571,25.193
	c-0.322,2.081-0.992,4.106-1.42,6.174c-0.117,0.567-0.109,1.278,0.133,1.785c3.72,7.775,7.489,15.528,11.245,23.287
	C130.57,308.916,130.706,309.242,130.895,309.663z M102.103,276.525c2.785-1.324,4.241-3.428,4.695-6.18
	c0.54-3.275-0.022-6.46-1.372-9.465c-1.2-2.675-3.564-3.348-6.152-1.968c-0.692,0.369-0.84,0.771-0.667,1.516
	c0.587,2.528,1.097,5.074,1.645,7.611C100.85,270.805,101.458,273.568,102.103,276.525z M409.839,172.196
	c-3.694,1.513-7.379,3.048-11.083,4.534c-0.725,0.291-1.001,0.671-1.068,1.475c-1.211,14.641-2.464,29.278-3.706,43.917
	c-0.164,1.932-0.32,3.865-0.493,5.955c3.956-1.231,7.713-2.429,11.492-3.554c0.775-0.23,1.065-0.547,1.137-1.375
	c0.851-9.823,1.753-19.643,2.636-29.463c0.647-7.189,1.286-14.379,1.943-21.737C410.288,172.063,410.054,172.107,409.839,172.196z
	 M335.063,192.543c0.689-0.264,0.865-0.625,0.838-1.337c-0.266-7.06-0.492-14.12-0.736-21.181c-0.063-1.848-0.155-3.695-0.234-5.542
	c-0.073-0.002-0.146-0.003-0.22-0.005c-1.371,9.902-2.742,19.804-4.154,30C332.224,193.754,333.623,193.095,335.063,192.543z
	 M106.798,270.346c0.54-3.275-0.022-6.46-1.372-9.465c-1.2-2.675-3.564-3.348-6.152-1.968c-0.692,0.369-0.84,0.771-0.667,1.516
	c0.587,2.528,1.097,5.074,1.645,7.611c0.598,2.765,1.206,5.529,1.851,8.486C104.888,275.201,106.344,273.097,106.798,270.346z"/>
</svg>
