<?xml version="1.0" encoding="utf-8"?>
<!-- Generator: Adobe Illustrator 16.0.0, SVG Export Plug-In . SVG Version: 6.00 Build 0)  -->
<!DOCTYPE svg PUBLIC "-//W3C//DTD SVG 1.1//EN" "http://www.w3.org/Graphics/SVG/1.1/DTD/svg11.dtd">
<svg version="1.1" id="Layer_1" xmlns="http://www.w3.org/2000/svg" xmlns:xlink="http://www.w3.org/1999/xlink" x="0px" y="0px"
	 width="1200px" height="700px" viewBox="0 0 1200 700" enable-background="new 0 0 1200 700" xml:space="preserve">
<path id="truckYeah" fill="none" stroke="#000000" stroke-width="3" stroke-miterlimit="10" d="M888.723,473.83
	c5.352,21.862,5.526,24.869,27.013,24.507c2.312-0.039,4.63,0.472,6.949,0.676c16.953,1.488,21.21-0.062,25.764-10.654
	c2.138-4.972,3.861-10.333,4.553-15.675c2.117-16.378,3.644-32.832,5.411-49.366c7.404-0.335,15.483-0.7,22.191-1.003
	c0-11.209,0-20.628,0-30.048c-0.123-8.097,1.116-16.438,1.598-24.823c0.668-11.633,0.957-23.297,0.96-34.948
	c0-2.613-1.521-5.428-2.937-7.794c-2.345-3.921-5.173-7.554-8.086-11.722c3.153-1.318,4.75-1.985,6.71-2.804
	c-1.209-2.288-2.253-4.263-3.574-6.764c-28.774,0-57.676,0-86.935,0c0-11.06,0-21.523,0-31.702
	c-2.014-1.872-3.689-3.428-5.601-5.204c-2.805,0-5.744,0-9.219,0c-3.801-16.921-8.163-33.485-11.084-50.299
	c-2.147-12.362-8.987-19.222-20.424-22.26c-43.34-11.514-87.831-11.615-132.153-12.564c-23.606-0.505-47.354-0.34-70.859,1.643
	c-39.385,3.323-78.676,7.958-117.895,12.92c-9.733,1.231-20.263,3.199-27.008,12.202c-12.434,16.596-24.905,33.164-37.266,49.813
	c-7.058,9.506-13.93,19.149-20.947,28.816c-1.147-5.861-2.161-11.037-2.949-15.067c-12.951,0-23.951-0.365-34.887,0.304
	c-2.222,0.136-5.758,4.009-6.009,6.437c-0.785,7.584-0.82,15.361,0.02,22.934c0.275,2.478,3.747,5.421,6.434,6.577
	c2.622,1.128,6.108,0.246,9.216,0.246c-3.447,1.368-6.972,1.16-10.246,1.97c-6.167,1.525-12.075,4.626-18.291,5.342
	c-34.723,3.999-69.083,9.6-102.478,20.272c-24.986,7.985-49.544,16.903-72.915,31.675c0.95,6.515,2.598,13.243,2.786,20.012
	c0.44,15.82-0.251,31.676,0.37,47.484c0.359,9.132-3.538,15.545-9.746,21.472c0,7.641,0.464,15.489-0.135,23.256
	c-0.562,7.279,3.234,11.011,9.141,13.015c4.922,1.671,10.186,2.331,15.804,3.549c0.877,3.829,1.32,8.248,2.997,12.135
	c0.992,2.299,3.747,5.035,6.033,5.371c10.452,1.532,21.004,2.876,31.547,3.112c7.099,0.159,9.6,3.558,11.757,9.507
	c5.864,16.175,15.209,30.149,32.674,34.748c11.431,3.01,23.769,2.385,35.577,4.195c16.96,2.602,30.957-1.993,41.962-15.249
	c3.934-4.738,7.77-9.557,10.137-12.474c88.598,4.129,175.633,8.187,262.371,12.229c2.785,9.062,5.403,18.96,8.873,28.55
	c5.192,14.352,13.898,24.11,30.969,24.178c10.408,0.041,20.805,2.291,31.215,3.475c8.169,0.929,16.281,2.685,23.529-3.774
	c11.716-10.439,18.83-23.631,22.488-38.43c4.28-17.316,7.22-34.965,11.037-53.944c30.074-12.419,61.861-25.546,92.319-38.124
	c2.723-3.911,4.865-6.988,8.414-12.085C887.188,466.194,887.798,470.051,888.723,473.83z M702.479,294.481
	c23.478,1.999,46.967,3.921,70.489,5.221c2.45,0.136,7.023-3.571,7.412-6.006c4.189-26.243,7.646-52.601,11.521-78.895
	c0.983-6.673-1.565-9.84-8.096-9.953c-40.773-0.706-81.583-2.76-122.309-1.681c-46.514,1.232-92.973,4.98-139.41,8.283
	c-11.335,0.807-23.323,0.267-31.454,12.315c-16.164,23.951-33.58,47.056-50.441,70.537c-1.046,1.456-1.768,3.145-3.014,5.4
	c24.884-1.343,48.659-2.627,72.434-3.91c-0.021-0.903-0.043-1.807-0.064-2.71c-21.177,0.935-42.354,1.87-63.532,2.804
	c-0.243-1.111-0.486-2.222-0.729-3.333c3.789-1.269,7.501-2.882,11.381-3.736c8.5-1.87,17.027-4.041,25.655-4.766
	c6.118-0.514,12.43,1.035,18.632,1.846c9.439,1.235,18.897,2.403,28.271,4.035c5.972,1.04,11.781,4.006,17.708,4.141
	c25.102,0.567,50.22,0.422,75.332,0.489c16.85,0.045,33.701,0.009,50.551,0.009c0.027-0.122,0.055-0.243,0.082-0.365
	c-27.288-1.039-54.576-2.078-82.574-3.144c0.734-2.237,1.21-3.689,1.596-4.863c17.819-1.162,35.109-3.777,52.242-2.99
	c17.387,0.799,34.619,4.957,50.923,7.489C698.234,292.364,700.282,294.294,702.479,294.481z M334.722,368.684
	c-34.178,0-68.356,0-102.534,0c0.018,0.712,0.037,1.424,0.055,2.137c13.683,0,27.366,0,41.41,0c0,3.35,0,5.949,0,8.643
	c93.462,3.182,186.548,6.352,279.8,9.525c0.555-2.889,1.113-5.794,1.591-8.283c19.973,0,39.726,0,59.479,0
	c0.018-0.801,0.034-1.603,0.051-2.404c-43.809-2-87.617-3.999-132.475-6.047c1.336-1.545,1.556-2.007,1.753-1.998
	c26.437,1.192,52.873,2.403,79.307,3.652c11.64,0.551,23.271,1.302,34.915,1.74c9.189,0.346,17.683,0.693,25.981-6.334
	c19.212-16.271,41.849-27.199,65.181-36.373c13.414-5.273,27.244-9.489,39.382-13.664c-8.938-1.588-19.14-4.322-29.479-5.046
	c-21.905-1.534-43.877-2.218-65.832-2.875c-20.907-0.626-41.827-0.906-62.743-1.068c-7.881-0.061-16.145-0.769-23.591,1.223
	c-38.087,10.187-76.089,20.958-108.773,44.327c-3.704,2.647-5.535,7.916-8.26,12.008c-0.408-0.51-1.824-2.283-2.957-3.701
	c1.915-1.576,3.492-2.875,5.293-4.357c-18.231-6.442-32.525,5.383-48.47,7.244c4.583-2.237,9.586-3.291,13.951-5.568
	c11.487-5.993,22.454-13.015,34.079-18.705c14.232-6.966,28.924-12.995,42.441-18.996c-7.238,2.069-15.576,4.452-23.913,6.834
	c8.568-5.162,17.759-8.346,27.023-11.297c9.421-3.001,18.916-5.773,27.43-8.357c-76.113-3.585-149.54,9.897-218.237,46.38
	c9.716-6.431,19.794-11.725,30.167-16.358c10.582-4.726,21.281-9.314,32.248-13.019c10.772-3.639,21.945-6.092,32.942-9.065
	c-40.985,2.845-130.98,31.821-146.044,46.829c33.283,0,66.038,0,98.793,0C334.698,366.701,334.71,367.692,334.722,368.684z
	 M680.938,511.105c0.421,7.54-3.804,11.624-9.776,13.145c-8.288,2.109-16.987,3.769-25.484,3.655
	c-20.11-0.271-40.222-1.442-60.303-2.721c-29.559-1.882-59.103-4.029-88.632-6.321c-48.592-3.771-97.18-7.616-145.748-11.688
	c-31.647-2.654-63.253-5.792-94.883-8.657c-10.131-0.918-20.278-1.657-31.588-2.573c2.916,6.697,0.564,14.663,9.722,15.777
	c11.055,1.346,22.093,2.9,33.18,3.889c9.821,0.874,20.271,4.889,28.683-4.328c0.488-0.534,1.895-0.394,2.851-0.309
	c6.958,0.624,13.905,1.375,20.865,1.973c69.917,5.999,139.848,11.851,209.736,18.178c6.147,0.557,12,4.233,18.019,6.378
	c4.293,1.529,8.55,3.772,12.973,4.219c15.54,1.57,31.129,3.112,46.729,3.516c18.029,0.467,36.113,0.21,54.125-0.702
	c9.708-0.492,16.126-5.216,17.702-16.549c3.127-22.488,6.973-44.944,11.988-67.082c4.764-21.027,7.022-42.907,19.439-61.761
	c6.233-9.464,16.464-20.758,25.208-23.06c-2.793,2.216-4.162,3.466-5.686,4.485c-16.314,10.924-24.744,27.318-28.768,45.52
	c-6.514,29.457-11.325,59.287-17.102,88.911c-1.577,8.09-4.034,16.009-6.088,24.006c21.746-42.327,27.048-90.944,53.266-131.338
	c-19.447,34.283-27.601,72.594-39.553,109.553c0.998-1.365,1.639-2.865,2.156-4.407c8.314-24.725,16.813-49.39,24.852-74.205
	c6.174-19.057,18.498-32.121,37.471-37.829c5.701-1.716,13.136-0.671,18.839,1.534c4.868,1.883,8.394,7.241,12.513,11.062
	c-1.47-4.245-3.278-8.678-6.315-11.98c-3.176-3.456-7.532-5.827-11.373-8.672c0.131-0.325,0.262-0.65,0.393-0.975
	c2.796,1.242,5.591,2.484,8.387,3.727c0.549-0.578,1.098-1.156,1.646-1.735c-6.425-7.005-12.851-14.01-19.275-21.015
	c0.685-0.532,1.368-1.064,2.053-1.596c6.562,8.183,14.086,15.79,19.42,24.707c5.524,9.236,8.924,19.742,13.483,30.223
	c2.148-0.492,5.291-1.213,8.3-1.903c0-34.257,0-67.872,0-101.915c-3.3,0-5.275-0.114-7.234,0.017
	c-47.146,3.131-88.669,21.354-127.131,47.619c-6.366,4.349-12.247,9.409-19.354,14.917c1.866,1.158,4.809,2.984,7.751,4.81
	c12.543,11.284,15.803,26.188,13.806,42.857c-0.749,6.25-0.33,12.645-0.374,18.974c-0.047,6.635-0.012,13.27-0.012,19.493
	c3.336,0.868,5.152,1.341,9.455,2.462c-4.277,1.109-6.088,1.579-7.105,1.843c2.062,2.207,4.287,4.587,6.646,7.112
	C680.811,492.132,680.41,501.645,680.938,511.105z M653.029,480.945c-31.273-0.936-62.548-2.145-93.787-3.89
	c-61.818-3.455-123.622-7.182-185.414-11.09c-29.557-1.869-59.069-4.436-88.604-6.64c-22.899-1.709-45.804-3.352-68.707-5.013
	c-6.879-0.499-11.317,3.985-9.501,10.094c12.848,0.994,25.856,2,38.837,3.004c0,6.607,0,12.823,0,18.706
	c-13.37-1.119-26.321-2.204-40.561-3.396c2.26,7.497,6.357,9.549,12.268,10.061c35.319,3.056,70.611,6.428,105.932,9.463
	c45.923,3.946,91.857,7.768,137.801,11.466c30.184,2.43,60.377,4.784,90.594,6.735c31.379,2.025,62.777,4.219,94.197,4.871
	c10.762,0.224,23.347,1.568,31.91-10.302c-2.479-11.477,4.053-24.864-4.83-37.116C666.018,479.043,659.488,481.139,653.029,480.945z
	 M890.853,403.203c12.085-4.111,22.104-7.52,31.175-10.605c-3.697,17.677-7.661,36.622-11.624,55.567
	c-0.636-0.134-1.272-0.268-1.908-0.401c2.862-13.459,5.724-26.918,8.854-41.638c-9.561,2.679-17.863,5.006-25.463,7.136
	c-2.937,16.298-5.66,31.418-8.4,46.627c19.364-1.914,30.696-11.044,35.748-28.802c0.625-2.196,0.006-4.731,0.54-6.972
	c2.97-12.435,5.947-24.872,9.256-37.219c2.935-10.955,5.271-22.535,21.339-26.678c-6.398,0-10.137,0-15.239,0
	c14.837-6.162,23.019-0.696,28.052,17.637c5.16-1.598,10.303-3.191,16.731-5.183c0-10.427-1.762-21.12,0.426-30.933
	c3.042-13.644-8.165-19.624-12.582-31.355c-0.396,4.842-0.63,7.685-0.863,10.527c-0.74,0.358-1.481,0.715-2.223,1.073
	c-1.928-3.13-3.856-6.26-5.969-9.69c-2.597,0.308-5.345,0.634-8.608,1.021c0,2.9,0,5.653,0,8.406
	c-0.766,0.436-1.53,0.872-2.295,1.308c-2.069-2.968-4.139-5.936-6.619-9.495c-2.618,0-6.21,0-10.13,0c0,3.32,0,6.349,0,10.335
	c-2.158-0.907-4.635-1.314-4.759-2.095c-1.763-11.119-9.923-6.743-16.045-7.45c0,3.471,0,6.394,0,9.702
	c-1.795,0.155-3.324,0.287-5.369,0.463c-0.223-12.713-8.579-9.366-14.024-9.03C890.853,344.438,890.853,372.938,890.853,403.203z
	 M817.229,204.076c13.309,2.205,25.013,4.145,36.717,6.084c0.694-0.705,1.39-1.411,2.084-2.116c-1.678-2.284-2.942-6.002-5.1-6.625
	c-16.506-4.765-33.014-11.686-49.846-12.739c-43.475-2.72-87.113-3.527-130.691-3.68c-49.664-0.174-99.042,4.563-147.936,13.44
	c-8.458,1.536-16.562,5.022-24.831,7.608c0.284,0.9,0.567,1.8,0.851,2.7c1.701-0.335,3.39-0.858,5.106-0.978
	c55.62-3.88,111.194-8.923,166.882-11.155c38.666-1.551,77.488,0.714,116.238,1.411c8.771,0.158,13.054,5.924,11.948,14.469
	c-3.752,28.998-7.307,58.021-11.09,88.256c-17.253,10.797-36.973,0.4-55.383,5.093c15.585,1.02,31.196,0.683,46.772,1.258
	c3.856,0.143,7.603,3.247,11.399,4.99c-19.362-7.2-38.948-2.354-57.991-4.809c-0.066,0.844-0.133,1.687-0.199,2.531
	c23.644,3.021,47.288,6.042,73.818,9.431C809.806,280.067,813.479,242.453,817.229,204.076z M879.936,405.007
	c0-13.325,0.145-25.938-0.11-38.542c-0.058-2.842-2.129-5.647-2.165-8.484c-0.048-3.744,0.912-7.519,1.619-11.246
	c0.248-1.309,1.029-2.517,1.654-3.974c-18.505-2.442-52.172,15.948-54.473,29.639c-1.866,0.276-3.899,0.579-8.813,1.309
	c2.667-5.564,3.533-10.493,6.469-12.907c8.719-7.168,18.22-13.393,27.475-19.9c9.061-6.371,10.3-10.765,5.74-21.171
	c-28.164-2.625-28.51-2.51-30.776,10.538c-2.136,0.217-4.342,0.441-7.896,0.803c0.521-24.562,21.299-14.516,33.813-20.744
	c-15.074,0-28.518,0-44.173,0c0,7.492,0.07,15.17-0.014,22.846c-0.29,26.446-0.668,52.891-0.916,79.337
	c-0.03,3.318,0.518,6.643,0.881,10.951C833.089,417.066,856.309,411.09,879.936,405.007z M779.616,466.249
	c-1.973-17.065-4.881-33.97-14.919-48.567c-5.961-8.668-15.498-10.09-21.527-1.653c-6.803,9.521-12.885,20.17-16.501,31.236
	c-9.399,28.761-12.374,58.743-9.063,88.715c1.934,17.502,6.594,34.976,12.266,51.702c4.212,12.421,17.163,18.893,27.389,4.188
	c3.661-5.267,7.146-10.848,9.562-16.755c10.729-26.239,13.946-53.857,14.207-86.414
	C780.761,484.164,780.646,475.153,779.616,466.249z M711.814,469.021c-8.174,22.762-17.352,48.314-25.631,71.368
	c-10.556,2.682-17.809,4.525-26.435,6.717c2.852,10.179,4.925,19.365,8.031,28.188c3.4,9.655,7.765,20.147,18.467,22.703
	c14.087,3.365,28.792,4.146,42.346,5.922C701.443,560.138,706.897,513.095,711.814,469.021z M627.597,448.821
	c6.099-17.26,4.538-33.071-9.044-46.714c-10.098-10.144-29.114-10.686-39.208,0.149c-11.066,11.88-12.331,25.174-7.878,40.043
	c3.22,10.753,18.06,23.026,29.189,23.342C610.151,465.91,624.666,457.113,627.597,448.821z M856.634,466.168
	c11.082-3.491,16.888-9.055,18.009-20.632c0.91-9.392,3.176-18.652,5.004-28.885c-24.325,6.79-47.235,13.185-70.078,19.561
	c-1.801,16.71-3.535,32.802-5.403,50.132C822.397,479.21,839.192,471.662,856.634,466.168z M622.428,376.34
	c10.578,0.996,21.074,1.983,32.076,3.019c40.289-32.266,86.145-53.533,139.645-59.322
	C734.883,309.332,653.019,345.798,622.428,376.34z M234.299,435.022c4.621,7.831,14.662,11.905,22.19,7.215
	c6.113-3.81,11.263-11.427,13.565-18.432c2.146-6.529,0.201-14.495-0.348-21.798c-0.923-12.305-15.292-22.126-26.818-18.561
	c-9.883,3.059-16.725,14.484-18.771,29.035C227.453,420.03,230.134,427.964,234.299,435.022z M545.729,537.742
	c-3.175-1.474-6.256-3.946-9.54-4.255c-18.206-1.706-36.47-2.772-54.696-4.271c-34.463-2.833-68.922-5.712-103.366-8.762
	c-25.172-2.229-50.303-4.936-75.489-6.979c-3.859-0.313-7.915,1.798-11.88,2.788c0.193,1.127,0.387,2.254,0.581,3.381
	c84.31,9.721,168.701,18.436,253.557,21.422C545.174,539.959,545.452,538.851,545.729,537.742z M814.275,306.431
	c3.637,0,6.543,0,9.494,0c0-9.575-0.296-19.051,0.145-28.492c0.178-3.816,1.963-7.558,3.008-11.303c11.826,0,21.88,0,32.397,0
	c-3.193-16.041-6.261-31.452-9.514-47.795c-9.197-0.859-18.151-1.697-27.796-2.598C819.334,247.444,816.818,276.772,814.275,306.431
	z M315.691,527.596c2.525,15.809,17.351,32.399,30.951,34.937c16.81,3.136,33.874-6.883,45.064-26.981
	C366.039,532.864,340.913,530.235,315.691,527.596z M876.352,470.318c3.256-18.616,6.396-36.573,9.536-54.531
	c-2.56,0.94-3.351,2.371-3.656,3.898c-2.64,13.166-5.024,26.389-7.934,39.494c-0.494,2.229-2.73,4.95-4.83,5.806
	c-22.217,9.055-44.569,17.776-69.016,27.433c1.79-18.431,3.53-36.354,5.274-54.317c-8.093-0.204-11.418,2.724-11.794,10.788
	c-0.545,11.702-2.484,23.366-4.309,34.972c-1.183,7.523-3.22,14.913-5.133,23.525C815.547,494.854,846.038,482.551,876.352,470.318z
	 M843.481,298.291c-0.488,0.315-0.976,0.63-1.464,0.945c-4.661-7.001-9.322-14.003-14.535-21.833c0,9.272,0,17.23,0,24.653
	c13.729,0,26.761,0,38.294,0c3.808-5.922,6.758-10.564,9.764-15.171c3.136-4.805,6.324-9.576,10.181-15.405
	c-20.252,0-39.26,0-59.946,0C832.583,281.79,838.032,290.041,843.481,298.291z M654.426,394.924
	c-5.922-1.077-11.758-2.139-18.184-3.307c0,27.782,0,54.125,0,81.238c6.08,0,11.742,0,18.184,0
	C654.426,446.873,654.426,421.33,654.426,394.924z M897.22,489.949c0.584,1.821,2.581,4.305,4.173,4.504
	c9.666,1.208,19.403,1.843,28.485,2.614c-2.336-11.136-5.213-21.621-6.583-32.3c-1.377-10.737-1.254-21.667-1.788-32.512
	c-0.856,19.783-16.287,23.722-33.06,28.045C891.511,470.814,894.167,480.445,897.22,489.949z M271.613,391.712
	c94.828,3.688,189.655,7.376,285.096,11.088c-0.167-1.968-0.277-3.274-0.394-4.65c-2.54-0.328-4.507-0.744-6.486-0.813
	c-29.443-1.036-58.889-1.986-88.331-3.035c-62.359-2.223-124.717-4.502-187.079-6.656c-1.238-0.043-2.52,1.166-3.781,1.791
	C270.963,390.195,271.288,390.953,271.613,391.712z M556.206,458.233c-1.951-0.97-3.857-2.682-5.858-2.8
	c-41.995-2.484-84.003-4.745-126.004-7.14c-50.497-2.878-100.99-5.84-151.486-8.74c-0.44-0.024-0.9,0.306-1.714,0.603
	c0.245,1.188,0.483,2.338,0.736,3.562c94.665,5.675,188.875,11.322,283.086,16.971C555.379,459.871,555.792,459.052,556.206,458.233
	z M313.95,531.059c-1.382-2.087-3.87-4.158-6.223-4.753c-7.262-1.835-14.705-2.953-22.078-4.35c0.153-0.817,0.306-1.634,0.459-2.451
	c-3.736-0.316-7.472-0.634-11.299-0.958c6.811,30.043,28.794,45.344,58.668,43.185C327.449,552.191,320.873,541.51,313.95,531.059z
	 M942.414,494.257c3.046-8.331,6.092-16.661,9.153-25.033c-3.256,2.351-6.826,6.448-8.476,5.783
	c-2.869-1.156-5.849-4.978-6.526-8.162c-4.778-22.459-4.498-44.987,1.375-67.231c0.864-3.273,3.708-6.648,6.589-8.461
	c1.16-0.73,4.887,2.621,8.424,4.685c-2.824-8.264-5.532-16.187-8.24-24.108c-0.999,0.098-1.999,0.197-2.998,0.297
	c-1.79,2.688-4.562,5.162-5.199,8.1c-2.934,13.531-6.352,27.096-7.573,40.829c-1.943,21.841-1.584,43.79,5.066,65.055
	c0.943,3.018,3.267,5.604,4.951,8.39C940.111,494.351,941.263,494.304,942.414,494.257z M749.48,406.847
	c-6.473,4.745-15.009,8.516-18.58,14.978c-6.477,11.718-11.24,24.777-14.432,37.837c-7.604,31.11-8.996,62.939-3.717,94.461
	c2.441,14.575,8.602,28.707,14.453,42.453c2.719,6.389,9.28,9.737,15.036,7.285c-4.154-4.005-9.733-7.667-12.954-12.807
	c-9.862-15.738-12.455-33.777-13.779-51.881c-2.697-36.869,0.197-73.126,14.719-107.597c4.467-10.602,10.044-21.037,23.494-24.598
	C752.282,406.9,750.379,406.188,749.48,406.847z M789.289,456.927c0.26-12.284,0.115-24.895-2.373-36.839
	c-3.199-15.362-17.616-21.83-30.889-15.744c25.873,21.731,25.204,52.571,29.293,82.521
	C786.724,476.887,789.077,466.93,789.289,456.927z M420.531,301.547c3.381-0.562,7.567-4.291,8.825-7.569
	c1.532-3.993,0.364-9.021,0.364-15.321c-6.298,7.757-11.525,14.196-16.752,20.635c-0.4-0.325-0.801-0.651-1.201-0.976
	c5.832-7.52,11.664-15.04,18.503-23.859c-12.07,0-22.304-0.131-32.522,0.202c-1.03,0.034-2.947,2.991-2.785,4.4
	c0.847,7.367,2.231,14.671,3.567,22.839C406.198,301.897,413.528,302.709,420.531,301.547z M564.561,459.62
	c-1.105,3.998-1.697,6.14-2.691,9.733c24.317,1.52,47.231,2.95,70.899,4.429c0-5.573,0-10.51,0-15.445c0-5.01,0-10.019,0-16.433
	c-6.203,17.688-18.451,27.469-34.146,28.284c-11.394,0.593-27.388-12.577-34.062-29.58
	C564.561,449.249,564.561,455.496,564.561,459.62z M657.329,401.716c0,23.489,0,46.979,0,70.984c2.779-0.769,4.929-1.363,7.37-2.038
	c0-15.837,0.49-31.339-0.209-46.787c-0.344-7.607-2.888-15.115-4.436-22.668C659.146,401.377,658.238,401.546,657.329,401.716z
	 M216.158,378.719c-2.404,0-4.263,0-5.868,0c-0.426,0.728-0.735,1.009-0.734,1.289c0.088,20.926,0.093,41.854,0.526,62.772
	c0.033,1.603,3.113,3.143,6.075,5.936C216.158,423.537,216.158,401.217,216.158,378.719z M209.936,479.753
	c10.947,1.954,22.155,2.453,33.367,3.425c0-4.993,0-8.725,0-12.875c-11.736-0.932-23.113-1.835-36.278-2.881
	C208.062,472.151,208.37,479.473,209.936,479.753z M548.395,304.926c43.881,0,87.763,0,131.668,0c0.53,2.813,0.782,4.15,1.045,5.543
	c6.074,0.284,12.059,0.915,18.019,0.742c5.879-0.17,11.734-1.153,17.601-1.78c0.018-0.95,0.036-1.9,0.055-2.851
	c-56.098-1.993-112.196-3.987-168.294-5.98C548.456,302.042,548.425,303.484,548.395,304.926z M419.304,357.15
	c7.003-1.247,13.914-2.969,20.156-6.045c10.931-5.387,21.091-12.436,32.23-17.279c16.514-7.18,33.599-13.044,50.904-19.645
	C494.32,318.775,424.773,346.771,419.304,357.15z M876.893,408.445c-22.266,5.694-44.552,11.316-66.755,17.246
	c-1.509,0.403-2.398,3.123-3.575,4.766c23.912-4.749,46.262-10.824,68.555-17.102c1.28-0.361,2.099-2.367,3.132-3.608
	C877.797,409.312,877.345,408.879,876.893,408.445z M238.357,445.267c-10.816-5.387-15.495-14.869-17.895-27.606
	c0,10.932,0,20.193,0,30.139c15.078,1.059,29.834,2.095,44.383,3.116c1.248-4.79,2.213-8.496,3.178-12.202
	C259.173,447.657,249.956,451.042,238.357,445.267z M596.609,389.137c-11.39-0.59-22.005-1.14-34.099-1.766
	c1.19,4.176,2.006,7.041,2.953,10.361c-1.758,0.344-3.786,0.741-6.196,1.213c0.135,1.154,0.273,2.332,0.408,3.488
	c2.014-0.149,3.577-0.266,5.551-0.411c-0.215,4.475-0.408,8.485-0.645,13.4C571.036,401.922,571.036,401.922,596.609,389.137z
	 M292.466,332.676c-26.876,10.197-53.753,20.394-80.63,30.592c0.485,1.407,0.97,2.813,1.454,4.22
	c7.042-2.204,14.194-4.115,21.083-6.723c4.139-1.565,7.732-4.521,11.803-6.326c15.577-6.907,31.248-13.6,46.883-20.373
	C292.862,333.603,292.664,333.14,292.466,332.676z M976.852,383.33c-4.391,1.471-8.75,2.931-13.128,4.396
	c-2.134,8.498-4.205,16.741-6.309,25.115C967.689,410.778,979.099,393.463,976.852,383.33z M632.272,418.86
	c0-8.53,0-17.882,0-27.347c-10.237-0.76-19.989-1.488-29.743-2.192c-0.59-0.042-1.193,0.124-1.792,0.192
	C617.404,393.314,627.537,403.802,632.272,418.86z M885.355,274.69c-5.979,9.581-11.063,17.727-17.057,27.329
	c7.119,0.586,11.805,0.973,17.057,1.405C885.355,294.053,885.355,285.248,885.355,274.69z M887.291,311.632
	c28.847-1.114,57.694-2.228,86.541-3.341c-0.015-0.281-0.029-0.561-0.044-0.841c-28.808,0-57.614,0-86.422,0
	C887.341,308.843,887.316,310.238,887.291,311.632z M548.158,298.77c49.841,1.597,99.682,3.194,149.522,4.792
	c0.011-0.445,0.021-0.891,0.032-1.336c-49.844-1.503-99.687-3.006-149.53-4.509C548.174,298.068,548.166,298.419,548.158,298.77z
	 M244.939,378.395c-9.42,0-16.812,0-24.516,0c0,9.489,0,18.402,0,29.412C222.614,392.219,229.111,382.186,244.939,378.395z
	 M885.992,403.727c0-20.949,0-41.473,0-62.566C882.098,347.199,881.667,401.545,885.992,403.727z M925.624,417.154
	c-2.906,23.722-2.125,47.259,4.373,70.357c1.006,3.575,3.916,6.615,5.946,9.903c-7.163-10.353-9.034-24.499-9.219-82.778
	C926.225,415.75,925.713,416.426,925.624,417.154z M870.4,266.304c-3.898-17.323-7.798-34.646-11.696-51.969
	c-0.756,0.166-1.513,0.331-2.269,0.496c3.593,17.384,7.186,34.768,10.779,52.151C868.276,266.756,869.338,266.53,870.4,266.304z
	 M956.639,417.236c0.393,0.74,0.785,1.48,1.178,2.221c5.496,0,10.993,0,16.657,0c0-5.474,0-10.468,0-16.641
	c-1.508,3.281-2.518,5.479-2.938,6.396C965.593,412.413,961.115,414.824,956.639,417.236z M638.652,384.627
	c3.256,0.127,6.548-0.686,9.823-1.064c-0.089-1.011-0.177-2.021-0.265-3.032c-9.039-0.729-18.076-1.458-27.465-2.214
	C620.334,383.726,620.719,383.929,638.652,384.627z M203.058,486.531c0.628-10.999,1.255-21.998,1.867-32.714
	c-0.841,0.926-4.207,2.901-4.353,5.092c-0.611,9.19-0.258,18.445-0.258,27.676C201.229,486.567,202.144,486.55,203.058,486.531z
	 M942.908,413.925c1.447,4.942,3.862,9.842,4.086,14.84c0.25,5.584-1.487,11.257-2.359,16.891c-1.005-0.042-2.01-0.085-3.015-0.128
	c0.88,2.574,1.761,5.149,2.642,7.724c0.859-0.08,1.72-0.161,2.58-0.242c0-13.224,0-26.446,0-39.669
	C945.53,413.535,944.22,413.73,942.908,413.925z M820.241,212.553c10.962,1.233,21.925,2.466,32.887,3.699
	c0.129-0.775,0.257-1.551,0.386-2.327c-10.889-1.751-21.777-3.502-32.666-5.254C820.646,209.965,820.443,211.259,820.241,212.553z
	 M891.063,409.306c8.295-2.454,16.59-4.907,24.885-7.36c-0.312-1.092-0.624-2.186-0.936-3.277
	c-8.427,2.231-16.854,4.463-25.28,6.695C890.176,406.677,890.619,407.991,891.063,409.306z M957.533,368.694
	c-2.285-2.331-5.025-5.146-7.788-5.169c-9.615-0.078-13.259,7.107-17.203,17.29C940.368,370.223,941.952,366.203,957.533,368.694z
	 M494.303,301.264c-19.999,1.271-39.994,2.605-60.001,3.711c-1.952,0.108-3.982-1.196-6.598-2.047
	c-1.029,1.367-2.569,3.414-2.787,3.703c10.482-0.726,22.175-1.625,33.88-2.321c11.868-0.706,23.748-1.21,35.622-1.803
	C494.38,302.093,494.342,301.679,494.303,301.264z M418.387,408.479c18.571,0,37.143,0,55.715,0
	c0.016-0.288,0.033-0.576,0.049-0.865c-18.574,0-37.147,0-55.721,0C418.416,407.902,418.401,408.19,418.387,408.479z
	 M504.177,464.631c7.421,0.473,14.843,0.944,22.265,1.416c0.099-1.194,0.199-2.389,0.298-3.583
	c-7.367-0.556-14.735-1.111-22.102-1.667C504.484,462.075,504.331,463.354,504.177,464.631z M497.184,411.549
	c16.993,0,33.985,0,50.978,0c0.02-0.264,0.04-0.527,0.059-0.791c-16.973,0-33.945,0-50.917,0
	C497.263,411.021,497.224,411.285,497.184,411.549z M466.818,459.275c-6.693-0.773-13.386-1.547-20.079-2.32
	c-0.254,1.223-0.509,2.446-0.763,3.669c6.714,0.786,13.428,1.571,20.141,2.357C466.351,461.746,466.585,460.511,466.818,459.275z
	 M473.862,418.188c0.019-0.781,0.038-1.562,0.057-2.345c-18.488,0-36.977,0-52.706,0
	C436.89,416.541,455.376,417.365,473.862,418.188z M267.398,389.056c-0.407-2.743-0.993-6.694-1.616-10.896
	c-5.668,0-10.714,0-14.769,0C256.254,381.646,262.138,385.558,267.398,389.056z M479.773,389.305c-26.535,0-53.07,0-79.606,0
	c-0.004,0.102-0.008,0.204-0.012,0.307c26.535,0,53.069,0,79.603,0C479.763,389.509,479.768,389.406,479.773,389.305z
	 M345.406,405.383c17.372,0,34.744,0,52.115,0c0.015-0.278,0.03-0.557,0.045-0.836c-17.373,0-34.747,0-52.12,0
	C345.433,404.826,345.42,405.104,345.406,405.383z M871.847,305.393c-10.888,0-21.775,0-32.663,0
	c0.002,0.342,0.004,0.685,0.005,1.027c10.888,0,21.776,0,32.664,0C871.851,306.078,871.849,305.735,871.847,305.393z
	 M474.797,425.113c-18.79-0.891-37.579-1.78-56.369-2.671c-0.02,0.422-0.04,0.844-0.061,1.266
	c18.782,0.905,37.563,1.81,56.345,2.714C474.741,425.986,474.769,425.549,474.797,425.113z M474.719,433.316
	c-18.778-0.942-37.556-1.885-56.334-2.827c-0.021,0.397-0.042,0.794-0.062,1.191c18.743,0.977,37.486,1.953,56.229,2.93
	C474.606,434.179,474.663,433.748,474.719,433.316z M631.467,475.595c-22.712-1.289-45.424-2.579-68.136-3.868
	c-0.017,0.304-0.034,0.608-0.051,0.913c22.71,1.322,45.42,2.645,68.13,3.967C631.43,476.27,631.448,475.932,631.467,475.595z
	 M418.262,439.674c18.767,1.027,37.533,2.055,56.299,3.082c0.021-0.426,0.042-0.851,0.062-1.276
	c-18.769-0.977-37.537-1.953-56.306-2.93C418.299,438.925,418.28,439.299,418.262,439.674z M397.595,413.504
	c-17.219-0.769-34.438-1.537-51.657-2.305c-0.016,0.414-0.032,0.826-0.047,1.24c17.218,0.777,34.437,1.555,51.654,2.332
	C397.562,414.35,397.578,413.926,397.595,413.504z M548.008,436.904c-16.854-0.83-33.708-1.661-50.562-2.491
	c-0.02,0.44-0.04,0.88-0.06,1.32c16.854,0.838,33.707,1.675,50.56,2.512C547.967,437.799,547.987,437.352,548.008,436.904z
	 M647.164,324.243c-15.48,5.997-30.96,11.994-46.44,17.991c0.215,0.57,0.43,1.139,0.644,1.708
	c15.491-5.967,30.983-11.935,46.475-17.903C647.617,325.441,647.391,324.842,647.164,324.243z M701.316,411.023
	c0-4.322,0-7.916,0-13.075c-7.611,1.041-14.844,2.03-22.294,3.049c0,4.817,0,9.054,0,13.837
	C686.951,413.479,694.149,412.248,701.316,411.023z M567.954,490.103c0,7.063,0,13.791,0,20.741
	c19.847,1.421,39.286,2.812,58.981,4.223c0-6.981,0-13.738,0-21.169C607.03,492.616,587.542,491.363,567.954,490.103z
	 M454.831,483.271c0,5.701,0,10.698,0,15.95c12.896,0.936,25.071,1.818,37.624,2.729c0-5.491,0-10.589,0-16.357
	C479.48,484.791,467.026,484.023,454.831,483.271z M335.202,474.103c-11.732-0.857-22.862-1.671-33.766-2.468
	c0,5.812,0,10.689,0,15.644c11.232,1.046,22.083,2.057,33.766,3.145C335.202,485.099,335.202,479.645,335.202,474.103z
	 M803.216,314.395c3.634-39.682,7.269-79.363,10.903-119.044c-0.652-0.065-1.305-0.129-1.957-0.194
	c-3.606,39.583-7.212,79.166-10.818,118.748C801.968,314.068,802.592,314.231,803.216,314.395z M768.897,451.464
	c-1.511-4.488-8.201-9.796-12.703-9.967c-4.171-0.158-10.422,5.145-12.597,9.589c-16.169,33.037-17.252,67.59-7.552,102.569
	c1.823,6.577,4.228,14.658,13.085,15.76c9.943,1.237,13.641-6.519,17.146-13.626c9.476-19.212,10.993-39.943,13.438-61.485
	C776.259,479.974,773.582,465.381,768.897,451.464z M698.277,401.814c-4.503,0.633-8.514,1.197-12.645,1.778c0,2.472,0,4.364,0,6.78
	c4.435-0.688,8.473-1.314,12.645-1.961C698.277,406.221,698.277,404.359,698.277,401.814z M572.319,508.532
	c17.273,1.19,34.057,2.347,51.099,3.521c0-5.688,0-10.374,0-15.425c-17.139-1.088-33.817-2.147-51.099-3.244
	C572.319,498.773,572.319,503.456,572.319,508.532z M489.264,498.71c0-4.026,0-7.069,0-10.343c-9.89-0.578-19.29-1.128-29.065-1.7
	c0,3.574,0,6.461,0,10.066C470.407,497.428,479.887,498.072,489.264,498.71z M307.465,475.077c0,3.662,0,6.395,0,9.864
	c8.437,0.69,16.568,1.356,25.037,2.05c0-3.602,0-6.217,0-9.987C324.049,476.354,315.91,475.728,307.465,475.077z M759.401,532.943
	c8.173-18.286,8.84-37.297,2.475-56.335c-0.708-2.118-3.39-3.576-5.157-5.341c-2.111,2.677-4.965,5.097-6.019,8.14
	c-0.521,1.504,2.383,4.104,3.55,6.307c1.189,2.247,2.284,4.566,3.161,6.949c0.557,1.512,0.251,3.415,1.003,4.77
	c3.413,6.144-0.582,21.551-6.71,23.715c-0.863,3.305-1.789,6.85-2.938,11.248C753.702,541.04,755.577,541.498,759.401,532.943z
	 M746.875,472.057c-10.729,22.877-10.616,46.135-1.959,70.001c2.415,0.157,4.283,0.279,7.201,0.471
	c-16.174-15.51-13.688-57.584,2.086-76.52C751.702,467.998,748.09,469.465,746.875,472.057z M750.066,559.477
	c21.899-6.58,27.498-93.828,6.195-108.534C775.856,474.464,770.712,543.753,750.066,559.477z M763.587,471.228
	c0.369-0.145,0.737-0.289,1.106-0.434c-3.571-6.64-7.143-13.278-12.031-22.366c-3.871,4.121-5.552,5.911-6.572,6.998
	C752.729,461.422,758.158,466.324,763.587,471.228z M741.354,552.462c0.993,1.256,2.73,3.451,6.027,7.618
	c4.986-7.201,9.12-13.174,14.658-21.175C753.685,544.381,747.756,548.267,741.354,552.462z M750.975,495.744
	c-1.261-0.1-2.521-0.198-3.781-0.298c-1.239,5.751-2.479,11.501-3.997,18.547c4.238-0.585,6.419-0.886,7.778-1.073
	C750.975,506.53,750.975,501.137,750.975,495.744z"/>
</svg>
