<?xml version="1.0" encoding="utf-8"?>
<!-- Generator: Adobe Illustrator 16.0.0, SVG Export Plug-In . SVG Version: 6.00 Build 0)  -->
<!DOCTYPE svg PUBLIC "-//W3C//DTD SVG 1.1//EN" "http://www.w3.org/Graphics/SVG/1.1/DTD/svg11.dtd">
<svg version="1.1" id="truck" xmlns="http://www.w3.org/2000/svg" xmlns:xlink="http://www.w3.org/1999/xlink" x="0px" y="0px"
	 width="1200px" height="700px" viewBox="0 0 1200 700" enable-background="new 0 0 1200 700" xml:space="preserve">
<polygon id="mGroup" fill="#C9732F" points="1159.178,536.467 1094.932,519.754 1063.434,535.13 1016.936,551.842 937.439,519.086 
	868.441,537.136 850.443,519.086 787.449,511.918 761.947,525.104 728.74,521.404 658.244,512.047 599,531.119 551.959,523.766 
	508.46,521.091 433.464,553.179 383.966,525.111 355.467,510.396 277.469,525.111 232.068,514.754 211.46,538.473 158.947,521.76 
	131.973,514.074 61.357,533.125 37.234,510.396 -1.5,520.218 -1.5,521.467 -38.822,536.467 -103.068,519.754 -134.567,535.13 
	-181.064,551.842 -260.561,519.086 -329.558,537.136 -347.557,519.086 -410.551,511.918 -436.053,525.104 -469.26,521.404 
	-539.756,512.047 -599,531.119 -646.041,523.766 -689.54,521.091 -764.536,553.179 -814.034,525.111 -842.534,510.396 
	-920.532,525.111 -965.932,514.754 -986.54,538.473 -1039.053,521.76 -1066.027,514.074 -1136.642,533.125 -1160.766,510.396 
	-1199.5,520.218 -1199.5,539.828 -1199.5,581.5 -1.5,581.5 0.5,581.5 1198.5,581.5 1198.5,520.663 "/>
<polygon id="mrGroup" fill="#5E3F2A" points="1180.314,566.4 1148.15,560.935 1132.383,565.963 1109.105,571.428 1069.309,560.717 
	1034.766,566.619 1025.755,560.717 994.219,558.372 981.451,562.684 964.827,561.475 929.534,558.414 899.876,564.651 
	876.324,562.246 854.55,561.372 817.004,571.865 792.223,562.688 777.956,557.875 738.907,562.688 716.18,559.3 705.862,567.056 
	679.573,561.591 666.068,559.078 630.718,565.307 618.642,557.875 599.249,561.086 599.249,561.494 580.564,566.4 548.402,560.935 
	532.633,565.963 509.355,571.428 469.557,560.717 435.015,566.619 426.004,560.717 394.467,558.372 381.701,562.684 
	365.076,561.475 329.785,558.414 300.126,564.651 276.575,562.246 254.799,561.372 217.253,571.865 192.475,562.688 
	178.207,557.875 139.158,562.688 116.43,559.3 106.113,567.056 79.824,561.591 66.318,559.078 30.968,565.307 18.891,557.875 
	-0.5,561.086 -0.5,561.757 -18.186,566.4 -50.349,560.935 -66.117,565.963 -89.395,571.428 -129.192,560.717 -163.734,566.619 
	-172.745,560.717 -204.281,558.372 -217.049,562.684 -233.673,561.475 -268.966,558.414 -298.624,564.651 -322.176,562.246 
	-343.95,561.372 -381.496,571.865 -406.277,562.688 -420.544,557.875 -459.593,562.688 -482.32,559.3 -492.638,567.056 
	-518.927,561.591 -532.431,559.078 -567.782,565.307 -579.858,557.875 -599.251,561.086 -599.251,561.494 -617.935,566.4 
	-650.098,560.935 -665.868,565.963 -689.145,571.428 -728.943,560.717 -763.485,566.619 -772.496,560.717 -804.033,558.372 
	-816.799,562.684 -833.424,561.475 -868.715,558.414 -898.374,564.651 -921.925,562.246 -943.701,561.372 -981.247,571.865 
	-1006.026,562.688 -1020.293,557.875 -1059.342,562.688 -1082.071,559.3 -1092.387,567.056 -1118.676,561.591 -1132.181,559.078 
	-1167.532,565.307 -1179.609,557.875 -1199,561.086 -1199,567.499 -1199,581.126 -599.251,581.126 -598.249,581.126 -0.5,581.126 
	1.5,581.126 599.249,581.126 600.251,581.126 1200,581.126 1200,561.232 "/>
<g id="cGroup">
	<g>
		<path fill="#006A12" d="M1023.954,467.018v-0.01c3.92-13.06,12.279-23.438,27.529-37.46c22.979-21.12,26.896-34.64,29.829-45.5
			c2.472-9.17,0.812-20.41,0.091-21.729c4.438,2.355,5.525,6.881,6.979,14.851c3,16.5-48,76.63-56.5,86.63s-2,112.25-2,120.25h-4.5
			v-0.5c0,0-5.14-44.67-4.95-80.816c0.051-9.684,0.48-18.75,1.49-26.184C1022.384,473.178,1023.054,470.028,1023.954,467.018z"/>
		<path fill="#183225" d="M1081.403,362.317c0.721,1.315,2.381,12.561-0.091,21.729c-2.934,10.86-6.854,24.38-29.829,45.5
			c-15.25,14.021-23.609,24.4-27.529,37.46c2.29-17.13,25.938-55.97,36.43-67.01c10.22-10.76,13.87-38.07,14.062-39.53
			C1077.424,360.808,1079.674,361.397,1081.403,362.317z"/>
		<path fill="#006A12" d="M1074.443,360.468c-0.189,1.46-3.84,28.771-14.062,39.53c-10.49,11.04-34.14,49.88-36.43,67.01v0.01
			c-0.9,3.016-1.57,6.16-2.03,9.53c-1.01,7.43-1.438,16.5-1.49,26.18h-0.01c-0.04-5-0.358-66.938,3.96-73.18
			c4.5-6.5,16-21.5,22.021-39.5c5.79-17.32,18.931-29.07,21.711-29.93C1070.534,360.158,1072.624,360.268,1074.443,360.468z"/>
		<path fill="#183225" d="M1020.424,502.728h0.01c-0.188,36.15,4.95,80.82,4.95,80.82v0.5h-7.5v-0.5c-8.5-23-7-145.5-8-161
			c-0.159-2.43,0.19-6.49,0.91-11.74c3.91-28.18,18.899-90.565,27.09-118.76c12.37-42.56,7.66-83.26,7.562-84.08
			c6.931,4.57,8.198,17.9,8.938,33.59c1.5,31.5-40.45,168.2-40,179.01c0.5,12,14.47-7.395,18.5-17.989
			c7.41-19.48,15.33-42.471,33.5-42.471c0.604,0,1.17,0,1.73,0.011c-2.78,0.854-15.921,12.604-21.711,29.93
			c-6.021,18-17.521,33-22.021,39.5C1020.062,435.788,1020.384,497.728,1020.424,502.728z"/>
		<path fill="#006A12" d="M1045.443,207.968c0.101,0.82,4.811,41.52-7.562,84.08c-8.188,28.19-23.18,90.58-27.09,118.76
			c3.021-25.604,5.12-45.445,6.729-61.75c4.312-43.7,5.095-62.07,10.604-98.51c4.27-28.23,9.51-38.95,11.92-42.59
			c0.59-0.88,1.01-1.35,1.21-1.55C1042.844,206.628,1044.233,207.168,1045.443,207.968z"/>
		<path fill="#183225" d="M1041.084,206.378c0.061,0.01,0.12,0.02,0.17,0.03c-0.2,0.2-0.62,0.67-1.21,1.55
			c-2.3-0.19-18.069,8.59-19.62,33.09c-1.54,24.5-2.896,108.01-2.896,108.01c-1.609,16.305-3.71,36.146-6.729,61.75
			c-0.72,5.25-1.066,9.312-0.908,11.74c1,15.5-0.5,138,8,161v0.5h-9v-0.5c-4.422-15.34-6.147-45.08-6.382-80.5c0,0,0-0.01,0-0.02
			c-0.561-84.65,7.399-201.661,7.382-231.48c-0.039-53.62,27.868-64.12,31.183-65.17
			C1041.074,206.368,1041.074,206.368,1041.084,206.378z"/>
		<path fill="#366D50" d="M1020.424,241.048c1.55-24.5,17.32-33.28,19.62-33.09c-2.41,3.64-7.649,14.36-11.92,42.59
			c-5.51,36.44-6.29,54.81-10.601,98.51C1017.523,349.058,1018.884,265.548,1020.424,241.048z"/>
		<path fill="#366D50" d="M1028.884,209.048c5.011-2.28,9-3.08,12.185-2.67c-3.312,1.05-31.225,11.55-31.185,65.17
			c0.021,29.82-7.938,146.83-7.38,231.48c-0.12-1.961-8.13-135.99-9.279-137.98c-1.101-1.92-0.276-46.71-0.026-53.355
			c0-0.08,0.011-0.16,0.011-0.23C997.834,236.698,1009.124,218.028,1028.884,209.048z"/>
		<path fill="#183225" d="M1008.884,583.548v0.5h-7.59v-0.5c0,0-13.82-158.57-16.41-192.5c-1.819-23.729-0.43-28.47-5.229-36.146
			l1.159-0.475c5.312,8.7,10.25,7.44,11.066-15.38c0.354-9.87,0.79-18.97,1.312-27.36c-0.25,6.65-1.069,51.44,0.025,53.36
			c1.15,1.99,9.16,136.021,9.28,137.98c0,0.01,0,0.02,0,0.02C1002.732,538.468,1004.464,568.208,1008.884,583.548z"/>
		<path fill="#366D50" d="M1001.294,583.548v0.5h-6.41c0,0-2.188-15.87-5.355-38.74l0.061-0.01c0,0-13.7-169.25-21.2-180.25
			s-37.55-110.36-37.55-110.36c4.91-7.35,10.83-13.95,16.3-16.63c0.75,6.99,2.23,79.62,21.25,102.49
			c5.62,6.76,9.094,10.86,11.271,14.354c4.801,7.681,3.409,12.42,5.229,36.146C987.474,424.978,1001.294,583.548,1001.294,583.548z"
			/>
		<path fill="#006A12" d="M989.584,545.298l-0.061,0.01c-7.779-56.06-21.439-154.155-23.145-163.51c-3-16.5-50-94.25-45-108.75
			c1.86-5.38,5.3-12.14,9.45-18.36c0,0,30.05,99.36,37.55,110.36S989.584,545.298,989.584,545.298z"/>
		<path fill="#183225" d="M980.812,354.428l-1.159,0.475c-2.185-3.489-5.649-7.595-11.271-14.354
			c-19.02-22.87-20.5-95.5-21.25-102.49c2.37-1.16,4.66-1.58,6.75-1.01c11,3,16.681,91.03,20.5,102.5
			C976.414,345.638,978.645,350.868,980.812,354.428z"/>
	</g>
	<g>
		<path fill="none" stroke="#000000" stroke-width="2" stroke-miterlimit="10" d="M993.193,311.688
			c-0.521,8.395-0.961,17.49-1.312,27.36c-0.818,22.82-5.76,24.08-11.068,15.38c-2.17-3.56-4.396-8.79-6.432-14.88
			c-3.818-11.47-9.5-99.5-20.5-102.5c-2.09-0.57-4.38-0.15-6.75,1.01c-5.47,2.68-11.39,9.28-16.3,16.63
			c-4.15,6.22-7.59,12.98-9.45,18.36c-5,14.5,42,92.25,45,108.75c1.7,9.354,15.36,107.45,23.143,163.51
			c3.172,22.87,5.357,38.74,5.357,38.74h6.41h7.59h9h7.5h4.5c0-8-6.5-110.25,2-120.25s59.5-70.13,56.5-86.63
			c-1.448-7.97-2.54-12.49-6.979-14.851c-1.729-0.925-3.979-1.515-6.96-1.854c-1.819-0.2-3.909-0.31-6.329-0.35
			c-0.562-0.016-1.131-0.016-1.73-0.016c-18.17,0-26.09,22.99-33.5,42.476c-4.025,10.6-18,29.985-18.5,17.985
			c-0.449-10.811,41.5-147.51,40-179.01c-0.738-15.69-2.01-29.02-8.938-33.59c-1.21-0.8-2.604-1.34-4.189-1.56
			c-0.05-0.01-0.105-0.021-0.17-0.03"/>
		<path fill="none" stroke="#000000" stroke-width="2" stroke-miterlimit="10" d="M1041.062,206.378
			c-3.184-0.41-7.174,0.39-12.184,2.67c-19.76,8.98-31.05,27.65-35.68,102.41"/>
		<path fill="none" stroke="#000000" stroke-linejoin="round" stroke-miterlimit="10" d="M1041.384,206.278c0,0,0,0-0.01,0.01
			c-0.01,0.01-0.05,0.05-0.12,0.12c-0.2,0.2-0.62,0.67-1.21,1.55c-2.41,3.64-7.649,14.36-11.92,42.59
			c-5.51,36.44-6.29,54.81-10.601,98.51c-1.609,16.305-3.711,36.146-6.729,61.75"/>
		<path fill="none" stroke="#000000" stroke-linejoin="round" stroke-miterlimit="10" d="M1002.504,503.028
			c-0.561-84.65,7.399-201.661,7.38-231.48c-0.04-53.62,27.87-64.12,31.185-65.17c0.011-0.01,0.011-0.01,0.021,0
			c0.17-0.06,0.271-0.09,0.29-0.09"/>
		<path fill="none" stroke="#000000" stroke-linejoin="round" stroke-miterlimit="10" d="M1008.884,583.548
			c-4.42-15.34-6.146-45.08-6.38-80.5"/>
		<path fill="none" stroke="#000000" stroke-miterlimit="10" d="M1045.443,207.958c0,0,0,0,0,0.01
			c0.101,0.82,4.811,41.52-7.562,84.08c-8.188,28.19-23.18,90.58-27.09,118.76c-0.72,5.25-1.07,9.312-0.91,11.74
			c1,15.5-0.5,138,8,161"/>
		<path fill="none" stroke="#000000" stroke-miterlimit="10" d="M947.134,238.058c0.75,6.99,2.23,79.62,21.25,102.49
			c5.62,6.76,9.09,10.86,11.271,14.354c4.801,7.681,3.409,12.42,5.229,36.146c2.59,33.93,16.41,192.5,16.41,192.5"/>
		<path fill="none" stroke="#000000" stroke-miterlimit="10" d="M930.834,254.688c0,0,30.05,99.36,37.55,110.36
			s21.2,180.25,21.2,180.25"/>
		<path fill="none" stroke="#000000" stroke-linejoin="round" stroke-miterlimit="10" d="M1002.504,503.028c0,0.01,0,0.02,0,0.02"/>
		<path fill="none" stroke="#000000" stroke-miterlimit="10" d="M993.224,311.068c-0.01,0.1-0.01,0.229-0.02,0.39
			c0,0.07-0.011,0.15-0.011,0.23c-0.25,6.646-1.069,51.438,0.025,53.355c1.15,1.99,9.16,136.021,9.28,137.98"/>
		<path fill="none" stroke="#000000" stroke-miterlimit="10" d="M1023.954,467.018c-0.9,3.016-1.57,6.16-2.03,9.53
			c-1.01,7.43-1.439,16.5-1.49,26.18c-0.188,36.15,4.95,80.82,4.95,80.82"/>
		<path fill="none" stroke="#000000" stroke-miterlimit="10" d="M1081.312,362.198c0.026,0.02,0.062,0.06,0.091,0.119
			c0.721,1.315,2.381,12.561-0.091,21.729c-2.934,10.86-6.854,24.38-29.829,45.5c-15.25,14.021-23.609,24.4-27.529,37.46"/>
		<path fill="none" stroke="#000000" stroke-miterlimit="10" d="M1068.403,360.067c-0.079,0-0.171,0.021-0.289,0.051
			c-2.78,0.854-15.921,12.604-21.711,29.93c-6.021,18-17.521,33-22.021,39.5c-4.319,6.24-4,68.18-3.96,73.18c0,0.21,0,0.32,0,0.32"
			/>
		<path fill="none" stroke="#000000" stroke-miterlimit="10" d="M1074.454,360.408c0,0,0,0.02-0.011,0.06
			c-0.189,1.46-3.84,28.771-14.062,39.53c-10.49,11.04-34.14,49.88-36.43,67.01v0.01c-0.014,0.021-0.014,0.03-0.014,0.055"/>
		<path fill="none" stroke="#000000" stroke-miterlimit="10" d="M1040.044,207.958c-2.3-0.19-18.07,8.59-19.62,33.09
			c-1.54,24.5-2.9,108.01-2.9,108.01"/>
	</g>
</g>
<g id="tGroup">
	<g>
		<g id="XMLID_1_">
			<g>
				<path fill="#313131" d="M899.17,537.84c3.5,0,6.33,2.83,6.33,6.33s-2.83,6.33-6.33,6.33s-6.33-2.83-6.33-6.33
					S895.67,537.84,899.17,537.84z"/>
				<polygon fill="#9D9D9D" points="1070,527 1073,546.33 1047.98,547.56 1039,548 1034.67,537.5 1034.64,536.84 1039,536.67 
					1043.73,526.87 1044,527 				"/>
				<path fill="#E40001" d="M1048,513.23l0.33,4.1l-4.6,9.54l-4.73,9.8l-4.36,0.17l-73.97,2.83c0,0-9.67-19.67-10.67-20.34
					l-14.67-18.83l-3.91-0.06c0-0.011-0.01-0.011-0.01-0.011l-63.19-0.899l-1.72-0.03L844,516l-9,38l-80-1v-37h81.67l1.33-6h-83
					v-63.25l49,0.39V459h4v-11.83l56,0.44V459h5v-11.35l55,0.439V459h4v-10.88l111.33,0.88l-2,5l7,13.67l3.41,42.33H959l3,6l86,1
					V513.23z M990,461v-12h-4v12H990z"/>
				<polygon fill="#313131" points="1048,513.23 1048,517 962,516 959,510 1047.74,510 				"/>
				<path fill="#313131" d="M1047.98,547.56L1048,548l-7.5,14l-14-11.5l-15-1.49l-59.41,7.51c0.92-3.96,1.41-8.1,1.41-12.35
					c0-15.13-6.19-28.81-16.17-38.67c-1.84-1.83-3.82-3.52-5.91-5.06l3.91,0.06L950,519.33c1,0.67,10.67,20.34,10.67,20.34
					l73.97-2.83l0.03,0.66L1039,548L1047.98,547.56z"/>
				<rect x="986" y="449" fill="#313131" width="4" height="12"/>
				<path d="M953.5,544.17c0,4.25-0.49,8.39-1.41,12.35c-5.59,24.061-27.17,41.98-52.92,41.98c-2.66,0-5.28-0.19-7.84-0.56
					c-1.28-0.19-2.54-0.421-3.79-0.69s-2.48-0.59-3.7-0.95c-0.01,0-0.01,0-0.02,0c-22.53-6.62-38.98-27.45-38.98-52.13
					c0-18.5,9.25-34.83,23.38-44.64l63.19,0.91h0.01c2.09,1.55,4.07,3.239,5.91,5.06C947.31,515.36,953.5,529.04,953.5,544.17z
					 M929.5,544.17c0-16.75-13.58-30.33-30.33-30.33s-30.33,13.58-30.33,30.33s13.58,30.33,30.33,30.33S929.5,560.92,929.5,544.17z"
					/>
				<path d="M931.42,500.44c2.09,1.54,4.07,3.229,5.91,5.06C935.49,503.68,933.51,501.99,931.42,500.44z"/>
				<path d="M931.41,500.43c0,0,0.01,0,0.01,0.011h-0.01l-63.19-0.91L931.41,500.43z"/>
				<polygon fill="#313131" points="928,448.12 928,459 924,459 924,448.09 				"/>
				<path fill="#313131" d="M899.17,513.84c16.75,0,30.33,13.58,30.33,30.33s-13.58,30.33-30.33,30.33s-30.33-13.58-30.33-30.33
					S882.42,513.84,899.17,513.84z M914.5,544.17c0-8.47-6.86-15.33-15.33-15.33s-15.33,6.86-15.33,15.33s6.86,15.33,15.33,15.33
					S914.5,552.64,914.5,544.17z"/>
				<path d="M899.17,528.84c8.47,0,15.33,6.86,15.33,15.33s-6.86,15.33-15.33,15.33s-15.33-6.86-15.33-15.33
					S890.7,528.84,899.17,528.84z M905.5,544.17c0-3.5-2.83-6.33-6.33-6.33s-6.33,2.83-6.33,6.33s2.83,6.33,6.33,6.33
					S905.5,547.67,905.5,544.17z"/>
				<path fill="#313131" d="M883.82,596.3c-35.82,2.19-49.09-28.02-50.32-34.3l-295.31,2.5c-2.79,3.65-24.15,27.39-60.62,27.98
					c29.35-0.74,52.93-24.771,52.93-54.311c0-18.21-8.97-34.31-22.71-44.17H523l26.33,60h200.13h0.01l0.03,0.5l4.5-1.5v-37h1v37
					l80,1l9-38l22.5-16.5l1.72,0.03c-14.13,9.81-23.38,26.14-23.38,44.64C844.84,568.85,861.29,589.68,883.82,596.3z"/>
				<polygon fill="#313131" points="869,447.65 869,459 864,459 864,447.61 				"/>
				<polygon fill="#313131" points="838,510 836.67,516 755,516 755,510 				"/>
				<polygon fill="#313131" points="808,447.17 808,459 804,459 804,447.14 				"/>
				<polygon points="754,516 754,553 749.5,554.5 749.47,554 750,554 747.6,516 				"/>
				<polygon points="754,510 754,516 747.6,516 747.22,510 				"/>
				<polygon points="754,471 754,510 747.22,510 747.22,509.99 746.41,497.01 746.34,495.93 745,471 				"/>
				<path fill="#E40001" d="M747.42,516l2.04,38H549.33L523,494h-15.21h-63.24h-17.88l-18.4,50.5L407,548h-31.28l-7.76-15.99h19.38
					l-0.57-24.37v-0.01l-0.74-31.85l-0.01-0.011l-15.27-19.5l-0.01-0.01l-0.02-0.029c2.08-0.891,5.44-1.771,9.83-2.62h0.01
					c0.69-0.13,1.41-0.261,2.15-0.4c0,0,0,0,0.01,0c0.99-0.17,2.02-0.35,3.09-0.53c1.62-0.26,3.34-0.52,5.14-0.779
					c0.89-0.12,1.81-0.25,2.75-0.381c0.32-0.039,0.64-0.079,0.96-0.13c0.63-0.08,1.27-0.159,1.92-0.25c0.01,0,0.01,0,0.01,0
					c1.31-0.17,2.65-0.33,4.02-0.5h0.01c0.68-0.08,1.38-0.159,2.08-0.25c0,0,0,0,0.01,0c1.4-0.159,2.84-0.319,4.3-0.489
					c1.84-0.2,3.73-0.4,5.65-0.601c1.54-0.149,3.1-0.31,4.68-0.47c0.01,0,0.01,0,0.01,0c12.31-1.2,26.06-2.33,40.19-3.36
					c0.01,0.011,0.01,0.011,0.01,0c5.47-0.39,11-0.779,16.52-1.149c0.92-0.061,1.84-0.12,2.77-0.181c1.84-0.12,3.67-0.239,5.5-0.359
					c0.01,0,0.01,0,0.01,0c4.59-0.29,9.15-0.57,13.64-0.851c1.81-0.1,3.6-0.21,5.39-0.319c3.55-0.2,7.06-0.41,10.51-0.601
					c1.92,1.431,57.37,42.33,57.37,42.33l1.72,25.66H544l4.33,6h23.39c2,6.08,10.29,31,11.99,31c1.94,0,137.78,1.67,137.78,1.67
					l8.37-32.67H747.42z M413,478v-6h-19v6H413z"/>
				<polygon fill="#313131" points="747.1,510 747.43,516 747.42,516 729.86,516 731.4,510 				"/>
				<polygon points="746.41,497.01 747.22,509.99 746.4,497.01 746.34,495.93 				"/>
				<path fill="#E40001" d="M746.4,497.01L747.1,510H731.4l0.6-2.33v-25.34V475l-9-28.33c0.33-0.67,1.51-68.66,1.51-68.66
					s-0.56-0.02-1.59-0.06c-0.229-0.01-0.479-0.021-0.76-0.03c-0.141,0-0.28-0.01-0.43-0.02c-1.33-0.051-3.091-0.12-5.2-0.19
					c-0.23-0.01-0.471-0.02-0.71-0.03c-0.48-0.02-0.98-0.029-1.5-0.05c-0.511-0.02-1.04-0.04-1.58-0.06
					c-1.63-0.061-3.391-0.12-5.24-0.181v0.011c-20.78-0.681-53.75-1.48-58.04,0.1c-0.16,0.06-0.35,0.15-0.56,0.28
					c-0.21,0.12-0.431,0.27-0.681,0.45c-0.37,0.27-0.779,0.609-1.229,1c-0.3,0.26-0.62,0.55-0.95,0.859
					c-0.34,0.311-0.69,0.65-1.05,1.01c-0.19,0.17-0.37,0.36-0.561,0.561c-0.189,0.18-0.39,0.38-0.58,0.58
					c-9.819,10.04-28.08,33.069-35.42,43c-0.149,0.189-0.29,0.38-0.42,0.56l10.65-30.109l0.02-0.021l14-14.63l-0.01-0.01l-7.33-5.29
					c0,0,0.18-0.12,0.521-0.32c0.17-0.1,0.38-0.229,0.62-0.39c0.13-0.07,0.26-0.15,0.409-0.24c0.28-0.16,0.591-0.35,0.931-0.56
					c0.01,0.01,0.01,0.01,0.01,0c0.35-0.2,0.72-0.41,1.12-0.65c0.01,0.01,0.01,0,0.01,0c0.41-0.23,0.84-0.47,1.29-0.72
					c1.36-0.75,2.93-1.58,4.61-2.391c1.12-0.54,2.279-1.069,3.47-1.58c0.88-0.37,1.78-0.729,2.67-1.06
					c0.52-0.19,1.04-0.37,1.56-0.54c0.171-0.05,0.33-0.1,0.49-0.15c0.42-0.13,0.83-0.25,1.24-0.359c0.14-0.04,0.28-0.08,0.42-0.11
					c1.7-0.439,3.32-0.689,4.76-0.68c8.891,0.06,17.561,0.21,25.79,0.399c1.42,0.03,2.83,0.07,4.23,0.101
					c1.29,0.04,2.569,0.069,3.84,0.109c0.07,0,0.14,0,0.22,0c3.21,0.101,6.34,0.19,9.37,0.301c0.68,0.02,1.36,0.04,2.04,0.06
					c1.16,0.04,2.3,0.08,3.42,0.13c23.37,0.851,39.39,1.88,39.94,1.92L746.4,497.01z"/>
				<polygon fill="#E40001" points="732,482.33 732,507.67 731.4,510 570.98,510 569.26,484.34 				"/>
				<path fill="#E40001" d="M732,475v7.33l-162.74,2.01l-2.34-35.01l26.91-14l0.83,0.13l-0.66,4.21l9.13,1.521L603,442h-6v33h6v-31
					c0,0,119.67,3.33,120,2.67L732,475z M721,463v-4h-27v4H721z"/>
				<path fill="#313131" d="M731.4,510l-1.54,6H571.72c-0.27-0.85-0.43-1.33-0.43-1.33l-0.31-4.67H731.4z"/>
				<path fill="#E40001" d="M729.86,516l-8.37,32.67c0,0-135.84-1.67-137.78-1.67c-1.7,0-9.99-24.92-11.99-31H729.86z"/>
				<path fill="#313131" d="M724.51,378.01c0,0-1.18,67.99-1.51,68.66c-0.33,0.66-120-2.67-120-2.67v-2l0.13-0.81L608,442
					l-2.75-12.07c0,0,0,0,0-0.01c0,0,0,0,0-0.01v-0.01c0.01-0.131,0.27-0.561,0.73-1.25c0.06-0.091,0.119-0.181,0.189-0.271
					c0.07-0.1,0.13-0.189,0.2-0.29c0.07-0.109,0.149-0.229,0.229-0.34c0.16-0.22,0.33-0.45,0.511-0.7c0,0,0,0,0-0.01
					c0.09-0.13,0.189-0.26,0.279-0.39c0.101-0.131,0.2-0.261,0.301-0.4c0,0,0,0,0-0.01c0.1-0.141,0.21-0.28,0.31-0.42v-0.011h0.01
					L686,421v-0.01l21.49-43.58h0.01c1.24,0.04,2.43,0.08,3.57,0.109c0.279,0.011,0.56,0.021,0.84,0.03
					c1.12,0.04,2.18,0.08,3.18,0.11c0.49,0.02,0.98,0.04,1.44,0.05c2.109,0.08,3.87,0.14,5.2,0.19c0.149,0.01,0.289,0.02,0.43,0.02
					c0.28,0.01,0.53,0.021,0.76,0.03C723.95,377.99,724.51,378.01,724.51,378.01z"/>
				<path fill="#313131" d="M722.16,377.92c0.28,0.01,0.53,0.021,0.76,0.03C722.69,377.94,722.44,377.93,722.16,377.92z"/>
				<path fill="#313131" d="M716.53,377.71c2.109,0.07,3.87,0.14,5.2,0.19C720.4,377.85,718.64,377.79,716.53,377.71z"/>
				<path fill="#313131" d="M715.82,377.68c0.239,0.011,0.479,0.021,0.71,0.03c-0.46-0.01-0.95-0.03-1.44-0.05
					C715.33,377.66,715.58,377.67,715.82,377.68z"/>
				<path fill="#313131" d="M715.82,377.68c-0.24-0.01-0.49-0.02-0.73-0.02c-0.25-0.01-0.51-0.021-0.77-0.03
					C714.84,377.65,715.34,377.66,715.82,377.68z"/>
				<path fill="#313131" d="M714.32,377.63c0.26,0.01,0.52,0.021,0.77,0.03c-1-0.03-2.06-0.07-3.18-0.11
					c0.28,0.01,0.56,0.01,0.83,0.021C713.28,377.59,713.81,377.61,714.32,377.63z"/>
				<path fill="#313131" d="M712.74,377.57c-0.271-0.011-0.55-0.011-0.83-0.021s-0.561-0.02-0.84-0.03
					c-1.141-0.039-2.33-0.079-3.57-0.119v-0.011C709.35,377.45,711.11,377.51,712.74,377.57z"/>
				<path fill="#313131" d="M707.5,377.4c1.24,0.04,2.43,0.08,3.57,0.119c-1.141-0.029-2.33-0.069-3.57-0.109V377.4z"/>
				<polygon fill="#9D9D9D" points="707.5,377.4 707.5,377.41 707.49,377.41 				"/>
				<path fill="#9D9D9D" d="M707.5,377.4l-0.01,0.01c-20.78-0.69-53.74-1.48-58.03,0.1c-0.08,0.03-0.17,0.07-0.26,0.11
					c0.09-0.05,0.18-0.09,0.26-0.12C653.75,375.92,686.72,376.72,707.5,377.4z"/>
				<path fill="#9D9D9D" d="M707.49,377.41L686,420.99l-77.98,4.81c0.131-0.18,0.271-0.37,0.41-0.56
					c7.34-9.931,25.601-32.96,35.42-43c0.2-0.2,0.391-0.391,0.58-0.58c0.19-0.19,0.37-0.38,0.561-0.561
					c0.18-0.18,0.359-0.35,0.529-0.52c0.351-0.33,0.69-0.64,1-0.93c0.32-0.29,0.62-0.551,0.91-0.79c0.141-0.11,0.28-0.221,0.41-0.33
					c0.53-0.41,0.98-0.721,1.36-0.91c0.09-0.04,0.18-0.08,0.26-0.11C653.75,375.93,686.71,376.72,707.49,377.41z"/>
				<path fill="#E40001" d="M698.38,367.09c-1.12-0.05-2.26-0.09-3.42-0.13C696.12,367,697.26,367.04,698.38,367.09z"/>
				<polygon fill="#9D9D9D" points="686,420.99 686,421 608.01,425.81 608.01,425.8 608.02,425.8 				"/>
				<path fill="#E40001" d="M692.92,366.9c-3.03-0.11-6.16-0.2-9.37-0.301C686.77,366.69,689.9,366.79,692.92,366.9z"/>
				<path fill="#E40001" d="M683.33,366.6c-1.271-0.04-2.55-0.069-3.84-0.109C680.78,366.52,682.06,366.56,683.33,366.6z"/>
				<path fill="#E40001" d="M675.26,366.39c-8.229-0.189-16.899-0.34-25.79-0.399c-1.439-0.01-3.06,0.24-4.76,0.68
					c1.69-0.439,3.31-0.7,4.75-0.689C658.36,366.04,667.04,366.19,675.26,366.39z"/>
				<path fill="#9D9D9D" d="M648.9,377.78c0.1-0.061,0.199-0.12,0.3-0.16c-0.38,0.189-0.83,0.5-1.36,0.91
					c0.13-0.11,0.26-0.21,0.38-0.3C648.47,378.05,648.69,377.9,648.9,377.78z"/>
				<path fill="#9D9D9D" d="M646.99,379.23c0.149-0.131,0.29-0.25,0.439-0.37c-0.29,0.239-0.59,0.5-0.91,0.79
					C646.68,379.5,646.84,379.36,646.99,379.23z"/>
				<path fill="#9D9D9D" d="M646.04,380.09c0.16-0.149,0.33-0.3,0.479-0.439c-0.31,0.29-0.649,0.6-1,0.93
					C645.7,380.41,645.87,380.25,646.04,380.09z"/>
				<path fill="#E40001" d="M643.05,367.14c0.41-0.14,0.83-0.26,1.24-0.359C643.88,366.89,643.47,367.01,643.05,367.14z"/>
				<path fill="#E40001" d="M641,367.83c0.52-0.19,1.04-0.37,1.56-0.54C642.04,367.46,641.52,367.64,641,367.83z"/>
				<path fill="#E40001" d="M638.33,368.89c0.88-0.38,1.78-0.739,2.67-1.06C640.11,368.16,639.21,368.52,638.33,368.89z"/>
				<path fill="#E40001" d="M634.86,370.47c1.12-0.55,2.279-1.08,3.47-1.58C637.14,369.4,635.98,369.93,634.86,370.47z"/>
				<polygon fill="#E40001" points="632.68,381.04 618.68,395.67 618.66,395.69 618.67,395.66 632.67,381.03 				"/>
				<path fill="#9D9D9D" d="M632.67,381.03l-14,14.63L562.11,434h-12.16c17.56-15.37,62.97-53.44,74.51-58.92l1.39,0.33
					c-0.34,0.2-0.52,0.32-0.52,0.32l0.01,0.01L632.67,381.03z"/>
				<path fill="#E40001" d="M634.86,370.47c-1.681,0.811-3.25,1.641-4.61,2.391C631.61,372.1,633.18,371.28,634.86,370.47z"/>
				<path fill="#E40001" d="M630.25,372.86c-0.45,0.25-0.88,0.489-1.29,0.72C629.37,373.34,629.79,373.1,630.25,372.86z"/>
				<path fill="#E40001" d="M628.95,373.58c-0.4,0.24-0.771,0.45-1.12,0.65C628.18,374.02,628.55,373.8,628.95,373.58z"/>
				<path fill="#E40001" d="M627.82,374.23c-0.34,0.21-0.65,0.399-0.931,0.56C627.17,374.61,627.48,374.43,627.82,374.23z"/>
				<path fill="#E40001" d="M626.48,375.03c-0.24,0.16-0.45,0.29-0.62,0.39c-0.341,0.2-0.521,0.32-0.521,0.32l-0.01-0.01
					c0,0,0.18-0.12,0.52-0.32C626.02,375.3,626.23,375.18,626.48,375.03z"/>
				<polygon fill="#E40001" points="618.67,395.66 618.66,395.69 597.47,417.83 597.46,417.83 				"/>
				<path fill="#313131" d="M618.67,395.66l-21.21,22.17h-0.01v0.01l-20.03,20.93c0,0-0.33,0.011-0.95,0.04
					c-0.21,0.011-0.45,0.021-0.73,0.03c-0.27,0.01-0.58,0.021-0.92,0.04c-0.34,0.01-0.71,0.03-1.11,0.05
					c-0.6,0.021-1.27,0.051-2,0.09c-1.95,0.08-4.37,0.181-7.2,0.32c-0.01,0-0.01,0-0.02,0c-0.7,0.03-1.43,0.061-2.18,0.101
					c-0.38,0.02-0.77,0.04-1.17,0.05c-0.77,0.029-1.57,0.069-2.39,0.109c-0.84,0.04-1.69,0.08-2.57,0.12
					c-0.87,0.04-1.76,0.08-2.68,0.12l7.14-4.84H564v-1h-1.89L618.67,395.66z"/>
				<path fill="#E40001" d="M597.47,417.83l21.19-22.14L608.01,425.8l-0.01,0.01c-0.11,0.141-0.21,0.28-0.31,0.421
					c0,0.01,0,0.01,0,0.01c-0.11,0.14-0.21,0.27-0.301,0.399c0,0.011,0,0.011,0,0.011c-0.1,0.14-0.189,0.26-0.279,0.39
					c0,0.01,0,0.01,0,0.01c-0.19,0.25-0.36,0.48-0.511,0.7c-0.08,0.11-0.159,0.23-0.229,0.34c-0.07,0.09-0.14,0.19-0.2,0.29
					c-0.07,0.09-0.13,0.18-0.189,0.271c-0.461,0.689-0.721,1.119-0.73,1.25L603,420l-5.53-2.16V417.83z"/>
				<path fill="#9D9D9D" d="M608.43,425.24c-0.14,0.189-0.279,0.38-0.41,0.56h-0.01C608.14,425.62,608.28,425.43,608.43,425.24z"/>
				<polygon fill="#9D9D9D" points="608.01,425.8 608.01,425.81 608,425.81 				"/>
				<path fill="#E40001" d="M608,425.81v0.011c-0.11,0.14-0.21,0.279-0.31,0.41C607.79,426.09,607.89,425.95,608,425.81z"/>
				<path fill="#313131" d="M608,425.82c-0.1,0.14-0.21,0.279-0.31,0.42c0,0,0,0,0-0.01C607.79,426.1,607.89,425.96,608,425.82z"/>
				<path fill="#E40001" d="M607.69,426.24c0,0.01,0,0.01,0,0.01c-0.11,0.14-0.2,0.27-0.301,0.39
					C607.48,426.51,607.58,426.38,607.69,426.24z"/>
				<path fill="#313131" d="M607.69,426.25c-0.101,0.14-0.2,0.27-0.301,0.4c0,0,0,0,0-0.011
					C607.49,426.52,607.58,426.39,607.69,426.25z"/>
				<path fill="#E40001" d="M607.39,426.65c-0.09,0.13-0.189,0.26-0.279,0.39C607.2,426.91,607.29,426.79,607.39,426.65z"/>
				<path fill="#E40001" d="M606.6,427.75c0.15-0.22,0.32-0.45,0.511-0.7C606.93,427.3,606.76,427.53,606.6,427.75z"/>
				<path fill="#313131" d="M606.37,428.09c-0.07,0.101-0.13,0.19-0.2,0.29C606.23,428.28,606.3,428.18,606.37,428.09z"/>
				<path fill="#E40001" d="M606.17,428.38c-0.07,0.09-0.13,0.18-0.189,0.271C606.04,428.56,606.1,428.47,606.17,428.38z"/>
				<polygon fill="#313131" points="603,444 603,475 597,475 597,442 603,442 				"/>
				<path fill="#E40001" d="M597.45,417.84v0.021l-20.02,20.92c0,0-4.79,0.2-12.92,0.56c2.83-0.14,5.25-0.24,7.2-0.32
					c0.73-0.029,1.4-0.06,2-0.09c0.4-0.02,0.77-0.029,1.11-0.05c0.34-0.02,0.65-0.03,0.92-0.04c0.28-0.01,0.52-0.02,0.73-0.03
					c0.62-0.029,0.95-0.04,0.95-0.04L597.45,417.84z"/>
				<path fill="#E40001" d="M577.43,438.78l20.02-20.92l-2.79,17.6l-0.83-0.13l-26.91,14l2.34,35.01c0,0-55.45-40.899-57.37-42.33
					c8.47-0.47,16.54-0.91,23.94-1.29c0.01,0,0.01,0,0.01,0c2.47-0.12,4.86-0.239,7.17-0.35c3.74-0.19,7.25-0.36,10.5-0.521
					c0.91-0.04,1.8-0.09,2.67-0.13c0.88-0.04,1.73-0.08,2.57-0.12c0.82-0.029,1.62-0.069,2.39-0.109c0.4-0.01,0.79-0.03,1.17-0.05
					c0.75-0.03,1.48-0.061,2.18-0.101c0.01,0,0.01,0,0.02,0C572.64,438.98,577.43,438.78,577.43,438.78z"/>
				<path fill="#E40001" d="M575.74,438.84c0.28-0.01,0.52-0.02,0.73-0.03C576.26,438.82,576.02,438.83,575.74,438.84z"/>
				<path fill="#E40001" d="M573.71,438.93c0.4-0.02,0.77-0.04,1.11-0.05C574.48,438.9,574.11,438.91,573.71,438.93z"/>
				<path fill="#E40001" d="M571.71,439.02c0.73-0.039,1.4-0.069,2-0.09C573.11,438.96,572.44,438.99,571.71,439.02z"/>
				<path fill="#313131" d="M571.72,516h-23.39l-4.33-6h26.98l0.31,4.67C571.29,514.67,571.45,515.15,571.72,516z"/>
				<path fill="#E40001" d="M564.49,439.34c-0.7,0.04-1.43,0.07-2.18,0.101C563.06,439.4,563.79,439.37,564.49,439.34z"/>
				<path fill="#9D9D9D" d="M560.64,435l-7.14,4.84c-3.25,0.16-6.76,0.33-10.5,0.521v-0.011c0.07-0.1,0.26-0.3,0.55-0.58
					c0.15-0.149,0.32-0.31,0.52-0.5c0.99-0.93,2.62-2.39,4.75-4.27H560.64z"/>
				<path fill="#E40001" d="M561.14,439.49c-0.77,0.04-1.57,0.08-2.39,0.109C559.57,439.56,560.37,439.52,561.14,439.49z"/>
				<path fill="#E40001" d="M556.18,439.72c-0.87,0.04-1.76,0.09-2.67,0.13c-3.25,0.16-6.76,0.33-10.5,0.521
					c-2.31,0.11-4.7,0.229-7.17,0.35c2.46-0.13,4.85-0.25,7.16-0.359c3.74-0.19,7.25-0.36,10.5-0.521
					C554.42,439.8,555.31,439.76,556.18,439.72z"/>
				<path fill="#9D9D9D" d="M544.07,439.27c-0.2,0.19-0.37,0.351-0.52,0.5C543.7,439.62,543.87,439.46,544.07,439.27z"/>
				<path fill="#E40001" d="M535.83,440.72c-7.4,0.38-15.47,0.82-23.94,1.29c-0.01-0.01-0.01-0.01-0.01-0.01
					C520.36,441.53,528.43,441.09,535.83,440.72z"/>
				<path d="M507.79,494c13.74,9.86,22.71,25.96,22.71,44.17c0,29.54-23.58,53.57-52.93,54.311c-0.46,0.02-0.94,0.02-1.4,0.02
					c-27.2,0-49.72-19.97-53.7-46.05c-0.42-2.7-0.63-5.47-0.63-8.28c0-18.21,8.96-34.31,22.71-44.17H507.79z M506.5,538.17
					c0-16.75-13.58-30.33-30.33-30.33s-30.33,13.58-30.33,30.33s13.58,30.33,30.33,30.33S506.5,554.92,506.5,538.17z"/>
				<path fill="#E40001" d="M511.88,442c0,0,0,0,0.01,0.01c-3.45,0.19-6.96,0.4-10.51,0.601C504.93,442.4,508.44,442.19,511.88,442z
					"/>
				<path fill="#313131" d="M476.17,507.84c16.75,0,30.33,13.58,30.33,30.33s-13.58,30.33-30.33,30.33s-30.33-13.58-30.33-30.33
					S459.42,507.84,476.17,507.84z M491.5,538.17c0-8.47-6.86-15.33-15.33-15.33c-8.47,0-15.33,6.86-15.33,15.33
					s6.86,15.33,15.33,15.33C484.64,553.5,491.5,546.64,491.5,538.17z"/>
				<path d="M476.17,522.84c8.47,0,15.33,6.86,15.33,15.33s-6.86,15.33-15.33,15.33c-8.47,0-15.33-6.86-15.33-15.33
					S467.7,522.84,476.17,522.84z M482.5,538.17c0-3.5-2.83-6.33-6.33-6.33s-6.33,2.83-6.33,6.33s2.83,6.33,6.33,6.33
					S482.5,541.67,482.5,538.17z"/>
				<path fill="#E40001" d="M495.99,442.93c-4.49,0.28-9.05,0.561-13.64,0.851C486.94,443.48,491.5,443.2,495.99,442.93z"/>
				<path fill="#313131" d="M476.17,531.84c3.5,0,6.33,2.83,6.33,6.33s-2.83,6.33-6.33,6.33s-6.33-2.83-6.33-6.33
					S472.67,531.84,476.17,531.84z"/>
				<path fill="#E40001" d="M482.34,443.78c-1.83,0.12-3.66,0.239-5.5,0.359C478.68,444.01,480.51,443.89,482.34,443.78z"/>
				<path fill="#E40001" d="M474.07,444.32c-5.52,0.37-11.05,0.76-16.52,1.149C463.02,445.07,468.55,444.69,474.07,444.32z"/>
				<path fill="#313131" d="M426.67,494h17.88c-13.75,9.86-22.71,25.96-22.71,44.17c0,2.811,0.21,5.58,0.63,8.28l-0.63,0.05
					l-13.57-2L426.67,494z"/>
				<path fill="#E40001" d="M457.54,445.47c-14.13,1.03-27.88,2.16-40.19,3.36C429.66,447.62,443.41,446.5,457.54,445.47z"/>
				<path fill="#E40001" d="M417.34,448.83c-1.58,0.16-3.14,0.32-4.68,0.47C414.2,449.14,415.76,448.98,417.34,448.83z"/>
				<path fill="#E40001" d="M407.01,449.9c-1.46,0.17-2.9,0.33-4.3,0.489C404.11,450.22,405.55,450.06,407.01,449.9z"/>
				<path fill="#E40001" d="M402.7,450.39c-0.7,0.091-1.4,0.17-2.08,0.25C401.3,450.55,402,450.47,402.7,450.39z"/>
				<path fill="#E40001" d="M400.61,450.64c-1.37,0.17-2.71,0.33-4.02,0.5C397.9,450.97,399.24,450.8,400.61,450.64z"/>
				<path fill="#E40001" d="M396.58,451.14c-0.65,0.091-1.29,0.17-1.92,0.25C395.29,451.3,395.93,451.22,396.58,451.14z"/>
				<path fill="#E40001" d="M393.7,451.52c-0.94,0.131-1.86,0.261-2.75,0.381C391.84,451.77,392.76,451.64,393.7,451.52z"/>
				<polygon fill="#E40001" points="386.77,507.64 387.34,532.01 367.96,532.01 367.95,532.01 367.95,532 387.33,532 386.76,507.63 
					386.77,507.63 				"/>
				<polygon fill="#313131" points="367.95,532 359,532 354,527.67 354,506 361.08,503 364.54,501.67 364.67,501.67 386.76,507.63 
					387.33,532 				"/>
				<polygon fill="#E40001" points="386.03,475.78 386.77,507.63 386.76,507.63 386.02,475.77 				"/>
				<polygon fill="#9D9D9D" points="386.02,475.77 386.76,507.63 364.67,501.67 364.54,501.67 370.65,456.33 370.74,456.26 
					370.75,456.27 				"/>
				<path fill="#E40001" d="M385.81,452.68c-1.07,0.181-2.1,0.36-3.09,0.53C383.71,453.03,384.74,452.85,385.81,452.68z"/>
				<path fill="#E40001" d="M382.71,453.21c-0.74,0.14-1.46,0.271-2.15,0.4C381.25,453.47,381.97,453.34,382.71,453.21z"/>
				<path fill="#E40001" d="M380.55,453.61c-4.39,0.85-7.75,1.729-9.83,2.62l-0.01-0.011C372.79,455.33,376.16,454.45,380.55,453.61
					z"/>
			</g>
			<g>
				<polyline fill="none" stroke="#000000" stroke-width="3" stroke-miterlimit="10" points="386.77,507.63 386.76,507.63 
					364.67,501.67 				"/>
				<rect x="394" y="472" fill="none" stroke="#000000" stroke-width="3" stroke-miterlimit="10" width="19" height="6"/>
				<polygon fill="none" stroke="#000000" stroke-width="3" stroke-miterlimit="10" points="603,442 597,442 597,475 603,475 
					603,444 				"/>
				<polyline fill="none" stroke="#000000" stroke-width="3" stroke-miterlimit="10" points="597.45,417.84 597.45,417.86 
					594.66,435.46 594,439.67 603.13,441.19 608,442 605.25,429.93 				"/>
				<line fill="none" stroke="#000000" stroke-width="3" stroke-miterlimit="10" x1="597.47" y1="417.83" x2="597.46" y2="417.83"/>
				<polyline fill="none" stroke="#000000" stroke-width="3" stroke-miterlimit="10" points="605.25,429.9 603,420 597.47,417.84 
									"/>
				<path fill="none" stroke="#000000" stroke-width="3" stroke-miterlimit="10" d="M624.46,375.08
					c-11.54,5.479-56.95,43.55-74.51,58.92c-0.4,0.35-0.77,0.68-1.13,1c-2.13,1.88-3.76,3.34-4.75,4.27
					c-0.2,0.19-0.37,0.351-0.52,0.5c-0.29,0.28-0.48,0.48-0.55,0.58"/>
				<path fill="none" stroke="#000000" stroke-width="3" stroke-miterlimit="10" d="M608,425.81v0.011
					c-0.1,0.14-0.21,0.279-0.31,0.42c0,0.01,0,0.01,0,0.01c-0.101,0.14-0.2,0.27-0.301,0.4c-0.09,0.13-0.189,0.26-0.279,0.39
					c0,0.01,0,0.01,0,0.01c-0.181,0.25-0.351,0.48-0.511,0.7c-0.08,0.11-0.159,0.23-0.229,0.34c-0.07,0.101-0.13,0.19-0.2,0.29
					c-0.07,0.09-0.13,0.18-0.189,0.271c-0.461,0.689-0.721,1.119-0.73,1.25v0.01c0,0.01,0,0.01,0,0.01c0,0.01,0,0.01,0,0.01"/>
				<path fill="none" stroke="#000000" stroke-width="3" stroke-miterlimit="10" d="M707.49,377.41
					c-20.78-0.69-53.74-1.48-58.03,0.1c-0.08,0.03-0.17,0.07-0.26,0.11c-0.38,0.189-0.83,0.5-1.36,0.91
					c-0.13,0.109-0.27,0.22-0.41,0.33c-0.29,0.239-0.59,0.5-0.91,0.79c-0.31,0.29-0.649,0.6-1,0.93c-0.17,0.17-0.35,0.34-0.529,0.52
					c-0.19,0.181-0.37,0.37-0.561,0.561c-0.189,0.189-0.38,0.38-0.58,0.58c-9.819,10.04-28.08,33.069-35.42,43
					c-0.14,0.189-0.279,0.38-0.41,0.56h-0.01v0.01"/>
				<path fill="none" stroke="#000000" stroke-width="3" stroke-miterlimit="10" d="M603,444c0,0,119.67,3.33,120,2.67
					c0.33-0.67,1.51-68.66,1.51-68.66s-0.56-0.02-1.59-0.06c-0.229-0.01-0.479-0.021-0.76-0.03c-0.141,0-0.28-0.01-0.43-0.02
					c-1.33-0.051-3.091-0.11-5.2-0.19c-0.46-0.01-0.95-0.03-1.44-0.05c-1-0.03-2.06-0.07-3.18-0.11c-0.28-0.01-0.561-0.02-0.84-0.03
					c-1.141-0.029-2.33-0.069-3.57-0.109"/>
				<path fill="none" stroke="#000000" stroke-width="3" stroke-miterlimit="10" d="M593.83,435.33l-26.91,14l2.34,35.01l1.72,25.66
					l0.31,4.67c0,0,0.16,0.48,0.43,1.33c2,6.08,10.29,31,11.99,31c1.94,0,137.78,1.67,137.78,1.67l8.37-32.67l1.54-6l0.6-2.33
					v-25.34V475l-9-28.33"/>
				<path fill="none" stroke="#000000" stroke-width="3" stroke-miterlimit="10" d="M511.88,442c0,0,0,0,0.01,0.01
					c1.92,1.431,57.37,42.33,57.37,42.33L732,482.33"/>
				<rect x="694" y="459" fill="none" stroke="#000000" stroke-width="3" stroke-miterlimit="10" width="27" height="4"/>
				<polygon fill="none" stroke="#000000" stroke-width="3" stroke-miterlimit="10" points="808,447.17 808,447 804,447 804,447.14 
					804,459 808,459 				"/>
				<polygon fill="none" stroke="#000000" stroke-width="3" stroke-miterlimit="10" points="869,447.65 869,447 864,447 864,447.61 
					864,459 869,459 				"/>
				<polygon fill="none" stroke="#000000" stroke-width="3" stroke-miterlimit="10" points="928,448.12 928,448 924,448 924,448.09 
					924,459 928,459 				"/>
				<rect x="986" y="449" fill="none" stroke="#000000" stroke-width="3" stroke-miterlimit="10" width="4" height="12"/>
				<polygon fill="none" stroke="#000000" stroke-width="3" stroke-miterlimit="10" points="755,516 836.67,516 838,510 755,510 
					754,510 747.22,510 747.1,510 731.4,510 570.98,510 544,510 548.33,516 571.72,516 729.86,516 747.42,516 747.43,516 747.6,516 
					754,516 				"/>
				<polygon fill="none" stroke="#000000" stroke-width="3" stroke-miterlimit="10" points="1048,513.23 1048,510 1047.74,510 
					959,510 962,516 1048,517 				"/>
				<polyline fill="none" stroke="#000000" stroke-width="3" stroke-miterlimit="10" points="1034.67,537.5 1039,548 
					1047.98,547.56 1073,546.33 1070,527 1044,527 				"/>
				<polygon fill="none" stroke="#000000" stroke-width="3" stroke-miterlimit="10" points="560.64,435 564,435 564,434 562.11,434 
					549.95,434 543,434 543,435 548.82,435 				"/>
				<path fill="none" stroke="#000000" stroke-width="3" stroke-miterlimit="10" d="M530,486.5c-31.55-29.29-102-12.84-102-7.32"/>
				<path fill="none" stroke="#000000" stroke-width="3" stroke-miterlimit="10" d="M950,500.5c-31.55-29.29-102-12.84-102-7.32"/>
				<path fill="none" stroke="#000000" stroke-width="3" stroke-miterlimit="10" d="M477.57,592.48
					c29.35-0.74,52.93-24.771,52.93-54.311c0-18.21-8.97-34.31-22.71-44.17"/>
				<path fill="none" stroke="#000000" stroke-width="3" stroke-miterlimit="10" d="M444.55,494
					c-13.75,9.86-22.71,25.96-22.71,44.17c0,2.811,0.21,5.58,0.63,8.28c3.98,26.08,26.5,46.05,53.7,46.05"/>
				<polyline fill="none" stroke="#000000" stroke-width="3" stroke-miterlimit="10" points="367.95,532.01 359,532.01 354,527.68 
					354,527.67 354,506 361.08,503 364.54,501.67 370.65,456.33 				"/>
				<path fill="none" stroke="#000000" stroke-width="3" stroke-miterlimit="10" d="M367.96,532.01l7.76,15.99H407l1.27-3.5
					l18.4-50.5h17.88h63.24H523l26.33,60h200.13h0.01H750l-2.4-38l-0.38-6v-0.01l-0.81-12.98l-0.07-1.08l-8.01-126.92
					c0,0,0,0-0.01,0c-0.551-0.04-16.57-1.069-39.94-1.92c-1.12-0.05-2.26-0.09-3.42-0.13c-0.68-0.02-1.36-0.04-2.04-0.06
					c-3.03-0.11-6.16-0.2-9.37-0.301c-0.08,0-0.149,0-0.22,0c-1.271-0.04-2.55-0.069-3.84-0.109c-1.4-0.03-2.811-0.07-4.23-0.101
					c-8.229-0.189-16.899-0.34-25.79-0.399c-1.439-0.01-3.06,0.24-4.76,0.68c-0.14,0.03-0.28,0.07-0.42,0.11
					c-0.41,0.109-0.82,0.229-1.24,0.359c-0.16,0.051-0.319,0.101-0.49,0.15c-0.52,0.17-1.04,0.35-1.56,0.54
					c-0.89,0.33-1.79,0.689-2.67,1.06c-1.19,0.511-2.35,1.04-3.47,1.58c-1.681,0.811-3.25,1.641-4.61,2.391
					c-0.45,0.25-0.88,0.489-1.29,0.72c0,0,0,0.01-0.01,0c-0.4,0.24-0.771,0.45-1.12,0.65c0,0.01,0,0.01-0.01,0
					c-0.34,0.21-0.65,0.399-0.931,0.56c-0.149,0.09-0.279,0.17-0.409,0.24c-0.24,0.16-0.45,0.29-0.62,0.39
					c-0.341,0.2-0.521,0.32-0.521,0.32l7.33,5.29l0.01,0.01l-14,14.63l-0.02,0.021l-21.19,22.14v0.01h-0.01v0.01l-0.01,0.011
					l-20.02,20.92c0,0-4.79,0.2-12.92,0.56c-0.01,0-0.01,0-0.02,0c-0.7,0.04-1.43,0.07-2.18,0.101c-0.38,0.02-0.77,0.04-1.17,0.05
					c-0.77,0.04-1.57,0.08-2.39,0.109c-0.84,0.04-1.69,0.08-2.57,0.12c-0.87,0.04-1.76,0.09-2.67,0.13
					c-3.25,0.16-6.76,0.33-10.5,0.521c-2.31,0.11-4.7,0.229-7.17,0.35c0,0,0,0-0.01,0c-7.4,0.38-15.47,0.82-23.94,1.29
					c-3.45,0.19-6.96,0.4-10.51,0.601c-1.79,0.109-3.58,0.22-5.39,0.319c-4.49,0.28-9.05,0.561-13.64,0.851c0,0,0,0-0.01,0
					c-1.83,0.12-3.66,0.239-5.5,0.359c-0.93,0.061-1.85,0.12-2.77,0.181c-5.52,0.37-11.05,0.76-16.52,1.149c0,0.011,0,0.011-0.01,0
					c-14.13,1.03-27.88,2.16-40.19,3.36c0,0,0,0-0.01,0c-1.58,0.16-3.14,0.32-4.68,0.47c-1.92,0.2-3.81,0.4-5.65,0.601
					c-1.46,0.17-2.9,0.33-4.3,0.489c-0.01,0-0.01,0-0.01,0c-0.7,0.091-1.4,0.17-2.08,0.25h-0.01c-1.37,0.17-2.71,0.33-4.02,0.5
					c0,0,0,0-0.01,0c-0.65,0.091-1.29,0.17-1.92,0.25c-0.32,0.051-0.64,0.091-0.96,0.13c-0.94,0.131-1.86,0.261-2.75,0.381
					c-1.8,0.26-3.52,0.52-5.14,0.779c-1.07,0.181-2.1,0.36-3.09,0.53c-0.01,0-0.01,0-0.01,0c-0.74,0.14-1.46,0.271-2.15,0.4h-0.01
					c-4.39,0.85-7.75,1.729-9.83,2.62l0.02,0.029l0.01,0.01l15.27,19.5l0.01,0.011l0.74,31.85v0.01l0.57,24.37H367.96"/>
				<line fill="none" stroke="#000000" stroke-width="3" stroke-miterlimit="10" x1="367.96" y1="532.01" x2="367.95" y2="532.01"/>
				<polyline fill="none" stroke="#000000" stroke-width="3" stroke-miterlimit="10" points="367.67,531.42 367.95,532 
					367.95,532.01 				"/>
				<path fill="none" stroke="#000000" stroke-width="3" stroke-miterlimit="10" d="M476.17,522.84c-8.47,0-15.33,6.86-15.33,15.33
					s6.86,15.33,15.33,15.33c8.47,0,15.33-6.86,15.33-15.33S484.64,522.84,476.17,522.84z"/>
				<path fill="none" stroke="#000000" stroke-width="3" stroke-miterlimit="10" d="M482.5,538.17c0-3.5-2.83-6.33-6.33-6.33
					s-6.33,2.83-6.33,6.33s2.83,6.33,6.33,6.33S482.5,541.67,482.5,538.17z"/>
				<path fill="none" stroke="#000000" stroke-width="3" stroke-miterlimit="10" d="M883.84,596.3c1.22,0.36,2.45,0.681,3.7,0.95
					s2.51,0.51,3.79,0.69c2.56,0.369,5.18,0.56,7.84,0.56c25.75,0,47.33-17.92,52.92-41.98c0.92-3.96,1.41-8.1,1.41-12.35
					c0-15.13-6.19-28.81-16.17-38.67c-1.84-1.82-3.82-3.51-5.91-5.06"/>
				<path fill="none" stroke="#000000" stroke-width="3" stroke-miterlimit="10" d="M868.22,499.53
					c-14.13,9.81-23.38,26.14-23.38,44.64c0,24.68,16.45,45.51,38.98,52.13"/>
				<circle fill="none" stroke="#000000" stroke-width="3" stroke-miterlimit="10" cx="899.17" cy="544.17" r="30.33"/>
				<path fill="none" stroke="#000000" stroke-width="3" stroke-miterlimit="10" d="M899.17,528.84c-8.47,0-15.33,6.86-15.33,15.33
					s6.86,15.33,15.33,15.33s15.33-6.86,15.33-15.33S907.64,528.84,899.17,528.84z"/>
				<path fill="none" stroke="#000000" stroke-width="3" stroke-miterlimit="10" d="M905.5,544.17c0-3.5-2.83-6.33-6.33-6.33
					s-6.33,2.83-6.33,6.33s2.83,6.33,6.33,6.33S905.5,547.67,905.5,544.17z"/>
				<path fill="none" stroke="#000000" stroke-width="3" stroke-miterlimit="10" d="M755,445v1.75V510v6v37l80,1l9-38l22.5-16.5
					l1.72,0.03l63.19,0.91h0.01l3.91,0.06L950,519.33c1,0.67,10.67,20.34,10.67,20.34l73.97-2.83l4.36-0.17l4.73-9.8l4.6-9.54
					l-0.33-4.1l-0.26-3.23l-3.41-42.33l-7-13.67l2-5L928,448.12l-4-0.03l-55-0.439l-5-0.04l-56-0.44l-4-0.03l-49-0.39"/>
				<line fill="none" stroke="#000000" stroke-width="3" stroke-miterlimit="10" x1="408.27" y1="544.5" x2="421.84" y2="546.5"/>
				<path fill="none" stroke="#000000" stroke-width="3" stroke-miterlimit="10" d="M833.5,562l-295.31,2.5
					c-2.79,3.65-24.15,27.39-60.62,27.98c-0.46,0.02-0.94,0.02-1.4,0.02"/>
				<path fill="none" stroke="#000000" stroke-width="3" stroke-miterlimit="10" d="M833.5,562c1.23,6.28,14.5,36.49,50.32,34.3
					c0.01,0,0.01,0,0.02,0"/>
				<polyline fill="none" stroke="#000000" stroke-width="3" stroke-miterlimit="10" points="952.09,556.52 1011.5,549.01 
					1026.5,550.5 1040.5,562 1048,548 				"/>
				<polygon fill="none" stroke="#000000" stroke-width="3" stroke-miterlimit="10" points="749.47,554 749.5,554.5 754,553 
					754,516 754,510 754,471 745,471 746.34,495.93 746.4,497.01 747.1,510 747.43,516 				"/>
				<polyline fill="none" stroke="#000000" stroke-width="3" stroke-miterlimit="10" points="553.5,439.84 560.64,435 562.11,434 
					618.67,395.66 618.66,395.69 608.01,425.8 608,425.81 608.01,425.81 686,421 686,420.99 707.49,377.41 707.5,377.41 
					707.5,377.4 707.5,377.39 				"/>
			</g>
		</g>
	</g>
</g>
<path id="clGroup" fill="#BFDFFF" d="M265.902,91.5H75.91c-0.591-3-0.91-5.113-0.91-7.675C75,66.882,88.735,52.9,105.677,52.9
	c5.075,0,9.858,1.244,14.075,3.426c7.518-10.292,19.671-16.977,33.394-16.977c5.417,0,10.584,1.068,15.325,2.962
	c7.872-8.182,18.925-13.249,31.175-13.249c16.966,0,31.643,9.833,38.735,24.049c15.893,1.151,28.432,14.525,28.432,30.711
	C266.812,86.385,266.493,88.5,265.902,91.5z M498.656,148.701c-1.123,0-2.224,0.068-3.312,0.196
	c-7.298-19.218-25.875-32.89-47.652-32.89c-18.819,0-35.245,10.205-44.071,25.377c-4.365-3.373-9.837-5.385-15.78-5.385
	c-14.271,0-25.84,11.568-25.84,25.84c0,1.069,0.072,2.122,0.199,3.157c-1.712-0.412-3.492-0.646-5.33-0.646
	c-12.631,0-22.869,10.552-22.869,23.183c0,0.221,0.027,0.966,0.033,0.966h190.429c1.47-4,2.291-7.475,2.291-11.42
	C526.753,161.562,514.174,148.701,498.656,148.701z M1160.391,184.726c0-16.213-13.143-29.363-29.355-29.363
	c-0.154,0-0.307,0.006-0.46,0.008c-6.508-8.902-17.023-14.691-28.896-14.691c-6.481,0-12.555,1.731-17.798,4.745
	c-8.403-11.754-22.152-19.424-37.703-19.424c-25.586,0-46.327,20.741-46.327,46.327c0,0.217,0.014,0.43,0.017,0.645
	c-0.907-0.118-1.83-0.187-2.769-0.187c-11.652,0-21.1,9.461-21.1,21.114c0,1.576,0.179,3.601,0.506,4.601h180.461
	C1159.149,194.5,1160.391,189.699,1160.391,184.726z M825.646,127.516c0-11.218-7.455-20.815-17.68-23.87
	c0.001-0.134,0.01-0.328,0.01-0.463c0-27.128-21.991-49.152-49.12-49.152c-16.785,0-31.595,8.408-40.456,21.253
	c-0.053,0-0.105-0.012-0.159-0.012c-17.62,0-32.448,11.906-36.901,28.111c-0.455-0.027-0.912-0.047-1.374-0.047
	c-12.684,0-22.966,10.775-22.966,23.761c0,0.387,0.01,0.404,0.029,1.404h168.599C825.635,127.5,825.646,127.762,825.646,127.516z
	 M-932.188,81.823c0-16.186-12.539-29.56-28.432-30.711c-7.092-14.216-21.769-24.049-38.735-24.049
	c-12.25,0-23.303,5.067-31.175,13.249c-4.741-1.895-9.908-2.962-15.325-2.962c-13.722,0-25.876,6.684-33.394,16.977
	c-4.217-2.182-9-3.426-14.075-3.426c-16.942,0-30.677,13.982-30.677,30.925c0,2.562,0.319,4.675,0.91,7.675h189.992
	C-932.507,86.5-932.188,84.385-932.188,81.823z M-700.344,146.701c-1.123,0-2.224,0.068-3.312,0.196
	c-7.298-19.218-25.875-32.89-47.652-32.89c-18.819,0-35.245,10.205-44.071,25.377c-4.365-3.373-9.837-5.385-15.78-5.385
	c-14.271,0-25.84,11.568-25.84,25.84c0,1.069,0.072,2.122,0.199,3.157c-1.712-0.412-3.492-0.646-5.33-0.646
	c-12.631,0-22.869,10.552-22.869,23.183c0,0.221,0.027,0.966,0.033,0.966h190.429c1.47-4,2.291-7.475,2.291-11.42
	C-672.247,159.562-684.826,146.701-700.344,146.701z M-38.609,182.726c0-16.213-13.143-29.363-29.355-29.363
	c-0.154,0-0.307,0.006-0.46,0.008c-6.508-8.902-17.023-14.691-28.896-14.691c-6.481,0-12.555,1.731-17.798,4.745
	C-123.521,131.67-137.271,124-152.821,124c-25.586,0-46.327,20.741-46.327,46.327c0,0.217,0.014,0.43,0.017,0.645
	c-0.907-0.118-1.83-0.187-2.769-0.187c-11.652,0-21.1,9.461-21.1,21.114c0,1.576,0.179,3.601,0.506,4.601h180.461
	C-39.851,192.5-38.609,187.699-38.609,182.726z M-373.354,125.516c0-11.218-7.455-20.815-17.68-23.87
	c0.001-0.134,0.01-0.328,0.01-0.463c0-27.128-21.991-49.152-49.12-49.152c-16.785,0-31.595,8.408-40.456,21.253
	c-0.053,0-0.105-0.012-0.159-0.012c-17.62,0-32.448,11.906-36.901,28.111c-0.455-0.027-0.912-0.047-1.374-0.047
	c-12.684,0-22.966,10.775-22.966,23.761c0,0.387,0.01,0.404,0.029,1.404h168.599C-373.365,125.5-373.354,125.762-373.354,125.516z"
	/>
</svg>
