<?xml version="1.0" encoding="utf-8"?>
<!-- Generator: Adobe Illustrator 16.0.0, SVG Export Plug-In . SVG Version: 6.00 Build 0)  -->
<!DOCTYPE svg PUBLIC "-//W3C//DTD SVG 1.1//EN" "http://www.w3.org/Graphics/SVG/1.1/DTD/svg11.dtd">
<svg version="1.1" id="truck" xmlns="http://www.w3.org/2000/svg" xmlns:xlink="http://www.w3.org/1999/xlink" x="0px" y="0px"
	 width="1200px" height="700px" viewBox="0 0 1200 700" enable-background="new 0 0 1200 700" xml:space="preserve">
<g id="cGroup">
	<g>
		<path fill="#006A12" d="M1023.954,467.018v-0.01c3.92-13.06,12.279-23.44,27.529-37.46c22.98-21.12,26.9-34.64,29.83-45.5
			c2.471-9.17,0.811-20.41,0.09-21.73c4.44,2.36,5.53,6.881,6.98,14.851c3,16.5-48,76.63-56.5,86.63s-2,112.25-2,120.25h-4.5v-0.5
			c0,0-5.14-44.67-4.95-80.82c0.05-9.68,0.48-18.75,1.49-26.18C1022.384,473.178,1023.054,470.028,1023.954,467.018z"/>
		<path fill="#183225" d="M1081.403,362.317c0.721,1.32,2.381,12.561-0.09,21.73c-2.93,10.86-6.85,24.38-29.83,45.5
			c-15.25,14.02-23.609,24.4-27.529,37.46c2.29-17.13,25.939-55.97,36.43-67.01c10.22-10.76,13.87-38.07,14.06-39.53
			C1077.424,360.808,1079.674,361.397,1081.403,362.317z"/>
		<path fill="#006A12" d="M1074.443,360.468c-0.189,1.46-3.84,28.771-14.06,39.53c-10.49,11.04-34.14,49.88-36.43,67.01v0.01
			c-0.9,3.011-1.57,6.16-2.03,9.53c-1.01,7.43-1.44,16.5-1.49,26.18h-0.01c-0.04-5-0.36-66.939,3.96-73.18
			c4.5-6.5,16-21.5,22.02-39.5c5.79-17.32,18.931-29.07,21.711-29.93C1070.534,360.158,1072.624,360.268,1074.443,360.468z"/>
		<path fill="#183225" d="M1020.424,502.728h0.01c-0.189,36.15,4.95,80.82,4.95,80.82v0.5h-7.5v-0.5c-8.5-23-7-145.5-8-161
			c-0.16-2.43,0.19-6.49,0.91-11.74c3.91-28.18,18.899-90.57,27.09-118.76c12.37-42.56,7.66-83.26,7.56-84.08
			c6.931,4.57,8.2,17.9,8.94,33.59c1.5,31.5-40.45,168.2-40,179.01c0.5,12,14.47-7.39,18.5-17.989
			c7.41-19.48,15.33-42.471,33.5-42.471c0.6,0,1.17,0,1.73,0.011c-2.78,0.859-15.921,12.609-21.711,29.93
			c-6.02,18-17.52,33-22.02,39.5C1020.063,435.788,1020.384,497.728,1020.424,502.728z"/>
		<path fill="#006A12" d="M1045.443,207.968c0.101,0.82,4.811,41.52-7.56,84.08c-8.19,28.19-23.18,90.58-27.09,118.76
			c3.02-25.609,5.12-45.45,6.729-61.75c4.311-43.7,5.091-62.07,10.601-98.51c4.27-28.23,9.51-38.95,11.92-42.59
			c0.59-0.88,1.01-1.35,1.21-1.55C1042.844,206.628,1044.233,207.168,1045.443,207.968z"/>
		<path fill="#183225" d="M1041.084,206.378c0.06,0.01,0.12,0.02,0.17,0.03c-0.2,0.2-0.62,0.67-1.21,1.55
			c-2.3-0.19-18.07,8.59-19.62,33.09c-1.54,24.5-2.9,108.01-2.9,108.01c-1.609,16.3-3.71,36.141-6.729,61.75
			c-0.72,5.25-1.07,9.311-0.91,11.74c1,15.5-0.5,138,8,161v0.5h-9v-0.5c-4.42-15.34-6.15-45.08-6.38-80.5c0,0,0-0.01,0-0.02
			c-0.561-84.65,7.399-201.661,7.38-231.48c-0.04-53.62,27.87-64.12,31.18-65.17
			C1041.074,206.368,1041.074,206.368,1041.084,206.378z"/>
		<path fill="#366D50" d="M1020.424,241.048c1.55-24.5,17.32-33.28,19.62-33.09c-2.41,3.64-7.65,14.36-11.92,42.59
			c-5.51,36.44-6.29,54.81-10.601,98.51C1017.523,349.058,1018.884,265.548,1020.424,241.048z"/>
		<path fill="#366D50" d="M1028.884,209.048c5.01-2.28,9-3.08,12.18-2.67c-3.31,1.05-31.22,11.55-31.18,65.17
			c0.02,29.82-7.94,146.83-7.38,231.48c-0.12-1.961-8.13-135.99-9.28-137.98c-1.1-1.92-0.28-46.71-0.03-53.36
			c0-0.08,0.011-0.16,0.011-0.23C997.834,236.698,1009.124,218.028,1028.884,209.048z"/>
		<path fill="#183225" d="M1008.884,583.548v0.5h-7.59v-0.5c0,0-13.82-158.57-16.41-192.5c-1.82-23.73-0.43-28.47-5.23-36.15
			l1.16-0.47c5.311,8.7,10.25,7.44,11.07-15.38c0.35-9.87,0.79-18.97,1.31-27.36c-0.25,6.65-1.069,51.44,0.03,53.36
			c1.15,1.99,9.16,136.02,9.28,137.98c0,0.01,0,0.02,0,0.02C1002.733,538.468,1004.464,568.208,1008.884,583.548z"/>
		<path fill="#366D50" d="M1001.294,583.548v0.5h-6.41c0,0-2.19-15.87-5.36-38.74l0.061-0.01c0,0-13.7-169.25-21.2-180.25
			s-37.55-110.36-37.55-110.36c4.91-7.35,10.83-13.95,16.3-16.63c0.75,6.99,2.23,79.62,21.25,102.49
			c5.62,6.76,9.09,10.86,11.27,14.35c4.801,7.681,3.41,12.42,5.23,36.15C987.474,424.978,1001.294,583.548,1001.294,583.548z"/>
		<path fill="#006A12" d="M989.584,545.298l-0.061,0.01c-7.779-56.06-21.439-154.16-23.14-163.51c-3-16.5-50-94.25-45-108.75
			c1.86-5.38,5.3-12.14,9.45-18.36c0,0,30.05,99.36,37.55,110.36S989.584,545.298,989.584,545.298z"/>
		<path fill="#183225" d="M980.813,354.428l-1.16,0.47c-2.18-3.489-5.649-7.59-11.27-14.35c-19.02-22.87-20.5-95.5-21.25-102.49
			c2.37-1.16,4.66-1.58,6.75-1.01c11,3,16.68,91.03,20.5,102.5C976.414,345.638,978.644,350.868,980.813,354.428z"/>
	</g>
	<g>
		<path fill="none" stroke="#000000" stroke-width="2" stroke-miterlimit="10" d="M993.193,311.688
			c-0.52,8.39-0.96,17.49-1.31,27.36c-0.82,22.82-5.76,24.08-11.07,15.38c-2.17-3.56-4.399-8.79-6.43-14.88
			c-3.82-11.47-9.5-99.5-20.5-102.5c-2.09-0.57-4.38-0.15-6.75,1.01c-5.47,2.68-11.39,9.28-16.3,16.63
			c-4.15,6.22-7.59,12.98-9.45,18.36c-5,14.5,42,92.25,45,108.75c1.7,9.35,15.36,107.45,23.14,163.51
			c3.17,22.87,5.36,38.74,5.36,38.74h6.41h7.59h9h7.5h4.5c0-8-6.5-110.25,2-120.25s59.5-70.13,56.5-86.63
			c-1.45-7.97-2.54-12.49-6.98-14.851c-1.729-0.92-3.979-1.51-6.96-1.85c-1.819-0.2-3.909-0.31-6.329-0.35
			c-0.561-0.011-1.131-0.011-1.73-0.011c-18.17,0-26.09,22.99-33.5,42.471c-4.03,10.6-18,29.989-18.5,17.989
			c-0.45-10.81,41.5-147.51,40-179.01c-0.74-15.69-2.01-29.02-8.94-33.59c-1.21-0.8-2.6-1.34-4.189-1.56
			c-0.05-0.01-0.11-0.02-0.17-0.03"/>
		<path fill="none" stroke="#000000" stroke-width="2" stroke-miterlimit="10" d="M1041.063,206.378
			c-3.18-0.41-7.17,0.39-12.18,2.67c-19.76,8.98-31.05,27.65-35.68,102.41"/>
		<path fill="none" stroke="#000000" stroke-linejoin="round" stroke-miterlimit="10" d="M1041.384,206.278c0,0,0,0-0.01,0.01
			c-0.01,0.01-0.05,0.05-0.12,0.12c-0.2,0.2-0.62,0.67-1.21,1.55c-2.41,3.64-7.65,14.36-11.92,42.59
			c-5.51,36.44-6.29,54.81-10.601,98.51c-1.609,16.3-3.71,36.141-6.729,61.75"/>
		<path fill="none" stroke="#000000" stroke-linejoin="round" stroke-miterlimit="10" d="M1002.504,503.028
			c-0.561-84.65,7.399-201.661,7.38-231.48c-0.04-53.62,27.87-64.12,31.18-65.17c0.011-0.01,0.011-0.01,0.021,0
			c0.17-0.06,0.27-0.09,0.29-0.09"/>
		<path fill="none" stroke="#000000" stroke-linejoin="round" stroke-miterlimit="10" d="M1008.884,583.548
			c-4.42-15.34-6.15-45.08-6.38-80.5"/>
		<path fill="none" stroke="#000000" stroke-miterlimit="10" d="M1045.443,207.958c0,0,0,0,0,0.01
			c0.101,0.82,4.811,41.52-7.56,84.08c-8.19,28.19-23.18,90.58-27.09,118.76c-0.72,5.25-1.07,9.311-0.91,11.74c1,15.5-0.5,138,8,161
			"/>
		<path fill="none" stroke="#000000" stroke-miterlimit="10" d="M947.134,238.058c0.75,6.99,2.23,79.62,21.25,102.49
			c5.62,6.76,9.09,10.86,11.27,14.35c4.801,7.681,3.41,12.42,5.23,36.15c2.59,33.93,16.41,192.5,16.41,192.5"/>
		<path fill="none" stroke="#000000" stroke-miterlimit="10" d="M930.834,254.688c0,0,30.05,99.36,37.55,110.36
			s21.2,180.25,21.2,180.25"/>
		<path fill="none" stroke="#000000" stroke-linejoin="round" stroke-miterlimit="10" d="M1002.504,503.028c0,0.01,0,0.02,0,0.02"/>
		<path fill="none" stroke="#000000" stroke-miterlimit="10" d="M993.224,311.068c-0.01,0.1-0.01,0.23-0.02,0.39
			c0,0.07-0.011,0.15-0.011,0.23c-0.25,6.65-1.069,51.44,0.03,53.36c1.15,1.99,9.16,136.02,9.28,137.98"/>
		<path fill="none" stroke="#000000" stroke-miterlimit="10" d="M1023.954,467.018c-0.9,3.011-1.57,6.16-2.03,9.53
			c-1.01,7.43-1.44,16.5-1.49,26.18c-0.189,36.15,4.95,80.82,4.95,80.82"/>
		<path fill="none" stroke="#000000" stroke-miterlimit="10" d="M1081.313,362.198c0.03,0.02,0.061,0.06,0.09,0.119
			c0.721,1.32,2.381,12.561-0.09,21.73c-2.93,10.86-6.85,24.38-29.83,45.5c-15.25,14.02-23.609,24.4-27.529,37.46"/>
		<path fill="none" stroke="#000000" stroke-miterlimit="10" d="M1068.403,360.067c-0.079,0-0.17,0.021-0.289,0.051
			c-2.78,0.859-15.921,12.609-21.711,29.93c-6.02,18-17.52,33-22.02,39.5c-4.32,6.24-4,68.18-3.96,73.18c0,0.21,0,0.32,0,0.32"/>
		<path fill="none" stroke="#000000" stroke-miterlimit="10" d="M1074.454,360.408c0,0,0,0.02-0.011,0.06
			c-0.189,1.46-3.84,28.771-14.06,39.53c-10.49,11.04-34.14,49.88-36.43,67.01v0.01c-0.011,0.021-0.011,0.03-0.011,0.05"/>
		<path fill="none" stroke="#000000" stroke-miterlimit="10" d="M1040.044,207.958c-2.3-0.19-18.07,8.59-19.62,33.09
			c-1.54,24.5-2.9,108.01-2.9,108.01"/>
	</g>
</g>
<g id="tGroup">
	<g>
		<polygon fill="#9D9D9D" points="955,527 958,546.33 932.98,547.56 924,548 919.67,537.5 919.64,536.84 924,536.67 928.73,526.87 
			929,527 		"/>
		<path fill="#E40001" d="M933,513.23l0.33,4.1l-4.6,9.54l-4.73,9.8l-4.359,0.17l-73.971,2.83c0,0-9.67-19.67-10.67-20.34
			l-14.67-18.83l-3.92-0.061l-63.19-0.909l-1.72-0.03L729,516l-9,38l-80-1v-37h81.67l1.33-6h-83v-63.25l49,0.39V459h4v-11.83
			l56,0.44V459h5v-11.35l55,0.438V459h4v-10.88L924.33,449l-2,5l7,13.67l3.41,42.33H844l3,6l86,1V513.23z M875,461v-12h-4v12H875z"
			/>
		<polygon fill="#313131" points="933,513.23 933,517 847,516 844,510 932.74,510 		"/>
		<path fill="#313131" d="M932.98,547.56L933,548l-7.5,14l-14-11.5l-15-1.49l-59.41,7.51c0.92-3.96,1.41-8.1,1.41-12.35
			c0-17.93-8.689-33.83-22.09-43.729l3.92,0.06L835,519.33c1,0.67,10.67,20.34,10.67,20.34l73.97-2.83l0.03,0.66L924,548
			L932.98,547.56z"/>
		<rect x="871" y="449" fill="#313131" width="4" height="12"/>
		<path d="M838.5,544.17c0,4.25-0.49,8.39-1.41,12.35c-5.59,24.062-27.17,41.98-52.92,41.98c-5.32,0-10.47-0.771-15.33-2.2
			c-0.01,0-0.01,0-0.02,0c-22.53-6.62-38.98-27.45-38.98-52.13c0-18.5,9.25-34.83,23.38-44.64l63.19,0.909
			C829.811,510.34,838.5,526.24,838.5,544.17z M814.5,544.17c0-16.75-13.58-30.33-30.33-30.33s-30.33,13.58-30.33,30.33
			s13.58,30.33,30.33,30.33S814.5,560.92,814.5,544.17z"/>
		<polygon fill="#313131" points="813,448.12 813,459 809,459 809,448.09 		"/>
		<path d="M784.17,528.84c8.47,0,15.33,6.86,15.33,15.33s-6.86,15.33-15.33,15.33s-15.33-6.86-15.33-15.33
			S775.7,528.84,784.17,528.84z M790.5,544.17c0-3.5-2.83-6.33-6.33-6.33s-6.33,2.83-6.33,6.33s2.83,6.33,6.33,6.33
			S790.5,547.67,790.5,544.17z"/>
		<path fill="#313131" d="M768.82,596.3c-35.82,2.19-49.09-28.02-50.32-34.3l-295.31,2.5c-2.79,3.65-24.141,27.39-60.621,27.98
			c29.35-0.74,52.93-24.771,52.93-54.312c0-18.21-8.97-34.31-22.71-44.17H408l26.33,60h200.14l0.03,0.5l4.5-1.5v-37h1v37l80,1l9-38
			l22.5-16.5l1.72,0.03c-14.13,9.81-23.38,26.14-23.38,44.64C729.84,568.85,746.29,589.68,768.82,596.3z"/>
		<polygon fill="#313131" points="754,447.65 754,459 749,459 749,447.61 		"/>
		<polygon fill="#313131" points="723,510 721.67,516 640,516 640,510 		"/>
		<polygon fill="#313131" points="693,447.17 693,459 689,459 689,447.14 		"/>
		<polygon points="639,516 639,553 634.5,554.5 634.47,554 635,554 632.6,516 		"/>
		<polygon points="639,510 639,516 632.6,516 632.22,510 		"/>
		<polygon points="639,471 639,510 632.22,510 631.4,497.01 630,471 		"/>
		<path fill="#E40001" d="M271.76,507.63l-0.74-31.86l-15.28-19.51l-0.03-0.04c14.04-6.02,86.05-11.108,141.17-14.22
			c1.79,1.33,57.38,42.34,57.38,42.34L455.98,510H429l4.33,6h23.39c2,6.08,10.29,31,11.99,31c1.94,0,137.78,1.67,137.78,1.67
			l8.37-32.67h17.568l2.04,38H434.33L408,494h-15.21h-63.24h-17.88l-18.4,50.5L292,548h-31.28l-7.77-16h19.38L271.76,507.63z
			 M298,478v-6h-19v6H298z"/>
		<polygon fill="#313131" points="632.43,516 614.86,516 616.4,510 632.1,510 		"/>
		<path fill="#E40001" d="M592.5,377.4c-20.78-0.682-53.75-1.48-58.04,0.1c-5.28,1.94-32.63,36.28-41.46,48.31l10.67-30.148
			l14-14.63l-7.34-5.3c0,0,0.18-0.12,0.52-0.32c2.75-1.7,15.78-9.48,23.61-9.43c47.62,0.34,88.86,3.028,88.86,3.028l8.08,128
			L632.1,510H616.4l0.6-2.33v-25.34V475l-9-28.33c0.33-0.67,1.51-68.66,1.51-68.66S602.38,377.72,592.5,377.4z"/>
		<polygon fill="#E40001" points="617,482.33 617,507.67 616.4,510 455.98,510 454.26,484.34 		"/>
		<path fill="#E40001" d="M617,475v7.33l-162.74,2.01l-2.34-35.01l26.91-14l0.83,0.13l-0.66,4.21l9.13,1.521L488,442h-6v33h6v-31
			c0,0,119.67,3.33,120,2.67L617,475z M606,463v-4h-27v4H606z"/>
		<path fill="#313131" d="M616.4,510l-1.54,6H456.72c-0.27-0.85-0.43-1.33-0.43-1.33l-0.31-4.67H616.4L616.4,510z"/>
		<path fill="#E40001" d="M614.86,516l-8.37,32.67c0,0-135.84-1.67-137.78-1.67c-1.7,0-9.99-24.92-11.99-31H614.86z"/>
		<path fill="#313131" d="M609.51,378.01c0,0-1.18,67.99-1.51,68.66c-0.33,0.66-120-2.67-120-2.67v-2l0.13-0.81L493,442l-2.75-12.08
			c0,0,0-0.01,0-0.02c0-0.23,1.02-1.73,2.75-4.092l78-4.81l21.5-43.6C602.38,377.72,609.51,378.01,609.51,378.01z"/>
		<path fill="#9D9D9D" d="M592.5,377.4L571,421l-78,4.81c8.83-12.028,36.18-46.368,41.46-48.31
			C538.75,375.92,571.72,376.72,592.5,377.4z"/>
		<path fill="#9D9D9D" d="M517.67,381.03l-14,14.63L447.11,434h-12.16c17.56-15.37,62.97-53.44,74.51-58.92l1.39,0.33
			c-0.34,0.2-0.52,0.32-0.52,0.32L517.67,381.03z"/>
		<path fill="#313131" d="M503.67,395.66l-21.21,22.17h-0.01v0.01l-20.03,20.93c0,0-9.27,0.382-23.92,1.07l7.14-4.84H449v-1h-1.89
			L503.67,395.66z"/>
		<path fill="#E40001" d="M482.46,417.83l21.21-22.17L493,425.81c-1.73,2.36-2.75,3.86-2.75,4.092L488,420L482.46,417.83z"/>
		<polygon fill="#313131" points="488,444 488,475 482,475 482,442 488,442 		"/>
		<path fill="#E40001" d="M482.45,417.84l-2.79,17.62l-0.83-0.13l-26.91,14l2.34,35.01c0,0-55.59-41.01-57.38-42.34
			c11.3-0.63,21.89-1.19,31.12-1.64c3.74-0.19,7.25-0.36,10.5-0.521c14.65-0.688,23.92-1.07,23.92-1.07L482.45,417.84z"/>
		<path fill="#313131" d="M456.72,516h-23.39l-4.33-6h26.98l0.31,4.67C456.29,514.67,456.45,515.15,456.72,516z"/>
		<path fill="#9D9D9D" d="M445.64,435l-7.14,4.84c-3.25,0.16-6.76,0.33-10.5,0.521v-0.012c0.29-0.398,2.41-2.35,5.82-5.35H445.64z"
			/>
		<path d="M392.79,494c13.74,9.86,22.71,25.96,22.71,44.17c0,29.54-23.58,53.57-52.93,54.311c-0.46,0.021-0.93,0.021-1.4,0.021
			c-27.2,0-49.72-19.97-53.7-46.05c-0.42-2.7-0.63-5.47-0.63-8.28c0-18.21,8.96-34.31,22.71-44.17L392.79,494L392.79,494z
			 M391.5,538.17c0-16.75-13.58-30.33-30.33-30.33s-30.33,13.58-30.33,30.33s13.58,30.33,30.33,30.33S391.5,554.92,391.5,538.17z"/>
		<path d="M361.17,522.84c8.47,0,15.33,6.86,15.33,15.33s-6.86,15.33-15.33,15.33c-8.47,0-15.33-6.86-15.33-15.33
			S352.7,522.84,361.17,522.84z M367.5,538.17c0-3.5-2.83-6.33-6.33-6.33s-6.33,2.83-6.33,6.33s2.83,6.33,6.33,6.33
			S367.5,541.67,367.5,538.17z"/>
		<path fill="#313131" d="M311.67,494h17.88c-13.75,9.86-22.71,25.96-22.71,44.17c0,2.811,0.21,5.58,0.63,8.28l-0.63,0.05l-13.57-2
			L311.67,494z"/>
		<polygon fill="#313131" points="252.95,532 244,532 239,527.67 239,506 246.08,503 249.54,501.67 249.67,501.67 271.76,507.63 
			272.33,532 		"/>
		<polygon fill="#9D9D9D" points="271.02,475.77 271.76,507.63 249.67,501.67 249.54,501.67 255.65,456.33 255.74,456.26 		"/>
	</g>
	<g>
		<polyline fill="none" stroke="#000000" stroke-width="3" stroke-miterlimit="10" points="271.77,507.63 271.76,507.63 
			249.67,501.67 		"/>
		<rect x="279" y="472" fill="none" stroke="#000000" stroke-width="3" stroke-miterlimit="10" width="19" height="6"/>
		<polygon fill="none" stroke="#000000" stroke-width="3" stroke-miterlimit="10" points="488,442 482,442 482,475 488,475 488,444 
					"/>
		<polyline fill="none" stroke="#000000" stroke-width="3" stroke-miterlimit="10" points="482.45,417.84 479.66,435.46 479,439.67 
			488.13,441.19 493,442 490.25,429.92 		"/>
		<polyline fill="none" stroke="#000000" stroke-width="3" stroke-miterlimit="10" points="490.25,429.9 488,420 482.46,417.83 		
			"/>
		<path fill="none" stroke="#000000" stroke-width="3" stroke-miterlimit="10" d="M509.46,375.08
			c-11.54,5.479-56.95,43.55-74.51,58.92c-0.391,0.35-0.771,0.68-1.13,1c-3.41,3-5.53,4.95-5.82,5.35"/>
		<path fill="none" stroke="#000000" stroke-width="3" stroke-miterlimit="10" d="M488,444c0,0,119.67,3.33,120,2.67
			c0.33-0.67,1.51-68.66,1.51-68.66s-7.13-0.29-17.01-0.608c-20.78-0.682-53.75-1.48-58.04,0.1c-5.28,1.94-32.63,36.28-41.46,48.31
			c-1.73,2.36-2.75,3.86-2.75,4.092c0,0.01,0,0.02,0,0.02"/>
		<path fill="none" stroke="#000000" stroke-width="3" stroke-miterlimit="10" d="M478.83,435.33l-26.91,14l2.34,35.01L455.98,510
			l0.31,4.67c0,0,0.16,0.48,0.43,1.33c2,6.08,10.29,31,11.99,31c1.94,0,137.78,1.67,137.78,1.67l8.37-32.67l1.54-6l0.6-2.33v-25.34
			V475l-9-28.33"/>
		<path fill="none" stroke="#000000" stroke-width="3" stroke-miterlimit="10" d="M396.88,442c1.79,1.33,57.38,42.34,57.38,42.34
			L617,482.33"/>
		<rect x="579" y="459" fill="none" stroke="#000000" stroke-width="3" stroke-miterlimit="10" width="27" height="4"/>
		<polygon fill="none" stroke="#000000" stroke-width="3" stroke-miterlimit="10" points="693,447.17 693,447 689,447 689,447.14 
			689,459 693,459 		"/>
		<polygon fill="none" stroke="#000000" stroke-width="3" stroke-miterlimit="10" points="754,447.65 754,447 749,447 749,447.61 
			749,459 754,459 		"/>
		<polygon fill="none" stroke="#000000" stroke-width="3" stroke-miterlimit="10" points="813,448.12 813,448 809,448 809,448.09 
			809,459 813,459 		"/>
		<rect x="871" y="449" fill="none" stroke="#000000" stroke-width="3" stroke-miterlimit="10" width="4" height="12"/>
		<polygon fill="none" stroke="#000000" stroke-width="3" stroke-miterlimit="10" points="640,516 721.67,516 723,510 640,510 
			639,510 632.22,510 632.1,510 616.4,510 455.98,510 429,510 433.33,516 456.72,516 614.86,516 632.43,516 632.6,516 639,516 		"/>
		<polygon fill="none" stroke="#000000" stroke-width="3" stroke-miterlimit="10" points="933,513.23 933,510 932.74,510 844,510 
			847,516 933,517 		"/>
		<polyline fill="none" stroke="#000000" stroke-width="3" stroke-miterlimit="10" points="919.67,537.5 924,548 932.98,547.56 
			958,546.33 955,527 929,527 		"/>
		<polygon fill="none" stroke="#000000" stroke-width="3" stroke-miterlimit="10" points="445.64,435 449,435 449,434 447.11,434 
			434.95,434 428,434 428,435 433.82,435 		"/>
		<path fill="none" stroke="#000000" stroke-width="3" stroke-miterlimit="10" d="M415,486.5c-31.55-29.29-102-12.84-102-7.32"/>
		<path fill="none" stroke="#000000" stroke-width="3" stroke-miterlimit="10" d="M835,500.5c-31.55-29.29-102-12.84-102-7.32"/>
		<path fill="none" stroke="#000000" stroke-width="3" stroke-miterlimit="10" d="M362.57,592.48
			c29.35-0.74,52.93-24.771,52.93-54.312c0-18.21-8.97-34.31-22.71-44.17"/>
		<path fill="none" stroke="#000000" stroke-width="3" stroke-miterlimit="10" d="M329.55,494c-13.75,9.86-22.71,25.96-22.71,44.17
			c0,2.811,0.21,5.58,0.63,8.28c3.98,26.08,26.5,46.05,53.7,46.05"/>
		<path fill="none" stroke="#000000" stroke-width="3" stroke-miterlimit="10" d="M252.67,531.42l0.28,0.58l7.77,16H292l1.27-3.5
			l18.4-50.5h17.88h63.24H408l26.33,60h200.14H635l-2.4-38l-0.38-6l-0.818-12.99l-8.08-128c0,0-41.24-2.688-88.86-3.028
			c-7.83-0.052-20.86,7.729-23.61,9.43c-0.34,0.2-0.52,0.32-0.52,0.32l7.34,5.3l-14,14.63l-21.21,22.17h-0.01v0.01l-20.03,20.931
			c0,0-9.27,0.381-23.92,1.069c-3.25,0.16-6.76,0.33-10.5,0.521c-9.229,0.448-19.82,1.01-31.12,1.64
			c-55.12,3.11-127.13,8.2-141.17,14.22l0.03,0.04l15.28,19.511l0.74,31.859l0.57,24.37h-19.38H244l-5-4.33V506l7.08-3l3.46-1.33
			l6.11-45.34"/>
		<circle fill="none" stroke="#000000" stroke-width="3" stroke-miterlimit="10" cx="361.17" cy="538.17" r="30.33"/>
		<path fill="none" stroke="#000000" stroke-width="3" stroke-miterlimit="10" d="M361.17,522.84c-8.47,0-15.33,6.86-15.33,15.33
			s6.86,15.33,15.33,15.33c8.47,0,15.33-6.86,15.33-15.33S369.64,522.84,361.17,522.84z"/>
		<path fill="none" stroke="#000000" stroke-width="3" stroke-miterlimit="10" d="M361.17,531.84c-3.5,0-6.33,2.83-6.33,6.33
			s2.83,6.33,6.33,6.33s6.33-2.83,6.33-6.33S364.67,531.84,361.17,531.84z"/>
		<path fill="none" stroke="#000000" stroke-width="3" stroke-miterlimit="10" d="M768.84,596.3c4.86,1.432,10.01,2.2,15.33,2.2
			c25.75,0,47.33-17.92,52.92-41.98c0.92-3.96,1.41-8.1,1.41-12.35c0-17.93-8.689-33.83-22.09-43.729"/>
		<path fill="none" stroke="#000000" stroke-width="3" stroke-miterlimit="10" d="M753.22,499.53
			c-14.13,9.81-23.38,26.14-23.38,44.64c0,24.68,16.45,45.51,38.98,52.13"/>
		<circle fill="none" stroke="#000000" stroke-width="3" stroke-miterlimit="10" cx="784.17" cy="544.17" r="30.33"/>
		<path fill="none" stroke="#000000" stroke-width="3" stroke-miterlimit="10" d="M784.17,528.84c-8.47,0-15.33,6.86-15.33,15.33
			s6.86,15.33,15.33,15.33s15.33-6.86,15.33-15.33S792.64,528.84,784.17,528.84z"/>
		<path fill="none" stroke="#000000" stroke-width="3" stroke-miterlimit="10" d="M784.17,537.84c-3.5,0-6.33,2.83-6.33,6.33
			s2.83,6.33,6.33,6.33s6.33-2.83,6.33-6.33S787.67,537.84,784.17,537.84z"/>
		<path fill="none" stroke="#000000" stroke-width="3" stroke-miterlimit="10" d="M640,445v1.75V510v6v37l80,1l9-38l22.5-16.5
			l1.72,0.03l63.19,0.91l3.92,0.06L835,519.33c1,0.67,10.67,20.34,10.67,20.34l73.97-2.83l4.36-0.17l4.73-9.8l4.6-9.54l-0.33-4.1
			l-0.26-3.23l-3.41-42.33l-7-13.67l2-5L813,448.12l-4-0.03l-55-0.438l-5-0.04l-56-0.44l-4-0.03l-49-0.39"/>
		<line fill="none" stroke="#000000" stroke-width="3" stroke-miterlimit="10" x1="293.27" y1="544.5" x2="306.84" y2="546.5"/>
		<path fill="none" stroke="#000000" stroke-width="3" stroke-miterlimit="10" d="M718.5,562l-295.31,2.5
			c-2.79,3.65-24.141,27.39-60.621,27.98c-0.46,0.02-0.93,0.02-1.4,0.02"/>
		<path fill="none" stroke="#000000" stroke-width="3" stroke-miterlimit="10" d="M718.5,562c1.23,6.28,14.5,36.49,50.32,34.3
			c0.01,0,0.01,0,0.02,0"/>
		<polyline fill="none" stroke="#000000" stroke-width="3" stroke-miterlimit="10" points="837.09,556.52 896.5,549.01 911.5,550.5 
			925.5,562 933,548 		"/>
		<polygon fill="none" stroke="#000000" stroke-width="3" stroke-miterlimit="10" points="634.47,554 634.5,554.5 639,553 639,516 
			639,510 639,471 630,471 631.4,497.01 632.1,510 632.43,516 		"/>
		<polyline fill="none" stroke="#000000" stroke-width="3" stroke-miterlimit="10" points="438.5,439.84 445.64,435 447.11,434 
			503.67,395.66 493,425.81 571,421 592.5,377.4 592.5,377.39 		"/>
	</g>
</g>
</svg>
