<?xml version="1.0" encoding="utf-8"?>
<!-- Generator: Adobe Illustrator 16.0.0, SVG Export Plug-In . SVG Version: 6.00 Build 0)  -->
<!DOCTYPE svg PUBLIC "-//W3C//DTD SVG 1.1//EN" "http://www.w3.org/Graphics/SVG/1.1/DTD/svg11.dtd">
<svg version="1.1" id="truck" xmlns="http://www.w3.org/2000/svg" xmlns:xlink="http://www.w3.org/1999/xlink" x="0px" y="0px"
	 width="1200px" height="700px" viewBox="0 0 1200 700" enable-background="new 0 0 1200 700" xml:space="preserve">
<polygon id="mGroup" fill="#C9732F" points="1159.178,536.467 1094.932,519.754 1063.434,535.13 1016.936,551.842 937.439,519.086 
	868.441,537.136 850.443,519.086 787.449,511.918 761.947,525.104 728.74,521.404 658.244,512.047 599,531.119 551.959,523.766 
	508.46,521.091 433.464,553.179 383.966,525.111 355.467,510.396 277.469,525.111 232.068,514.754 211.46,538.473 158.947,521.76 
	131.973,514.074 61.357,533.125 37.234,510.396 -1.5,520.218 -1.5,521.467 -38.822,536.467 -103.068,519.754 -134.567,535.13 
	-181.064,551.842 -260.561,519.086 -329.558,537.136 -347.557,519.086 -410.551,511.918 -436.053,525.104 -469.26,521.404 
	-539.756,512.047 -599,531.119 -646.041,523.766 -689.54,521.091 -764.536,553.179 -814.034,525.111 -842.534,510.396 
	-920.532,525.111 -965.932,514.754 -986.54,538.473 -1039.053,521.76 -1066.027,514.074 -1136.642,533.125 -1160.766,510.396 
	-1199.5,520.218 -1199.5,539.828 -1199.5,581.5 -1.5,581.5 0.5,581.5 1198.5,581.5 1198.5,520.663 "/>
<polygon id="mrGroup" fill="#5E3F2A" points="1180.314,566.4 1148.15,560.935 1132.383,565.963 1109.105,571.428 1069.309,560.717 
	1034.766,566.619 1025.755,560.717 994.219,558.372 981.451,562.684 964.827,561.475 929.534,558.414 899.876,564.651 
	876.324,562.246 854.55,561.372 817.004,571.865 792.223,562.688 777.956,557.875 738.907,562.688 716.18,559.3 705.862,567.056 
	679.573,561.591 666.068,559.078 630.718,565.307 618.642,557.875 599.249,561.086 599.249,561.494 580.564,566.4 548.402,560.935 
	532.633,565.963 509.355,571.428 469.557,560.717 435.015,566.619 426.004,560.717 394.467,558.372 381.701,562.684 
	365.076,561.475 329.785,558.414 300.126,564.651 276.575,562.246 254.799,561.372 217.253,571.865 192.475,562.688 
	178.207,557.875 139.158,562.688 116.43,559.3 106.113,567.056 79.824,561.591 66.318,559.078 30.968,565.307 18.891,557.875 
	-0.5,561.086 -0.5,561.757 -18.186,566.4 -50.349,560.935 -66.117,565.963 -89.395,571.428 -129.192,560.717 -163.734,566.619 
	-172.745,560.717 -204.281,558.372 -217.049,562.684 -233.673,561.475 -268.966,558.414 -298.624,564.651 -322.176,562.246 
	-343.95,561.372 -381.496,571.865 -406.277,562.688 -420.544,557.875 -459.593,562.688 -482.32,559.3 -492.638,567.056 
	-518.927,561.591 -532.431,559.078 -567.782,565.307 -579.858,557.875 -599.251,561.086 -599.251,561.494 -617.935,566.4 
	-650.098,560.935 -665.868,565.963 -689.145,571.428 -728.943,560.717 -763.485,566.619 -772.496,560.717 -804.033,558.372 
	-816.799,562.684 -833.424,561.475 -868.715,558.414 -898.374,564.651 -921.925,562.246 -943.701,561.372 -981.247,571.865 
	-1006.026,562.688 -1020.293,557.875 -1059.342,562.688 -1082.071,559.3 -1092.387,567.056 -1118.676,561.591 -1132.181,559.078 
	-1167.532,565.307 -1179.609,557.875 -1199,561.086 -1199,567.499 -1199,581.126 -599.251,581.126 -598.249,581.126 -0.5,581.126 
	1.5,581.126 599.249,581.126 600.251,581.126 1200,581.126 1200,561.232 "/>
<g id="cGroup">
	<g>
		<path fill="#006A12" d="M1023.954,467.018v-0.01c3.92-13.06,12.279-23.438,27.529-37.46c22.979-21.12,26.896-34.64,29.829-45.5
			c2.472-9.17,0.812-20.41,0.091-21.729c4.438,2.355,5.525,6.881,6.979,14.851c3,16.5-48,76.63-56.5,86.63s-2,112.25-2,120.25h-4.5
			v-0.5c0,0-5.14-44.67-4.95-80.816c0.051-9.684,0.48-18.75,1.49-26.184C1022.384,473.178,1023.054,470.028,1023.954,467.018z"/>
		<path fill="#183225" d="M1081.403,362.317c0.721,1.315,2.381,12.561-0.091,21.729c-2.934,10.86-6.854,24.38-29.829,45.5
			c-15.25,14.021-23.609,24.4-27.529,37.46c2.29-17.13,25.938-55.97,36.43-67.01c10.22-10.76,13.87-38.07,14.062-39.53
			C1077.424,360.808,1079.674,361.397,1081.403,362.317z"/>
		<path fill="#006A12" d="M1074.443,360.468c-0.189,1.46-3.84,28.771-14.062,39.53c-10.49,11.04-34.14,49.88-36.43,67.01v0.01
			c-0.9,3.016-1.57,6.16-2.03,9.53c-1.01,7.43-1.438,16.5-1.49,26.18h-0.01c-0.04-5-0.358-66.938,3.96-73.18
			c4.5-6.5,16-21.5,22.021-39.5c5.79-17.32,18.931-29.07,21.711-29.93C1070.534,360.158,1072.624,360.268,1074.443,360.468z"/>
		<path fill="#183225" d="M1020.424,502.728h0.01c-0.188,36.15,4.95,80.82,4.95,80.82v0.5h-7.5v-0.5c-8.5-23-7-145.5-8-161
			c-0.159-2.43,0.19-6.49,0.91-11.74c3.91-28.18,18.899-90.565,27.09-118.76c12.37-42.56,7.66-83.26,7.562-84.08
			c6.931,4.57,8.198,17.9,8.938,33.59c1.5,31.5-40.45,168.2-40,179.01c0.5,12,14.47-7.395,18.5-17.989
			c7.41-19.48,15.33-42.471,33.5-42.471c0.604,0,1.17,0,1.73,0.011c-2.78,0.854-15.921,12.604-21.711,29.93
			c-6.021,18-17.521,33-22.021,39.5C1020.062,435.788,1020.384,497.728,1020.424,502.728z"/>
		<path fill="#006A12" d="M1045.443,207.968c0.101,0.82,4.811,41.52-7.562,84.08c-8.188,28.19-23.18,90.58-27.09,118.76
			c3.021-25.604,5.12-45.445,6.729-61.75c4.312-43.7,5.095-62.07,10.604-98.51c4.27-28.23,9.51-38.95,11.92-42.59
			c0.59-0.88,1.01-1.35,1.21-1.55C1042.844,206.628,1044.233,207.168,1045.443,207.968z"/>
		<path fill="#183225" d="M1041.084,206.378c0.061,0.01,0.12,0.02,0.17,0.03c-0.2,0.2-0.62,0.67-1.21,1.55
			c-2.3-0.19-18.069,8.59-19.62,33.09c-1.54,24.5-2.896,108.01-2.896,108.01c-1.609,16.305-3.71,36.146-6.729,61.75
			c-0.72,5.25-1.066,9.312-0.908,11.74c1,15.5-0.5,138,8,161v0.5h-9v-0.5c-4.422-15.34-6.147-45.08-6.382-80.5c0,0,0-0.01,0-0.02
			c-0.561-84.65,7.399-201.661,7.382-231.48c-0.039-53.62,27.868-64.12,31.183-65.17
			C1041.074,206.368,1041.074,206.368,1041.084,206.378z"/>
		<path fill="#366D50" d="M1020.424,241.048c1.55-24.5,17.32-33.28,19.62-33.09c-2.41,3.64-7.649,14.36-11.92,42.59
			c-5.51,36.44-6.29,54.81-10.601,98.51C1017.523,349.058,1018.884,265.548,1020.424,241.048z"/>
		<path fill="#366D50" d="M1028.884,209.048c5.011-2.28,9-3.08,12.185-2.67c-3.312,1.05-31.225,11.55-31.185,65.17
			c0.021,29.82-7.938,146.83-7.38,231.48c-0.12-1.961-8.13-135.99-9.279-137.98c-1.101-1.92-0.276-46.71-0.026-53.355
			c0-0.08,0.011-0.16,0.011-0.23C997.834,236.698,1009.124,218.028,1028.884,209.048z"/>
		<path fill="#183225" d="M1008.884,583.548v0.5h-7.59v-0.5c0,0-13.82-158.57-16.41-192.5c-1.819-23.729-0.43-28.47-5.229-36.146
			l1.159-0.475c5.312,8.7,10.25,7.44,11.066-15.38c0.354-9.87,0.79-18.97,1.312-27.36c-0.25,6.65-1.069,51.44,0.025,53.36
			c1.15,1.99,9.16,136.021,9.28,137.98c0,0.01,0,0.02,0,0.02C1002.732,538.468,1004.464,568.208,1008.884,583.548z"/>
		<path fill="#366D50" d="M1001.294,583.548v0.5h-6.41c0,0-2.188-15.87-5.355-38.74l0.061-0.01c0,0-13.7-169.25-21.2-180.25
			s-37.55-110.36-37.55-110.36c4.91-7.35,10.83-13.95,16.3-16.63c0.75,6.99,2.23,79.62,21.25,102.49
			c5.62,6.76,9.094,10.86,11.271,14.354c4.801,7.681,3.409,12.42,5.229,36.146C987.474,424.978,1001.294,583.548,1001.294,583.548z"
			/>
		<path fill="#006A12" d="M989.584,545.298l-0.061,0.01c-7.779-56.06-21.439-154.155-23.145-163.51c-3-16.5-50-94.25-45-108.75
			c1.86-5.38,5.3-12.14,9.45-18.36c0,0,30.05,99.36,37.55,110.36S989.584,545.298,989.584,545.298z"/>
		<path fill="#183225" d="M980.812,354.428l-1.159,0.475c-2.185-3.489-5.649-7.595-11.271-14.354
			c-19.02-22.87-20.5-95.5-21.25-102.49c2.37-1.16,4.66-1.58,6.75-1.01c11,3,16.681,91.03,20.5,102.5
			C976.414,345.638,978.645,350.868,980.812,354.428z"/>
	</g>
	<g>
		<path fill="none" stroke="#000000" stroke-width="2" stroke-miterlimit="10" d="M993.193,311.688
			c-0.521,8.395-0.961,17.49-1.312,27.36c-0.818,22.82-5.76,24.08-11.068,15.38c-2.17-3.56-4.396-8.79-6.432-14.88
			c-3.818-11.47-9.5-99.5-20.5-102.5c-2.09-0.57-4.38-0.15-6.75,1.01c-5.47,2.68-11.39,9.28-16.3,16.63
			c-4.15,6.22-7.59,12.98-9.45,18.36c-5,14.5,42,92.25,45,108.75c1.7,9.354,15.36,107.45,23.143,163.51
			c3.172,22.87,5.357,38.74,5.357,38.74h6.41h7.59h9h7.5h4.5c0-8-6.5-110.25,2-120.25s59.5-70.13,56.5-86.63
			c-1.448-7.97-2.54-12.49-6.979-14.851c-1.729-0.925-3.979-1.515-6.96-1.854c-1.819-0.2-3.909-0.31-6.329-0.35
			c-0.562-0.016-1.131-0.016-1.73-0.016c-18.17,0-26.09,22.99-33.5,42.476c-4.025,10.6-18,29.985-18.5,17.985
			c-0.449-10.811,41.5-147.51,40-179.01c-0.738-15.69-2.01-29.02-8.938-33.59c-1.21-0.8-2.604-1.34-4.189-1.56
			c-0.05-0.01-0.105-0.021-0.17-0.03"/>
		<path fill="none" stroke="#000000" stroke-width="2" stroke-miterlimit="10" d="M1041.062,206.378
			c-3.184-0.41-7.174,0.39-12.184,2.67c-19.76,8.98-31.05,27.65-35.68,102.41"/>
		<path fill="none" stroke="#000000" stroke-linejoin="round" stroke-miterlimit="10" d="M1041.384,206.278c0,0,0,0-0.01,0.01
			c-0.01,0.01-0.05,0.05-0.12,0.12c-0.2,0.2-0.62,0.67-1.21,1.55c-2.41,3.64-7.649,14.36-11.92,42.59
			c-5.51,36.44-6.29,54.81-10.601,98.51c-1.609,16.305-3.711,36.146-6.729,61.75"/>
		<path fill="none" stroke="#000000" stroke-linejoin="round" stroke-miterlimit="10" d="M1002.504,503.028
			c-0.561-84.65,7.399-201.661,7.38-231.48c-0.04-53.62,27.87-64.12,31.185-65.17c0.011-0.01,0.011-0.01,0.021,0
			c0.17-0.06,0.271-0.09,0.29-0.09"/>
		<path fill="none" stroke="#000000" stroke-linejoin="round" stroke-miterlimit="10" d="M1008.884,583.548
			c-4.42-15.34-6.146-45.08-6.38-80.5"/>
		<path fill="none" stroke="#000000" stroke-miterlimit="10" d="M1045.443,207.958c0,0,0,0,0,0.01
			c0.101,0.82,4.811,41.52-7.562,84.08c-8.188,28.19-23.18,90.58-27.09,118.76c-0.72,5.25-1.07,9.312-0.91,11.74
			c1,15.5-0.5,138,8,161"/>
		<path fill="none" stroke="#000000" stroke-miterlimit="10" d="M947.134,238.058c0.75,6.99,2.23,79.62,21.25,102.49
			c5.62,6.76,9.09,10.86,11.271,14.354c4.801,7.681,3.409,12.42,5.229,36.146c2.59,33.93,16.41,192.5,16.41,192.5"/>
		<path fill="none" stroke="#000000" stroke-miterlimit="10" d="M930.834,254.688c0,0,30.05,99.36,37.55,110.36
			s21.2,180.25,21.2,180.25"/>
		<path fill="none" stroke="#000000" stroke-linejoin="round" stroke-miterlimit="10" d="M1002.504,503.028c0,0.01,0,0.02,0,0.02"/>
		<path fill="none" stroke="#000000" stroke-miterlimit="10" d="M993.224,311.068c-0.01,0.1-0.01,0.229-0.02,0.39
			c0,0.07-0.011,0.15-0.011,0.23c-0.25,6.646-1.069,51.438,0.025,53.355c1.15,1.99,9.16,136.021,9.28,137.98"/>
		<path fill="none" stroke="#000000" stroke-miterlimit="10" d="M1023.954,467.018c-0.9,3.016-1.57,6.16-2.03,9.53
			c-1.01,7.43-1.439,16.5-1.49,26.18c-0.188,36.15,4.95,80.82,4.95,80.82"/>
		<path fill="none" stroke="#000000" stroke-miterlimit="10" d="M1081.312,362.198c0.026,0.02,0.062,0.06,0.091,0.119
			c0.721,1.315,2.381,12.561-0.091,21.729c-2.934,10.86-6.854,24.38-29.829,45.5c-15.25,14.021-23.609,24.4-27.529,37.46"/>
		<path fill="none" stroke="#000000" stroke-miterlimit="10" d="M1068.403,360.067c-0.079,0-0.171,0.021-0.289,0.051
			c-2.78,0.854-15.921,12.604-21.711,29.93c-6.021,18-17.521,33-22.021,39.5c-4.319,6.24-4,68.18-3.96,73.18c0,0.21,0,0.32,0,0.32"
			/>
		<path fill="none" stroke="#000000" stroke-miterlimit="10" d="M1074.454,360.408c0,0,0,0.02-0.011,0.06
			c-0.189,1.46-3.84,28.771-14.062,39.53c-10.49,11.04-34.14,49.88-36.43,67.01v0.01c-0.014,0.021-0.014,0.03-0.014,0.055"/>
		<path fill="none" stroke="#000000" stroke-miterlimit="10" d="M1040.044,207.958c-2.3-0.19-18.07,8.59-19.62,33.09
			c-1.54,24.5-2.9,108.01-2.9,108.01"/>
	</g>
</g>
<g id="tGroup">
	<g>
		<polygon fill="#9D9D9D" points="1070,527 1073,546.33 1047.98,547.56 1039,548 1034.67,537.5 1034.64,536.84 1039,536.67 
			1043.73,526.87 1044,527 		"/>
		<path fill="#E40001" d="M1048,513.23l0.33,4.1l-4.6,9.54l-4.73,9.8l-4.359,0.17l-73.971,2.83c0,0-9.67-19.67-10.67-20.34
			l-14.67-18.83l-3.92-0.062l-63.19-0.904l-1.72-0.03L844,516l-9,38l-80-1v-37h81.67l1.33-6h-83v-63.25l49,0.39V459h4v-11.83
			l56,0.44V459h5v-11.35l55,0.438V459h4v-10.88l111.33,0.88l-2,5l7,13.67l3.41,42.33H959l3,6l86,1V513.23z M990,461v-12h-4v12H990z"
			/>
		<polygon fill="#313131" points="1048,513.23 1048,517 962,516 959,510 1047.74,510 		"/>
		<path fill="#313131" d="M1047.98,547.56L1048,548l-7.5,14l-14-11.5l-15-1.49l-59.41,7.51c0.92-3.96,1.41-8.1,1.41-12.35
			c0-17.93-8.689-33.83-22.09-43.729l3.92,0.06L950,519.33c1,0.67,10.67,20.34,10.67,20.34l73.97-2.83l0.03,0.66L1039,548
			L1047.98,547.56z"/>
		<rect x="986" y="449" fill="#313131" width="4" height="12"/>
		<path d="M953.5,544.17c0,4.25-0.49,8.39-1.41,12.35c-5.59,24.062-27.17,41.98-52.92,41.98c-5.32,0-10.47-0.771-15.33-2.2
			c-0.01,0-0.01,0-0.02,0c-22.53-6.62-38.98-27.45-38.98-52.13c0-18.5,9.25-34.83,23.38-44.64l63.19,0.904
			C944.811,510.34,953.5,526.24,953.5,544.17z M929.5,544.17c0-16.75-13.58-30.33-30.33-30.33s-30.33,13.58-30.33,30.33
			s13.58,30.33,30.33,30.33S929.5,560.92,929.5,544.17z"/>
		<polygon fill="#313131" points="928,448.12 928,459 924,459 924,448.09 		"/>
		<path d="M899.17,528.84c8.47,0,15.33,6.86,15.33,15.33s-6.86,15.33-15.33,15.33s-15.33-6.86-15.33-15.33
			S890.7,528.84,899.17,528.84z M905.5,544.17c0-3.5-2.83-6.33-6.33-6.33s-6.33,2.83-6.33,6.33s2.83,6.33,6.33,6.33
			S905.5,547.67,905.5,544.17z"/>
		<path fill="#313131" d="M883.82,596.3c-35.82,2.19-49.09-28.02-50.32-34.3l-295.31,2.5c-2.79,3.65-24.146,27.39-60.625,27.98
			c29.35-0.74,52.93-24.771,52.93-54.312c0-18.21-8.97-34.31-22.71-44.17H523l26.33,60h200.14l0.03,0.5l4.5-1.5v-37h1v37l80,1l9-38
			l22.5-16.5l1.72,0.03c-14.13,9.81-23.38,26.14-23.38,44.64C844.84,568.85,861.29,589.68,883.82,596.3z"/>
		<polygon fill="#313131" points="869,447.65 869,459 864,459 864,447.61 		"/>
		<polygon fill="#313131" points="838,510 836.67,516 755,516 755,510 		"/>
		<polygon fill="#313131" points="808,447.17 808,459 804,459 804,447.14 		"/>
		<polygon points="754,516 754,553 749.5,554.5 749.47,554 750,554 747.6,516 		"/>
		<polygon points="754,510 754,516 747.6,516 747.22,510 		"/>
		<polygon points="754,471 754,510 747.22,510 746.4,497.01 745,471 		"/>
		<path fill="#E40001" d="M386.76,507.63l-0.74-31.86l-15.28-19.51l-0.03-0.04c14.04-6.02,86.05-11.104,141.17-14.22
			c1.79,1.33,57.38,42.34,57.38,42.34L570.98,510H544l4.33,6h23.39c2,6.08,10.29,31,11.99,31c1.94,0,137.78,1.67,137.78,1.67
			l8.37-32.67h17.563l2.04,38H549.33L523,494h-15.21h-63.24h-17.88l-18.4,50.5L407,548h-31.28l-7.77-16h19.38L386.76,507.63z
			 M413,478v-6h-19v6H413z"/>
		<polygon fill="#313131" points="747.43,516 729.86,516 731.4,510 747.1,510 		"/>
		<path fill="#E40001" d="M707.5,377.4c-20.78-0.687-53.75-1.48-58.04,0.1c-5.28,1.94-32.63,36.28-41.46,48.31l10.67-30.146
			l14-14.63l-7.34-5.3c0,0,0.18-0.12,0.52-0.32c2.75-1.7,15.78-9.48,23.61-9.43c47.62,0.34,88.86,3.023,88.86,3.023l8.08,128
			L747.1,510H731.4l0.6-2.33v-25.34V475l-9-28.33c0.33-0.67,1.51-68.66,1.51-68.66S717.38,377.72,707.5,377.4z"/>
		<polygon fill="#E40001" points="732,482.33 732,507.67 731.4,510 570.98,510 569.26,484.34 		"/>
		<path fill="#E40001" d="M732,475v7.33l-162.74,2.01l-2.34-35.01l26.91-14l0.83,0.13l-0.66,4.21l9.13,1.521L603,442h-6v33h6v-31
			c0,0,119.67,3.33,120,2.67L732,475z M721,463v-4h-27v4H721z"/>
		<path fill="#313131" d="M731.4,510l-1.54,6H571.72c-0.27-0.85-0.43-1.33-0.43-1.33l-0.31-4.67H731.4L731.4,510z"/>
		<path fill="#E40001" d="M729.86,516l-8.37,32.67c0,0-135.84-1.67-137.78-1.67c-1.7,0-9.99-24.92-11.99-31H729.86z"/>
		<path fill="#313131" d="M724.51,378.01c0,0-1.18,67.99-1.51,68.66c-0.33,0.66-120-2.67-120-2.67v-2l0.13-0.81L608,442l-2.75-12.08
			c0,0,0-0.01,0-0.02c0-0.23,1.02-1.73,2.75-4.097l78-4.81l21.5-43.602C717.38,377.72,724.51,378.01,724.51,378.01z"/>
		<path fill="#9D9D9D" d="M707.5,377.4L686,421l-78,4.81c8.83-12.023,36.18-46.363,41.46-48.31
			C653.75,375.92,686.72,376.72,707.5,377.4z"/>
		<path fill="#9D9D9D" d="M632.67,381.03l-14,14.63L562.11,434h-12.16c17.56-15.37,62.97-53.44,74.51-58.92l1.39,0.33
			c-0.34,0.2-0.52,0.32-0.52,0.32L632.67,381.03z"/>
		<path fill="#313131" d="M618.67,395.66l-21.21,22.17h-0.01v0.01l-20.03,20.93c0,0-9.27,0.387-23.92,1.07l7.14-4.84H564v-1h-1.89
			L618.67,395.66z"/>
		<path fill="#E40001" d="M597.46,417.83l21.21-22.17L608,425.81c-1.73,2.36-2.75,3.86-2.75,4.097L603,420L597.46,417.83z"/>
		<polygon fill="#313131" points="603,444 603,475 597,475 597,442 603,442 		"/>
		<path fill="#E40001" d="M597.45,417.84l-2.79,17.62l-0.83-0.13l-26.91,14l2.34,35.01c0,0-55.59-41.01-57.38-42.34
			c11.3-0.63,21.891-1.19,31.12-1.64c3.74-0.19,7.25-0.36,10.5-0.521c14.65-0.688,23.92-1.07,23.92-1.07L597.45,417.84z"/>
		<path fill="#313131" d="M571.72,516h-23.39l-4.33-6h26.979l0.311,4.67C571.29,514.67,571.45,515.15,571.72,516z"/>
		<path fill="#9D9D9D" d="M560.64,435l-7.14,4.84c-3.25,0.16-6.76,0.33-10.5,0.521v-0.017c0.29-0.396,2.41-2.35,5.82-5.35
			L560.64,435L560.64,435z"/>
		<path d="M507.79,494c13.74,9.86,22.71,25.96,22.71,44.17c0,29.54-23.58,53.57-52.93,54.311c-0.46,0.021-0.931,0.021-1.4,0.021
			c-27.2,0-49.72-19.97-53.7-46.05c-0.42-2.7-0.63-5.47-0.63-8.28c0-18.21,8.96-34.31,22.71-44.17L507.79,494L507.79,494z
			 M506.5,538.17c0-16.75-13.58-30.33-30.33-30.33s-30.33,13.58-30.33,30.33s13.58,30.33,30.33,30.33S506.5,554.92,506.5,538.17z"/>
		<path d="M476.17,522.84c8.47,0,15.33,6.86,15.33,15.33s-6.86,15.33-15.33,15.33s-15.33-6.86-15.33-15.33
			S467.7,522.84,476.17,522.84z M482.5,538.17c0-3.5-2.83-6.33-6.33-6.33s-6.33,2.83-6.33,6.33s2.83,6.33,6.33,6.33
			S482.5,541.67,482.5,538.17z"/>
		<path fill="#313131" d="M426.67,494h17.88c-13.75,9.86-22.71,25.96-22.71,44.17c0,2.811,0.21,5.58,0.63,8.28l-0.63,0.05l-13.57-2
			L426.67,494z"/>
		<polygon fill="#313131" points="367.95,532 359,532 354,527.67 354,506 361.08,503 364.54,501.67 364.67,501.67 386.76,507.63 
			387.33,532 		"/>
		<polygon fill="#9D9D9D" points="386.02,475.77 386.76,507.63 364.67,501.67 364.54,501.67 370.65,456.33 370.74,456.26 		"/>
	</g>
	<g>
		<polyline fill="none" stroke="#000000" stroke-width="3" stroke-miterlimit="10" points="386.77,507.63 386.76,507.63 
			364.67,501.67 		"/>
		<rect x="394" y="472" fill="none" stroke="#000000" stroke-width="3" stroke-miterlimit="10" width="19" height="6"/>
		<polygon fill="none" stroke="#000000" stroke-width="3" stroke-miterlimit="10" points="603,442 597,442 597,475 603,475 603,444 
					"/>
		<polyline fill="none" stroke="#000000" stroke-width="3" stroke-miterlimit="10" points="597.45,417.84 594.66,435.46 594,439.67 
			603.13,441.19 608,442 605.25,429.92 		"/>
		<polyline fill="none" stroke="#000000" stroke-width="3" stroke-miterlimit="10" points="605.25,429.9 603,420 597.46,417.83 		
			"/>
		<path fill="none" stroke="#000000" stroke-width="3" stroke-miterlimit="10" d="M624.46,375.08
			c-11.54,5.479-56.95,43.55-74.51,58.92c-0.396,0.35-0.771,0.68-1.13,1c-3.41,3-5.53,4.95-5.82,5.35"/>
		<path fill="none" stroke="#000000" stroke-width="3" stroke-miterlimit="10" d="M603,444c0,0,119.67,3.33,120,2.67
			c0.33-0.67,1.51-68.66,1.51-68.66s-7.13-0.29-17.01-0.604c-20.78-0.687-53.75-1.48-58.04,0.1c-5.28,1.94-32.63,36.28-41.46,48.312
			c-1.73,2.355-2.75,3.855-2.75,4.092c0,0.01,0,0.02,0,0.02"/>
		<path fill="none" stroke="#000000" stroke-width="3" stroke-miterlimit="10" d="M593.83,435.33l-26.91,14l2.34,35.01L570.98,510
			l0.31,4.67c0,0,0.16,0.48,0.43,1.33c2,6.08,10.29,31,11.99,31c1.94,0,137.78,1.67,137.78,1.67l8.37-32.67l1.54-6l0.6-2.33v-25.34
			V475l-9-28.33"/>
		<path fill="none" stroke="#000000" stroke-width="3" stroke-miterlimit="10" d="M511.88,442c1.79,1.33,57.38,42.34,57.38,42.34
			L732,482.33"/>
		<rect x="694" y="459" fill="none" stroke="#000000" stroke-width="3" stroke-miterlimit="10" width="27" height="4"/>
		<polygon fill="none" stroke="#000000" stroke-width="3" stroke-miterlimit="10" points="808,447.17 808,447 804,447 804,447.14 
			804,459 808,459 		"/>
		<polygon fill="none" stroke="#000000" stroke-width="3" stroke-miterlimit="10" points="869,447.65 869,447 864,447 864,447.61 
			864,459 869,459 		"/>
		<polygon fill="none" stroke="#000000" stroke-width="3" stroke-miterlimit="10" points="928,448.12 928,448 924,448 924,448.09 
			924,459 928,459 		"/>
		<rect x="986" y="449" fill="none" stroke="#000000" stroke-width="3" stroke-miterlimit="10" width="4" height="12"/>
		<polygon fill="none" stroke="#000000" stroke-width="3" stroke-miterlimit="10" points="755,516 836.67,516 838,510 755,510 
			754,510 747.22,510 747.1,510 731.4,510 570.98,510 544,510 548.33,516 571.72,516 729.86,516 747.43,516 747.6,516 754,516 		"/>
		<polygon fill="none" stroke="#000000" stroke-width="3" stroke-miterlimit="10" points="1048,513.23 1048,510 1047.74,510 
			959,510 962,516 1048,517 		"/>
		<polyline fill="none" stroke="#000000" stroke-width="3" stroke-miterlimit="10" points="1034.67,537.5 1039,548 1047.98,547.56 
			1073,546.33 1070,527 1044,527 		"/>
		<polygon fill="none" stroke="#000000" stroke-width="3" stroke-miterlimit="10" points="560.64,435 564,435 564,434 562.11,434 
			549.95,434 543,434 543,435 548.82,435 		"/>
		<path fill="none" stroke="#000000" stroke-width="3" stroke-miterlimit="10" d="M530,486.5c-31.55-29.29-102-12.84-102-7.32"/>
		<path fill="none" stroke="#000000" stroke-width="3" stroke-miterlimit="10" d="M950,500.5c-31.55-29.29-102-12.84-102-7.32"/>
		<path fill="none" stroke="#000000" stroke-width="3" stroke-miterlimit="10" d="M477.57,592.48
			c29.35-0.74,52.93-24.771,52.93-54.312c0-18.21-8.97-34.31-22.71-44.17"/>
		<path fill="none" stroke="#000000" stroke-width="3" stroke-miterlimit="10" d="M444.55,494c-13.75,9.86-22.71,25.96-22.71,44.17
			c0,2.811,0.21,5.58,0.63,8.28c3.98,26.08,26.5,46.05,53.7,46.05"/>
		<path fill="none" stroke="#000000" stroke-width="3" stroke-miterlimit="10" d="M367.67,531.42l0.28,0.58l7.77,16H407l1.27-3.5
			l18.4-50.5h17.88h63.24H523l26.33,60h200.14H750l-2.4-38l-0.38-6l-0.813-12.99l-8.08-128c0,0-41.24-2.688-88.86-3.023
			c-7.83-0.057-20.858,7.729-23.608,9.43c-0.342,0.2-0.521,0.32-0.521,0.32l7.34,5.3l-14,14.63l-21.21,22.17h-0.01v0.01
			l-20.03,20.936c0,0-9.27,0.381-23.92,1.064c-3.25,0.16-6.76,0.33-10.5,0.521c-9.229,0.443-19.82,1.01-31.12,1.64
			c-55.12,3.11-127.13,8.2-141.17,14.22l0.03,0.04l15.28,19.516l0.74,31.854l0.57,24.37h-19.38H359l-5-4.33V506l7.08-3l3.46-1.33
			l6.11-45.34"/>
		<circle fill="none" stroke="#000000" stroke-width="3" stroke-miterlimit="10" cx="476.17" cy="538.17" r="30.33"/>
		<path fill="none" stroke="#000000" stroke-width="3" stroke-miterlimit="10" d="M476.17,522.84c-8.47,0-15.33,6.86-15.33,15.33
			s6.86,15.33,15.33,15.33s15.33-6.86,15.33-15.33S484.64,522.84,476.17,522.84z"/>
		<path fill="none" stroke="#000000" stroke-width="3" stroke-miterlimit="10" d="M476.17,531.84c-3.5,0-6.33,2.83-6.33,6.33
			s2.83,6.33,6.33,6.33s6.33-2.83,6.33-6.33S479.67,531.84,476.17,531.84z"/>
		<path fill="none" stroke="#000000" stroke-width="3" stroke-miterlimit="10" d="M883.84,596.3c4.86,1.437,10.01,2.2,15.33,2.2
			c25.75,0,47.33-17.92,52.92-41.98c0.92-3.96,1.41-8.1,1.41-12.35c0-17.93-8.689-33.83-22.09-43.729"/>
		<path fill="none" stroke="#000000" stroke-width="3" stroke-miterlimit="10" d="M868.22,499.53
			c-14.13,9.81-23.38,26.14-23.38,44.64c0,24.68,16.45,45.51,38.98,52.13"/>
		<circle fill="none" stroke="#000000" stroke-width="3" stroke-miterlimit="10" cx="899.17" cy="544.17" r="30.33"/>
		<path fill="none" stroke="#000000" stroke-width="3" stroke-miterlimit="10" d="M899.17,528.84c-8.47,0-15.33,6.86-15.33,15.33
			s6.86,15.33,15.33,15.33s15.33-6.86,15.33-15.33S907.64,528.84,899.17,528.84z"/>
		<path fill="none" stroke="#000000" stroke-width="3" stroke-miterlimit="10" d="M899.17,537.84c-3.5,0-6.33,2.83-6.33,6.33
			s2.83,6.33,6.33,6.33s6.33-2.83,6.33-6.33S902.67,537.84,899.17,537.84z"/>
		<path fill="none" stroke="#000000" stroke-width="3" stroke-miterlimit="10" d="M755,445v1.75V510v6v37l80,1l9-38l22.5-16.5
			l1.72,0.03l63.19,0.91l3.92,0.06L950,519.33c1,0.67,10.67,20.34,10.67,20.34l73.97-2.83l4.36-0.17l4.73-9.8l4.6-9.54l-0.33-4.1
			l-0.26-3.23l-3.41-42.33l-7-13.67l2-5L928,448.12l-4-0.03l-55-0.438l-5-0.04l-56-0.44l-4-0.03l-49-0.39"/>
		<line fill="none" stroke="#000000" stroke-width="3" stroke-miterlimit="10" x1="408.27" y1="544.5" x2="421.84" y2="546.5"/>
		<path fill="none" stroke="#000000" stroke-width="3" stroke-miterlimit="10" d="M833.5,562l-295.31,2.5
			c-2.79,3.65-24.146,27.39-60.625,27.98c-0.46,0.02-0.931,0.02-1.4,0.02"/>
		<path fill="none" stroke="#000000" stroke-width="3" stroke-miterlimit="10" d="M833.5,562c1.23,6.28,14.5,36.49,50.32,34.3
			c0.01,0,0.01,0,0.02,0"/>
		<polyline fill="none" stroke="#000000" stroke-width="3" stroke-miterlimit="10" points="952.09,556.52 1011.5,549.01 
			1026.5,550.5 1040.5,562 1048,548 		"/>
		<polygon fill="none" stroke="#000000" stroke-width="3" stroke-miterlimit="10" points="749.47,554 749.5,554.5 754,553 754,516 
			754,510 754,471 745,471 746.4,497.01 747.1,510 747.43,516 		"/>
		<polyline fill="none" stroke="#000000" stroke-width="3" stroke-miterlimit="10" points="553.5,439.84 560.64,435 562.11,434 
			618.67,395.66 608,425.81 686,421 707.5,377.4 707.5,377.39 		"/>
	</g>
</g>
</svg>
